<svg width="200" height="200" viewBox="0 0 200 200" fill="none" xmlns="http://www.w3.org/2000/svg">
<circle cx="100" cy="100" r="90" fill="url(#paint0_linear_289_3270)"/>
<path d="M30.0224 93.3723C30.5957 106.493 41.7017 116.665 54.8387 116.092C67.9676 115.527 78.1563 104.437 77.583 91.3165C77.0179 78.204 65.912 68.0318 52.7749 68.5969C39.6378 69.1702 29.4573 80.2598 30.0224 93.3723Z" fill="white"/>
<path d="M64.4047 101.554C62.9305 103.224 60.6209 103.585 59.2367 102.373C57.8526 101.152 57.918 98.8181 59.3841 97.1555C60.8583 95.4847 63.1679 95.1243 64.5521 96.3365C65.9362 97.5568 65.8708 99.891 64.4047 101.554ZM51.7837 90.6688C49.2447 93.5436 45.2479 94.1742 42.8563 92.0694C40.4648 89.9727 40.5794 85.9349 43.1184 83.052C45.6491 80.1772 49.646 79.5466 52.0457 81.6433C54.4372 83.7481 54.3226 87.7859 51.7837 90.6688ZM70.1707 91.6353C69.7775 82.6015 62.1278 75.5989 53.0776 75.992C44.0274 76.377 37.0167 84.0184 37.4099 93.0522C37.803 102.086 45.4526 109.097 54.5027 108.704C63.5447 108.311 70.5638 100.669 70.1707 91.6353Z" fill="#133441"/>
<path d="M122.416 93.3723C122.99 106.493 134.096 116.665 147.233 116.092C160.362 115.527 170.55 104.437 169.977 91.3165C169.412 78.204 158.306 68.0318 145.169 68.5969C132.032 69.1702 121.851 80.2598 122.416 93.3723Z" fill="white"/>
<path d="M157.897 100.964C156.431 102.627 154.113 102.995 152.729 101.783C151.345 100.563 151.419 98.2285 152.885 96.5577C154.351 94.895 156.661 94.5265 158.045 95.7468C159.429 96.959 159.363 99.3014 157.897 100.964ZM144.4 89.7107C141.525 92.2414 137.479 92.3725 135.366 89.9809C133.261 87.5976 133.884 83.609 136.758 81.07C139.641 78.531 143.679 78.4082 145.792 80.7915C147.905 83.1749 147.283 87.1717 144.4 89.7107ZM162.566 91.6354C162.173 82.6016 154.523 75.5989 145.473 75.9921C136.431 76.377 129.412 84.0185 129.805 93.0522C130.19 102.086 137.848 109.097 146.898 108.704C155.94 108.311 162.959 100.669 162.566 91.6354Z" fill="#133441"/>
<defs>
<linearGradient id="paint0_linear_289_3270" x1="190" y1="190" x2="-24.1838" y2="127.899" gradientUnits="userSpaceOnUse">
<stop stop-color="#A0E8CF"/>
<stop offset="1" stop-color="#9681FA"/>
</linearGradient>
</defs>
</svg>
