<svg width="238" height="149" viewBox="0 0 238 149" fill="none" xmlns="http://www.w3.org/2000/svg">
<mask id="path-1-inside-1_153_5763" fill="white">
<path fill-rule="evenodd" clip-rule="evenodd" d="M4.68629 4.68629C0 9.37258 0 16.9151 0 32V80.5C0 95.5849 0 103.127 4.68629 107.814C9.37258 112.5 16.9151 112.5 32 112.5H103.885L107.485 124.779C112.166 140.749 114.506 148.733 119 148.733C123.494 148.733 125.834 140.749 130.516 124.779L134.115 112.5H206C221.085 112.5 228.627 112.5 233.314 107.814C238 103.127 238 95.5849 238 80.5V32C238 16.9151 238 9.37258 233.314 4.68629C228.627 0 221.085 0 206 0H32C16.9151 0 9.37258 0 4.68629 4.68629Z"/>
</mask>
<path fill-rule="evenodd" clip-rule="evenodd" d="M4.68629 4.68629C0 9.37258 0 16.9151 0 32V80.5C0 95.5849 0 103.127 4.68629 107.814C9.37258 112.5 16.9151 112.5 32 112.5H103.885L107.485 124.779C112.166 140.749 114.506 148.733 119 148.733C123.494 148.733 125.834 140.749 130.516 124.779L134.115 112.5H206C221.085 112.5 228.627 112.5 233.314 107.814C238 103.127 238 95.5849 238 80.5V32C238 16.9151 238 9.37258 233.314 4.68629C228.627 0 221.085 0 206 0H32C16.9151 0 9.37258 0 4.68629 4.68629Z" fill="#FAFAFA"/>
<path d="M4.68629 107.814L6.10051 106.399L6.1005 106.399L4.68629 107.814ZM103.885 112.5L105.804 111.937L105.383 110.5H103.885V112.5ZM107.485 124.779L109.404 124.217L109.404 124.217L107.485 124.779ZM130.516 124.779L128.596 124.217L128.596 124.217L130.516 124.779ZM134.115 112.5V110.5H132.617L132.196 111.937L134.115 112.5ZM233.314 107.814L231.899 106.399L231.899 106.399L233.314 107.814ZM2 32C2 24.401 2.00425 18.9029 2.56795 14.7101C3.12392 10.5749 4.1909 8.01011 6.10051 6.10051L3.27208 3.27208C0.495394 6.04876 -0.780775 9.59836 -1.39638 14.1772C-2.00425 18.6984 -2 24.5141 -2 32H2ZM2 80.5V32H-2V80.5H2ZM6.1005 106.399C4.1909 104.49 3.12392 101.925 2.56795 97.7898C2.00425 93.5971 2 88.099 2 80.5H-2C-2 87.9859 -2.00425 93.8016 -1.39638 98.3228C-0.780775 102.902 0.495394 106.451 3.27208 109.228L6.1005 106.399ZM32 110.5C24.401 110.5 18.9029 110.496 14.7101 109.932C10.5749 109.376 8.01011 108.309 6.10051 106.399L3.27208 109.228C6.04876 112.005 9.59836 113.281 14.1772 113.896C18.6984 114.504 24.5141 114.5 32 114.5V110.5ZM103.885 110.5H32V114.5H103.885V110.5ZM109.404 124.217L105.804 111.937L101.966 113.063L105.565 125.342L109.404 124.217ZM119 146.733C118.567 146.733 118.078 146.576 117.431 145.877C116.735 145.126 115.983 143.874 115.147 141.949C113.478 138.099 111.762 132.26 109.404 124.217L105.565 125.342C107.889 133.268 109.684 139.405 111.478 143.541C112.375 145.608 113.342 147.35 114.496 148.595C115.698 149.893 117.186 150.733 119 150.733V146.733ZM128.596 124.217C126.238 132.26 124.523 138.099 122.853 141.949C122.018 143.874 121.265 145.126 120.57 145.877C119.922 146.576 119.433 146.733 119 146.733V150.733C120.814 150.733 122.302 149.893 123.504 148.595C124.658 147.35 125.625 145.608 126.522 143.541C128.316 139.405 130.111 133.268 132.435 125.342L128.596 124.217ZM132.196 111.937L128.596 124.217L132.435 125.342L136.034 113.063L132.196 111.937ZM206 110.5H134.115V114.5H206V110.5ZM231.899 106.399C229.99 108.309 227.425 109.376 223.29 109.932C219.097 110.496 213.599 110.5 206 110.5V114.5C213.486 114.5 219.302 114.504 223.823 113.896C228.402 113.281 231.951 112.005 234.728 109.228L231.899 106.399ZM236 80.5C236 88.099 235.996 93.5971 235.432 97.7898C234.876 101.925 233.809 104.49 231.899 106.399L234.728 109.228C237.505 106.451 238.781 102.902 239.396 98.3228C240.004 93.8016 240 87.9859 240 80.5H236ZM236 32V80.5H240V32H236ZM231.899 6.10051C233.809 8.01011 234.876 10.5749 235.432 14.7101C235.996 18.9029 236 24.401 236 32H240C240 24.5141 240.004 18.6984 239.396 14.1772C238.781 9.59836 237.505 6.04876 234.728 3.27208L231.899 6.10051ZM206 2C213.599 2 219.097 2.00425 223.29 2.56795C227.425 3.12392 229.99 4.1909 231.899 6.10051L234.728 3.27208C231.951 0.495395 228.402 -0.780775 223.823 -1.39638C219.302 -2.00425 213.486 -2 206 -2V2ZM32 2H206V-2H32V2ZM6.10051 6.10051C8.01011 4.1909 10.5749 3.12392 14.7101 2.56795C18.9029 2.00425 24.401 2 32 2V-2C24.5141 -2 18.6984 -2.00425 14.1772 -1.39638C9.59836 -0.780775 6.04876 0.495394 3.27208 3.27208L6.10051 6.10051Z" fill="#EEEEEE" mask="url(#path-1-inside-1_153_5763)"/>
<path d="M69.5918 45.16C69.2318 45.16 68.9385 45.0733 68.7118 44.9C68.4985 44.7267 68.3251 44.4533 68.1918 44.08L64.0118 32.26C63.8651 31.8333 63.8918 31.4733 64.0918 31.18C64.3051 30.8867 64.6585 30.74 65.1518 30.74C65.5118 30.74 65.7918 30.8267 65.9918 31C66.1918 31.16 66.3518 31.42 66.4718 31.78L70.0718 42.46H69.2718L73.0318 31.8C73.1651 31.44 73.3318 31.1733 73.5318 31C73.7318 30.8267 73.9918 30.74 74.3118 30.74C74.6318 30.74 74.8851 30.8267 75.0718 31C75.2585 31.1733 75.4185 31.4467 75.5518 31.82L79.1918 42.46H78.4918L82.1518 31.78C82.2718 31.4333 82.4318 31.1733 82.6318 31C82.8318 30.8267 83.1051 30.74 83.4518 30.74C83.8785 30.74 84.1918 30.8867 84.3918 31.18C84.5918 31.4733 84.6185 31.8333 84.4718 32.26L80.2518 44.1C80.1185 44.46 79.9451 44.7267 79.7318 44.9C79.5185 45.0733 79.2318 45.16 78.8718 45.16C78.5118 45.16 78.2251 45.0733 78.0118 44.9C77.7985 44.7267 77.6251 44.4533 77.4918 44.08L74.0118 34.16H74.4718L70.9518 44.1C70.8185 44.46 70.6451 44.7267 70.4318 44.9C70.2318 45.0733 69.9518 45.16 69.5918 45.16ZM90.2274 45.2C89.1208 45.2 88.1674 44.9933 87.3674 44.58C86.5674 44.1667 85.9474 43.58 85.5074 42.82C85.0808 42.06 84.8674 41.16 84.8674 40.12C84.8674 39.1067 85.0741 38.22 85.4874 37.46C85.9141 36.7 86.4941 36.1067 87.2274 35.68C87.9741 35.24 88.8208 35.02 89.7674 35.02C90.4608 35.02 91.0808 35.1333 91.6274 35.36C92.1874 35.5867 92.6608 35.9133 93.0474 36.34C93.4474 36.7667 93.7474 37.2867 93.9474 37.9C94.1608 38.5 94.2674 39.18 94.2674 39.94C94.2674 40.18 94.1808 40.3667 94.0074 40.5C93.8474 40.62 93.6141 40.68 93.3074 40.68H86.8874V39.24H92.5074L92.1874 39.54C92.1874 38.9267 92.0941 38.4133 91.9074 38C91.7341 37.5867 91.4741 37.2733 91.1274 37.06C90.7941 36.8333 90.3741 36.72 89.8674 36.72C89.3074 36.72 88.8274 36.8533 88.4274 37.12C88.0408 37.3733 87.7408 37.74 87.5274 38.22C87.3274 38.6867 87.2274 39.2467 87.2274 39.9V40.04C87.2274 41.1333 87.4808 41.9533 87.9874 42.5C88.5074 43.0333 89.2674 43.3 90.2674 43.3C90.6141 43.3 91.0008 43.26 91.4274 43.18C91.8674 43.0867 92.2808 42.9333 92.6674 42.72C92.9474 42.56 93.1941 42.4933 93.4074 42.52C93.6208 42.5333 93.7874 42.6067 93.9074 42.74C94.0408 42.8733 94.1208 43.04 94.1474 43.24C94.1741 43.4267 94.1341 43.62 94.0274 43.82C93.9341 44.02 93.7674 44.1933 93.5274 44.34C93.0608 44.6333 92.5208 44.8533 91.9074 45C91.3074 45.1333 90.7474 45.2 90.2274 45.2ZM99.5873 45.2C98.4806 45.2 97.6473 44.8867 97.0873 44.26C96.5273 43.62 96.2473 42.6867 96.2473 41.46V32C96.2473 31.5867 96.3539 31.2733 96.5673 31.06C96.7806 30.8467 97.0873 30.74 97.4873 30.74C97.8873 30.74 98.1939 30.8467 98.4073 31.06C98.6339 31.2733 98.7473 31.5867 98.7473 32V41.34C98.7473 41.9533 98.8739 42.4067 99.1273 42.7C99.3939 42.9933 99.7673 43.14 100.247 43.14C100.354 43.14 100.454 43.14 100.547 43.14C100.641 43.1267 100.734 43.1133 100.827 43.1C101.014 43.0733 101.141 43.1267 101.207 43.26C101.274 43.38 101.307 43.6333 101.307 44.02C101.307 44.3533 101.241 44.6133 101.107 44.8C100.974 44.9867 100.754 45.1 100.447 45.14C100.314 45.1533 100.174 45.1667 100.027 45.18C99.8806 45.1933 99.7339 45.2 99.5873 45.2ZM107.056 45.2C106.03 45.2 105.136 44.9933 104.376 44.58C103.616 44.1533 103.03 43.5533 102.616 42.78C102.203 42.0067 101.996 41.1 101.996 40.06C101.996 39.2733 102.11 38.5733 102.336 37.96C102.576 37.3333 102.916 36.8067 103.356 36.38C103.796 35.94 104.33 35.6067 104.956 35.38C105.583 35.14 106.283 35.02 107.056 35.02C107.496 35.02 107.97 35.08 108.476 35.2C108.996 35.32 109.483 35.52 109.936 35.8C110.15 35.9333 110.29 36.0933 110.356 36.28C110.423 36.4667 110.436 36.66 110.396 36.86C110.356 37.0467 110.27 37.2133 110.136 37.36C110.016 37.4933 109.863 37.58 109.676 37.62C109.49 37.6467 109.283 37.6 109.056 37.48C108.763 37.3067 108.463 37.18 108.156 37.1C107.85 37.0067 107.556 36.96 107.276 36.96C106.836 36.96 106.45 37.0333 106.116 37.18C105.783 37.3133 105.496 37.5133 105.256 37.78C105.03 38.0333 104.856 38.3533 104.736 38.74C104.616 39.1267 104.556 39.5733 104.556 40.08C104.556 41.0667 104.79 41.8467 105.256 42.42C105.736 42.98 106.41 43.26 107.276 43.26C107.556 43.26 107.843 43.22 108.136 43.14C108.443 43.06 108.75 42.9333 109.056 42.76C109.283 42.64 109.483 42.6 109.656 42.64C109.843 42.68 109.996 42.7733 110.116 42.92C110.236 43.0533 110.31 43.22 110.336 43.42C110.363 43.6067 110.336 43.7933 110.256 43.98C110.19 44.1667 110.056 44.32 109.856 44.44C109.416 44.7067 108.95 44.9 108.456 45.02C107.963 45.14 107.496 45.2 107.056 45.2ZM116.235 45.2C115.221 45.2 114.341 44.9933 113.595 44.58C112.848 44.1667 112.268 43.58 111.855 42.82C111.441 42.0467 111.235 41.14 111.235 40.1C111.235 39.3133 111.348 38.6133 111.575 38C111.815 37.3733 112.155 36.84 112.595 36.4C113.035 35.9467 113.561 35.6067 114.175 35.38C114.788 35.14 115.475 35.02 116.235 35.02C117.248 35.02 118.128 35.2267 118.875 35.64C119.621 36.0533 120.201 36.64 120.615 37.4C121.028 38.16 121.235 39.06 121.235 40.1C121.235 40.8867 121.115 41.5933 120.875 42.22C120.648 42.8467 120.315 43.3867 119.875 43.84C119.435 44.28 118.908 44.62 118.295 44.86C117.681 45.0867 116.995 45.2 116.235 45.2ZM116.235 43.3C116.728 43.3 117.161 43.18 117.535 42.94C117.908 42.7 118.195 42.3467 118.395 41.88C118.608 41.4 118.715 40.8067 118.715 40.1C118.715 39.0333 118.488 38.24 118.035 37.72C117.581 37.1867 116.981 36.92 116.235 36.92C115.741 36.92 115.308 37.04 114.935 37.28C114.561 37.5067 114.268 37.86 114.055 38.34C113.855 38.8067 113.755 39.3933 113.755 40.1C113.755 41.1533 113.981 41.9533 114.435 42.5C114.888 43.0333 115.488 43.3 116.235 43.3ZM124.578 45.16C124.178 45.16 123.871 45.0533 123.658 44.84C123.445 44.6133 123.338 44.2933 123.338 43.88V36.32C123.338 35.9067 123.445 35.5933 123.658 35.38C123.871 35.1667 124.171 35.06 124.558 35.06C124.945 35.06 125.245 35.1667 125.458 35.38C125.671 35.5933 125.778 35.9067 125.778 36.32V37.78L125.558 37.18C125.825 36.5133 126.238 35.9867 126.798 35.6C127.358 35.2133 128.025 35.02 128.798 35.02C129.585 35.02 130.231 35.2067 130.738 35.58C131.245 35.9533 131.598 36.5267 131.798 37.3H131.518C131.785 36.5933 132.225 36.04 132.838 35.64C133.451 35.2267 134.158 35.02 134.958 35.02C135.705 35.02 136.318 35.1667 136.798 35.46C137.291 35.7533 137.658 36.2 137.898 36.8C138.138 37.3867 138.258 38.1333 138.258 39.04V43.88C138.258 44.2933 138.145 44.6133 137.918 44.84C137.705 45.0533 137.398 45.16 136.998 45.16C136.598 45.16 136.291 45.0533 136.078 44.84C135.865 44.6133 135.758 44.2933 135.758 43.88V39.14C135.758 38.3933 135.631 37.8467 135.378 37.5C135.138 37.1533 134.725 36.98 134.138 36.98C133.485 36.98 132.971 37.2133 132.598 37.68C132.225 38.1333 132.038 38.7667 132.038 39.58V43.88C132.038 44.2933 131.931 44.6133 131.718 44.84C131.505 45.0533 131.198 45.16 130.798 45.16C130.398 45.16 130.085 45.0533 129.858 44.84C129.645 44.6133 129.538 44.2933 129.538 43.88V39.14C129.538 38.3933 129.411 37.8467 129.158 37.5C128.918 37.1533 128.511 36.98 127.938 36.98C127.285 36.98 126.771 37.2133 126.398 37.68C126.025 38.1333 125.838 38.7667 125.838 39.58V43.88C125.838 44.7333 125.418 45.16 124.578 45.16ZM145.657 45.2C144.55 45.2 143.597 44.9933 142.797 44.58C141.997 44.1667 141.377 43.58 140.937 42.82C140.51 42.06 140.297 41.16 140.297 40.12C140.297 39.1067 140.504 38.22 140.917 37.46C141.344 36.7 141.924 36.1067 142.657 35.68C143.404 35.24 144.25 35.02 145.197 35.02C145.89 35.02 146.51 35.1333 147.057 35.36C147.617 35.5867 148.09 35.9133 148.477 36.34C148.877 36.7667 149.177 37.2867 149.377 37.9C149.59 38.5 149.697 39.18 149.697 39.94C149.697 40.18 149.61 40.3667 149.437 40.5C149.277 40.62 149.044 40.68 148.737 40.68H142.317V39.24H147.937L147.617 39.54C147.617 38.9267 147.524 38.4133 147.337 38C147.164 37.5867 146.904 37.2733 146.557 37.06C146.224 36.8333 145.804 36.72 145.297 36.72C144.737 36.72 144.257 36.8533 143.857 37.12C143.47 37.3733 143.17 37.74 142.957 38.22C142.757 38.6867 142.657 39.2467 142.657 39.9V40.04C142.657 41.1333 142.91 41.9533 143.417 42.5C143.937 43.0333 144.697 43.3 145.697 43.3C146.044 43.3 146.43 43.26 146.857 43.18C147.297 43.0867 147.71 42.9333 148.097 42.72C148.377 42.56 148.624 42.4933 148.837 42.52C149.05 42.5333 149.217 42.6067 149.337 42.74C149.47 42.8733 149.55 43.04 149.577 43.24C149.604 43.4267 149.564 43.62 149.457 43.82C149.364 44.02 149.197 44.1933 148.957 44.34C148.49 44.6333 147.95 44.8533 147.337 45C146.737 45.1333 146.177 45.2 145.657 45.2ZM161.587 45.2C160.72 45.2 159.993 45.0533 159.407 44.76C158.833 44.4667 158.407 44.04 158.127 43.48C157.847 42.9067 157.707 42.2 157.707 41.36V37.1H156.667C156.347 37.1 156.1 37.02 155.927 36.86C155.753 36.6867 155.667 36.4533 155.667 36.16C155.667 35.8533 155.753 35.62 155.927 35.46C156.1 35.3 156.347 35.22 156.667 35.22H157.707V33.4C157.707 32.9867 157.813 32.6733 158.027 32.46C158.253 32.2467 158.567 32.14 158.967 32.14C159.367 32.14 159.673 32.2467 159.887 32.46C160.1 32.6733 160.207 32.9867 160.207 33.4V35.22H162.327C162.647 35.22 162.893 35.3 163.067 35.46C163.24 35.62 163.327 35.8533 163.327 36.16C163.327 36.4533 163.24 36.6867 163.067 36.86C162.893 37.02 162.647 37.1 162.327 37.1H160.207V41.22C160.207 41.86 160.347 42.34 160.627 42.66C160.907 42.98 161.36 43.14 161.987 43.14C162.213 43.14 162.413 43.12 162.587 43.08C162.76 43.04 162.913 43.0133 163.047 43C163.207 42.9867 163.34 43.04 163.447 43.16C163.553 43.2667 163.607 43.4933 163.607 43.84C163.607 44.1067 163.56 44.3467 163.467 44.56C163.387 44.76 163.233 44.9 163.007 44.98C162.833 45.0333 162.607 45.08 162.327 45.12C162.047 45.1733 161.8 45.2 161.587 45.2ZM169.145 45.2C168.131 45.2 167.251 44.9933 166.505 44.58C165.758 44.1667 165.178 43.58 164.765 42.82C164.351 42.0467 164.145 41.14 164.145 40.1C164.145 39.3133 164.258 38.6133 164.485 38C164.725 37.3733 165.065 36.84 165.505 36.4C165.945 35.9467 166.471 35.6067 167.085 35.38C167.698 35.14 168.385 35.02 169.145 35.02C170.158 35.02 171.038 35.2267 171.785 35.64C172.531 36.0533 173.111 36.64 173.525 37.4C173.938 38.16 174.145 39.06 174.145 40.1C174.145 40.8867 174.025 41.5933 173.785 42.22C173.558 42.8467 173.225 43.3867 172.785 43.84C172.345 44.28 171.818 44.62 171.205 44.86C170.591 45.0867 169.905 45.2 169.145 45.2ZM169.145 43.3C169.638 43.3 170.071 43.18 170.445 42.94C170.818 42.7 171.105 42.3467 171.305 41.88C171.518 41.4 171.625 40.8067 171.625 40.1C171.625 39.0333 171.398 38.24 170.945 37.72C170.491 37.1867 169.891 36.92 169.145 36.92C168.651 36.92 168.218 37.04 167.845 37.28C167.471 37.5067 167.178 37.86 166.965 38.34C166.765 38.8067 166.665 39.3933 166.665 40.1C166.665 41.1533 166.891 41.9533 167.345 42.5C167.798 43.0333 168.398 43.3 169.145 43.3ZM28.7031 77.16C28.3431 77.16 28.0498 77.0733 27.8231 76.9C27.6098 76.7267 27.4365 76.4533 27.3031 76.08L23.1231 64.26C22.9765 63.8333 23.0031 63.4733 23.2031 63.18C23.4165 62.8867 23.7698 62.74 24.2631 62.74C24.6231 62.74 24.9031 62.8267 25.1031 63C25.3031 63.16 25.4631 63.42 25.5831 63.78L29.1831 74.46H28.3831L32.1431 63.8C32.2765 63.44 32.4431 63.1733 32.6431 63C32.8431 62.8267 33.1031 62.74 33.4231 62.74C33.7431 62.74 33.9965 62.8267 34.1831 63C34.3698 63.1733 34.5298 63.4467 34.6631 63.82L38.3031 74.46H37.6031L41.2631 63.78C41.3831 63.4333 41.5431 63.1733 41.7431 63C41.9431 62.8267 42.2165 62.74 42.5631 62.74C42.9898 62.74 43.3031 62.8867 43.5031 63.18C43.7031 63.4733 43.7298 63.8333 43.5831 64.26L39.3631 76.1C39.2298 76.46 39.0565 76.7267 38.8431 76.9C38.6298 77.0733 38.3431 77.16 37.9831 77.16C37.6231 77.16 37.3365 77.0733 37.1231 76.9C36.9098 76.7267 36.7365 76.4533 36.6031 76.08L33.1231 66.16H33.5831L30.0631 76.1C29.9298 76.46 29.7565 76.7267 29.5431 76.9C29.3431 77.0733 29.0631 77.16 28.7031 77.16ZM48.9788 77.2C47.9654 77.2 47.0854 76.9933 46.3388 76.58C45.5921 76.1667 45.0121 75.58 44.5988 74.82C44.1854 74.0467 43.9788 73.14 43.9788 72.1C43.9788 71.3133 44.0921 70.6133 44.3188 70C44.5588 69.3733 44.8988 68.84 45.3388 68.4C45.7788 67.9467 46.3054 67.6067 46.9188 67.38C47.5321 67.14 48.2188 67.02 48.9788 67.02C49.9921 67.02 50.8721 67.2267 51.6188 67.64C52.3654 68.0533 52.9454 68.64 53.3588 69.4C53.7721 70.16 53.9788 71.06 53.9788 72.1C53.9788 72.8867 53.8588 73.5933 53.6188 74.22C53.3921 74.8467 53.0588 75.3867 52.6188 75.84C52.1788 76.28 51.6521 76.62 51.0388 76.86C50.4254 77.0867 49.7388 77.2 48.9788 77.2ZM48.9788 75.3C49.4721 75.3 49.9054 75.18 50.2788 74.94C50.6521 74.7 50.9388 74.3467 51.1388 73.88C51.3521 73.4 51.4588 72.8067 51.4588 72.1C51.4588 71.0333 51.2321 70.24 50.7788 69.72C50.3254 69.1867 49.7254 68.92 48.9788 68.92C48.4854 68.92 48.0521 69.04 47.6788 69.28C47.3054 69.5067 47.0121 69.86 46.7988 70.34C46.5988 70.8067 46.4988 71.3933 46.4988 72.1C46.4988 73.1533 46.7254 73.9533 47.1788 74.5C47.6321 75.0333 48.2321 75.3 48.9788 75.3ZM57.3222 77.16C56.9089 77.16 56.5889 77.0533 56.3622 76.84C56.1489 76.6133 56.0422 76.2933 56.0422 75.88V68.32C56.0422 67.9067 56.1489 67.5933 56.3622 67.38C56.5755 67.1667 56.8755 67.06 57.2622 67.06C57.6489 67.06 57.9489 67.1667 58.1622 67.38C58.3755 67.5933 58.4822 67.9067 58.4822 68.32V69.58H58.2822C58.4689 68.78 58.8355 68.1733 59.3822 67.76C59.9289 67.3467 60.6555 67.1 61.5622 67.02C61.8422 66.9933 62.0622 67.0667 62.2222 67.24C62.3955 67.4 62.4955 67.6533 62.5222 68C62.5489 68.3333 62.4689 68.6067 62.2822 68.82C62.1089 69.02 61.8422 69.14 61.4822 69.18L61.0422 69.22C60.2289 69.3 59.6155 69.5533 59.2022 69.98C58.7889 70.3933 58.5822 70.98 58.5822 71.74V75.88C58.5822 76.2933 58.4755 76.6133 58.2622 76.84C58.0489 77.0533 57.7355 77.16 57.3222 77.16ZM67.2142 77.2C66.1076 77.2 65.2742 76.8867 64.7142 76.26C64.1542 75.62 63.8742 74.6867 63.8742 73.46V64C63.8742 63.5867 63.9809 63.2733 64.1942 63.06C64.4076 62.8467 64.7142 62.74 65.1142 62.74C65.5142 62.74 65.8209 62.8467 66.0342 63.06C66.2609 63.2733 66.3742 63.5867 66.3742 64V73.34C66.3742 73.9533 66.5009 74.4067 66.7542 74.7C67.0209 74.9933 67.3942 75.14 67.8742 75.14C67.9809 75.14 68.0809 75.14 68.1742 75.14C68.2676 75.1267 68.3609 75.1133 68.4542 75.1C68.6409 75.0733 68.7676 75.1267 68.8342 75.26C68.9009 75.38 68.9342 75.6333 68.9342 76.02C68.9342 76.3533 68.8676 76.6133 68.7342 76.8C68.6009 76.9867 68.3809 77.1 68.0742 77.14C67.9409 77.1533 67.8009 77.1667 67.6542 77.18C67.5076 77.1933 67.3609 77.2 67.2142 77.2ZM73.9233 77.2C73.0699 77.2 72.3166 76.9933 71.6633 76.58C71.0233 76.1667 70.5233 75.58 70.1633 74.82C69.8033 74.0467 69.6233 73.14 69.6233 72.1C69.6233 71.0467 69.8033 70.1467 70.1633 69.4C70.5233 68.64 71.0233 68.0533 71.6633 67.64C72.3166 67.2267 73.0699 67.02 73.9233 67.02C74.7366 67.02 75.4433 67.22 76.0433 67.62C76.6566 68.02 77.0699 68.5467 77.2833 69.2H77.0633V64C77.0633 63.5867 77.1699 63.2733 77.3833 63.06C77.5966 62.8467 77.9033 62.74 78.3033 62.74C78.7033 62.74 79.0099 62.8467 79.2233 63.06C79.4499 63.2733 79.5633 63.5867 79.5633 64V75.88C79.5633 76.2933 79.4566 76.6133 79.2433 76.84C79.0299 77.0533 78.7233 77.16 78.3233 77.16C77.9233 77.16 77.6166 77.0533 77.4033 76.84C77.1899 76.6133 77.0833 76.2933 77.0833 75.88V74.32L77.3033 74.92C77.1033 75.6133 76.6966 76.1667 76.0833 76.58C75.4699 76.9933 74.7499 77.2 73.9233 77.2ZM74.6233 75.3C75.1166 75.3 75.5499 75.18 75.9233 74.94C76.2966 74.7 76.5833 74.3467 76.7833 73.88C76.9966 73.4 77.1033 72.8067 77.1033 72.1C77.1033 71.0333 76.8766 70.24 76.4233 69.72C75.9699 69.1867 75.3699 68.92 74.6233 68.92C74.1299 68.92 73.6966 69.04 73.3233 69.28C72.9499 69.5067 72.6566 69.86 72.4433 70.34C72.2433 70.8067 72.1433 71.3933 72.1433 72.1C72.1433 73.1533 72.3699 73.9533 72.8233 74.5C73.2766 75.0333 73.8766 75.3 74.6233 75.3ZM92.0452 77.2C91.0318 77.2 90.1518 76.9933 89.4052 76.58C88.6585 76.1667 88.0785 75.58 87.6652 74.82C87.2518 74.0467 87.0452 73.14 87.0452 72.1C87.0452 71.3133 87.1585 70.6133 87.3852 70C87.6252 69.3733 87.9652 68.84 88.4052 68.4C88.8452 67.9467 89.3718 67.6067 89.9852 67.38C90.5985 67.14 91.2852 67.02 92.0452 67.02C93.0585 67.02 93.9385 67.2267 94.6852 67.64C95.4318 68.0533 96.0118 68.64 96.4252 69.4C96.8385 70.16 97.0452 71.06 97.0452 72.1C97.0452 72.8867 96.9252 73.5933 96.6852 74.22C96.4585 74.8467 96.1252 75.3867 95.6852 75.84C95.2452 76.28 94.7185 76.62 94.1052 76.86C93.4918 77.0867 92.8052 77.2 92.0452 77.2ZM92.0452 75.3C92.5385 75.3 92.9718 75.18 93.3452 74.94C93.7185 74.7 94.0052 74.3467 94.2052 73.88C94.4185 73.4 94.5252 72.8067 94.5252 72.1C94.5252 71.0333 94.2985 70.24 93.8452 69.72C93.3918 69.1867 92.7918 68.92 92.0452 68.92C91.5518 68.92 91.1185 69.04 90.7452 69.28C90.3718 69.5067 90.0785 69.86 89.8652 70.34C89.6652 70.8067 89.5652 71.3933 89.5652 72.1C89.5652 73.1533 89.7918 73.9533 90.2452 74.5C90.6985 75.0333 91.2985 75.3 92.0452 75.3ZM100.931 77.16C100.531 77.16 100.218 77.0533 99.9909 76.84C99.7776 76.6133 99.6709 76.2933 99.6709 75.88V69.1H98.7509C98.4309 69.1 98.1843 69.02 98.0109 68.86C97.8376 68.6867 97.7509 68.4533 97.7509 68.16C97.7509 67.8533 97.8376 67.62 98.0109 67.46C98.1843 67.3 98.4309 67.22 98.7509 67.22H100.391L99.6709 67.88V67.2C99.6709 65.8267 100.018 64.8 100.711 64.12C101.404 63.4267 102.404 63.02 103.711 62.9L104.391 62.84C104.658 62.8133 104.871 62.86 105.031 62.98C105.191 63.0867 105.298 63.2333 105.351 63.42C105.404 63.5933 105.411 63.7733 105.371 63.96C105.331 64.1467 105.244 64.3133 105.111 64.46C104.991 64.5933 104.831 64.6667 104.631 64.68L104.351 64.7C103.591 64.7533 103.038 64.9467 102.691 65.28C102.344 65.6133 102.171 66.12 102.171 66.8V67.54L101.851 67.22H103.871C104.191 67.22 104.438 67.3 104.611 67.46C104.784 67.62 104.871 67.8533 104.871 68.16C104.871 68.4533 104.784 68.6867 104.611 68.86C104.438 69.02 104.191 69.1 103.871 69.1H102.171V75.88C102.171 76.7333 101.758 77.16 100.931 77.16ZM113.326 77C112.886 77 112.546 76.8867 112.306 76.66C112.079 76.42 111.966 76.08 111.966 75.64V64.26C111.966 63.82 112.079 63.4867 112.306 63.26C112.546 63.02 112.886 62.9 113.326 62.9H118.126C119.112 62.9 119.952 63.0467 120.646 63.34C121.339 63.6333 121.866 64.0533 122.226 64.6C122.599 65.1467 122.786 65.8 122.786 66.56C122.786 67.4133 122.539 68.1333 122.046 68.72C121.552 69.3067 120.879 69.7 120.026 69.9V69.6C121.012 69.7467 121.779 70.12 122.326 70.72C122.872 71.32 123.146 72.1 123.146 73.06C123.146 74.3133 122.719 75.2867 121.866 75.98C121.026 76.66 119.852 77 118.346 77H113.326ZM114.426 75.06H118.026C118.932 75.06 119.599 74.8867 120.026 74.54C120.452 74.18 120.666 73.6467 120.666 72.94C120.666 72.22 120.452 71.6867 120.026 71.34C119.599 70.9933 118.932 70.82 118.026 70.82H114.426V75.06ZM114.426 68.88H117.686C118.566 68.88 119.219 68.7133 119.646 68.38C120.086 68.0333 120.306 67.5267 120.306 66.86C120.306 66.1933 120.086 65.6933 119.646 65.36C119.219 65.0133 118.566 64.84 117.686 64.84H114.426V68.88ZM128.835 77.2C127.729 77.2 126.895 76.8867 126.335 76.26C125.775 75.62 125.495 74.6867 125.495 73.46V64C125.495 63.5867 125.602 63.2733 125.815 63.06C126.029 62.8467 126.335 62.74 126.735 62.74C127.135 62.74 127.442 62.8467 127.655 63.06C127.882 63.2733 127.995 63.5867 127.995 64V73.34C127.995 73.9533 128.122 74.4067 128.375 74.7C128.642 74.9933 129.015 75.14 129.495 75.14C129.602 75.14 129.702 75.14 129.795 75.14C129.889 75.1267 129.982 75.1133 130.075 75.1C130.262 75.0733 130.389 75.1267 130.455 75.26C130.522 75.38 130.555 75.6333 130.555 76.02C130.555 76.3533 130.489 76.6133 130.355 76.8C130.222 76.9867 130.002 77.1 129.695 77.14C129.562 77.1533 129.422 77.1667 129.275 77.18C129.129 77.1933 128.982 77.2 128.835 77.2ZM136.244 77.2C135.231 77.2 134.351 76.9933 133.604 76.58C132.858 76.1667 132.278 75.58 131.864 74.82C131.451 74.0467 131.244 73.14 131.244 72.1C131.244 71.3133 131.358 70.6133 131.584 70C131.824 69.3733 132.164 68.84 132.604 68.4C133.044 67.9467 133.571 67.6067 134.184 67.38C134.798 67.14 135.484 67.02 136.244 67.02C137.258 67.02 138.138 67.2267 138.884 67.64C139.631 68.0533 140.211 68.64 140.624 69.4C141.038 70.16 141.244 71.06 141.244 72.1C141.244 72.8867 141.124 73.5933 140.884 74.22C140.658 74.8467 140.324 75.3867 139.884 75.84C139.444 76.28 138.918 76.62 138.304 76.86C137.691 77.0867 137.004 77.2 136.244 77.2ZM136.244 75.3C136.738 75.3 137.171 75.18 137.544 74.94C137.918 74.7 138.204 74.3467 138.404 73.88C138.618 73.4 138.724 72.8067 138.724 72.1C138.724 71.0333 138.498 70.24 138.044 69.72C137.591 69.1867 136.991 68.92 136.244 68.92C135.751 68.92 135.318 69.04 134.944 69.28C134.571 69.5067 134.278 69.86 134.064 70.34C133.864 70.8067 133.764 71.3933 133.764 72.1C133.764 73.1533 133.991 73.9533 134.444 74.5C134.898 75.0333 135.498 75.3 136.244 75.3ZM147.828 77.2C146.801 77.2 145.908 76.9933 145.148 76.58C144.388 76.1533 143.801 75.5533 143.388 74.78C142.974 74.0067 142.768 73.1 142.768 72.06C142.768 71.2733 142.881 70.5733 143.108 69.96C143.348 69.3333 143.688 68.8067 144.128 68.38C144.568 67.94 145.101 67.6067 145.728 67.38C146.354 67.14 147.054 67.02 147.828 67.02C148.268 67.02 148.741 67.08 149.248 67.2C149.768 67.32 150.254 67.52 150.708 67.8C150.921 67.9333 151.061 68.0933 151.128 68.28C151.194 68.4667 151.208 68.66 151.168 68.86C151.128 69.0467 151.041 69.2133 150.908 69.36C150.788 69.4933 150.634 69.58 150.448 69.62C150.261 69.6467 150.054 69.6 149.828 69.48C149.534 69.3067 149.234 69.18 148.928 69.1C148.621 69.0067 148.328 68.96 148.048 68.96C147.608 68.96 147.221 69.0333 146.888 69.18C146.554 69.3133 146.268 69.5133 146.028 69.78C145.801 70.0333 145.628 70.3533 145.508 70.74C145.388 71.1267 145.328 71.5733 145.328 72.08C145.328 73.0667 145.561 73.8467 146.028 74.42C146.508 74.98 147.181 75.26 148.048 75.26C148.328 75.26 148.614 75.22 148.908 75.14C149.214 75.06 149.521 74.9333 149.828 74.76C150.054 74.64 150.254 74.6 150.428 74.64C150.614 74.68 150.768 74.7733 150.888 74.92C151.008 75.0533 151.081 75.22 151.108 75.42C151.134 75.6067 151.108 75.7933 151.028 75.98C150.961 76.1667 150.828 76.32 150.628 76.44C150.188 76.7067 149.721 76.9 149.228 77.02C148.734 77.14 148.268 77.2 147.828 77.2ZM153.981 77.16C153.581 77.16 153.275 77.0533 153.061 76.84C152.848 76.6133 152.741 76.2933 152.741 75.88V64C152.741 63.5867 152.848 63.2733 153.061 63.06C153.275 62.8467 153.581 62.74 153.981 62.74C154.381 62.74 154.688 62.8467 154.901 63.06C155.128 63.2733 155.241 63.5867 155.241 64V71.38H155.281L158.581 67.9C158.848 67.6333 159.081 67.4267 159.281 67.28C159.481 67.1333 159.755 67.06 160.101 67.06C160.448 67.06 160.708 67.1533 160.881 67.34C161.068 67.5133 161.161 67.7267 161.161 67.98C161.161 68.2333 161.041 68.4867 160.801 68.74L157.321 72.42V71.38L161.141 75.5C161.381 75.7533 161.488 76.0133 161.461 76.28C161.448 76.5333 161.341 76.7467 161.141 76.92C160.941 77.08 160.688 77.16 160.381 77.16C160.008 77.16 159.708 77.0867 159.481 76.94C159.268 76.7933 159.028 76.5733 158.761 76.28L155.281 72.64H155.241V75.88C155.241 76.7333 154.821 77.16 153.981 77.16ZM167.789 77.2C166.762 77.2 165.869 76.9933 165.109 76.58C164.349 76.1533 163.762 75.5533 163.349 74.78C162.935 74.0067 162.729 73.1 162.729 72.06C162.729 71.2733 162.842 70.5733 163.069 69.96C163.309 69.3333 163.649 68.8067 164.089 68.38C164.529 67.94 165.062 67.6067 165.689 67.38C166.315 67.14 167.015 67.02 167.789 67.02C168.229 67.02 168.702 67.08 169.209 67.2C169.729 67.32 170.215 67.52 170.669 67.8C170.882 67.9333 171.022 68.0933 171.089 68.28C171.155 68.4667 171.169 68.66 171.129 68.86C171.089 69.0467 171.002 69.2133 170.869 69.36C170.749 69.4933 170.595 69.58 170.409 69.62C170.222 69.6467 170.015 69.6 169.789 69.48C169.495 69.3067 169.195 69.18 168.889 69.1C168.582 69.0067 168.289 68.96 168.009 68.96C167.569 68.96 167.182 69.0333 166.849 69.18C166.515 69.3133 166.229 69.5133 165.989 69.78C165.762 70.0333 165.589 70.3533 165.469 70.74C165.349 71.1267 165.289 71.5733 165.289 72.08C165.289 73.0667 165.522 73.8467 165.989 74.42C166.469 74.98 167.142 75.26 168.009 75.26C168.289 75.26 168.575 75.22 168.869 75.14C169.175 75.06 169.482 74.9333 169.789 74.76C170.015 74.64 170.215 74.6 170.389 74.64C170.575 74.68 170.729 74.7733 170.849 74.92C170.969 75.0533 171.042 75.22 171.069 75.42C171.095 75.6067 171.069 75.7933 170.989 75.98C170.922 76.1667 170.789 76.32 170.589 76.44C170.149 76.7067 169.682 76.9 169.189 77.02C168.695 77.14 168.229 77.2 167.789 77.2ZM173.942 77.16C173.542 77.16 173.236 77.0533 173.022 76.84C172.809 76.6133 172.702 76.2933 172.702 75.88V64C172.702 63.5867 172.809 63.2733 173.022 63.06C173.236 62.8467 173.542 62.74 173.942 62.74C174.342 62.74 174.649 62.8467 174.862 63.06C175.089 63.2733 175.202 63.5867 175.202 64V69.18H174.922C175.216 68.4733 175.669 67.94 176.282 67.58C176.909 67.2067 177.616 67.02 178.402 67.02C179.189 67.02 179.836 67.1667 180.342 67.46C180.849 67.7533 181.229 68.2 181.482 68.8C181.736 69.3867 181.862 70.1333 181.862 71.04V75.88C181.862 76.2933 181.756 76.6133 181.542 76.84C181.329 77.0533 181.022 77.16 180.622 77.16C180.222 77.16 179.909 77.0533 179.682 76.84C179.469 76.6133 179.362 76.2933 179.362 75.88V71.16C179.362 70.4 179.216 69.8467 178.922 69.5C178.642 69.1533 178.202 68.98 177.602 68.98C176.869 68.98 176.282 69.2133 175.842 69.68C175.416 70.1333 175.202 70.74 175.202 71.5V75.88C175.202 76.7333 174.782 77.16 173.942 77.16ZM187.622 77.2C186.915 77.2 186.282 77.0667 185.722 76.8C185.175 76.52 184.742 76.1467 184.422 75.68C184.115 75.2133 183.962 74.6867 183.962 74.1C183.962 73.38 184.148 72.8133 184.522 72.4C184.895 71.9733 185.502 71.6667 186.342 71.48C187.182 71.2933 188.308 71.2 189.722 71.2H190.722V72.64H189.742C188.915 72.64 188.255 72.68 187.762 72.76C187.268 72.84 186.915 72.98 186.702 73.18C186.502 73.3667 186.402 73.6333 186.402 73.98C186.402 74.42 186.555 74.78 186.862 75.06C187.168 75.34 187.595 75.48 188.142 75.48C188.582 75.48 188.968 75.38 189.302 75.18C189.648 74.9667 189.922 74.68 190.122 74.32C190.322 73.96 190.422 73.5467 190.422 73.08V70.78C190.422 70.1133 190.275 69.6333 189.982 69.34C189.688 69.0467 189.195 68.9 188.502 68.9C188.115 68.9 187.695 68.9467 187.242 69.04C186.802 69.1333 186.335 69.2933 185.842 69.52C185.588 69.64 185.362 69.6733 185.162 69.62C184.975 69.5667 184.828 69.46 184.722 69.3C184.615 69.1267 184.562 68.94 184.562 68.74C184.562 68.54 184.615 68.3467 184.722 68.16C184.828 67.96 185.008 67.8133 185.262 67.72C185.875 67.4667 186.462 67.2867 187.022 67.18C187.595 67.0733 188.115 67.02 188.582 67.02C189.542 67.02 190.328 67.1667 190.942 67.46C191.568 67.7533 192.035 68.2 192.342 68.8C192.648 69.3867 192.802 70.1467 192.802 71.08V75.88C192.802 76.2933 192.702 76.6133 192.502 76.84C192.302 77.0533 192.015 77.16 191.642 77.16C191.268 77.16 190.975 77.0533 190.762 76.84C190.562 76.6133 190.462 76.2933 190.462 75.88V74.92H190.622C190.528 75.3867 190.342 75.7933 190.062 76.14C189.795 76.4733 189.455 76.7333 189.042 76.92C188.628 77.1067 188.155 77.2 187.622 77.2ZM196.579 77.14C196.179 77.14 195.872 77.02 195.659 76.78C195.446 76.54 195.339 76.2067 195.339 75.78V68.44C195.339 68 195.446 67.6667 195.659 67.44C195.872 67.2 196.179 67.08 196.579 67.08C196.979 67.08 197.286 67.2 197.499 67.44C197.726 67.6667 197.839 68 197.839 68.44V75.78C197.839 76.2067 197.732 76.54 197.519 76.78C197.306 77.02 196.992 77.14 196.579 77.14ZM196.579 65.22C196.112 65.22 195.746 65.1067 195.479 64.88C195.226 64.64 195.099 64.3133 195.099 63.9C195.099 63.4733 195.226 63.1467 195.479 62.92C195.746 62.6933 196.112 62.58 196.579 62.58C197.059 62.58 197.426 62.6933 197.679 62.92C197.932 63.1467 198.059 63.4733 198.059 63.9C198.059 64.3133 197.932 64.64 197.679 64.88C197.426 65.1067 197.059 65.22 196.579 65.22ZM201.677 77.16C201.277 77.16 200.97 77.0533 200.757 76.84C200.543 76.6133 200.437 76.2933 200.437 75.88V68.32C200.437 67.9067 200.543 67.5933 200.757 67.38C200.97 67.1667 201.27 67.06 201.657 67.06C202.043 67.06 202.343 67.1667 202.557 67.38C202.77 67.5933 202.877 67.9067 202.877 68.32V69.68L202.657 69.18C202.95 68.4733 203.403 67.94 204.017 67.58C204.643 67.2067 205.35 67.02 206.137 67.02C206.923 67.02 207.57 67.1667 208.077 67.46C208.583 67.7533 208.963 68.2 209.217 68.8C209.47 69.3867 209.597 70.1333 209.597 71.04V75.88C209.597 76.2933 209.49 76.6133 209.277 76.84C209.063 77.0533 208.757 77.16 208.357 77.16C207.957 77.16 207.643 77.0533 207.417 76.84C207.203 76.6133 207.097 76.2933 207.097 75.88V71.16C207.097 70.4 206.95 69.8467 206.657 69.5C206.377 69.1533 205.937 68.98 205.337 68.98C204.603 68.98 204.017 69.2133 203.577 69.68C203.15 70.1333 202.937 70.74 202.937 71.5V75.88C202.937 76.7333 202.517 77.16 201.677 77.16ZM213.336 72.94C213.083 72.94 212.883 72.86 212.736 72.7C212.603 72.54 212.523 72.3133 212.496 72.02L211.896 64.38C211.856 63.8867 211.963 63.4933 212.216 63.2C212.469 62.8933 212.843 62.74 213.336 62.74C213.816 62.74 214.176 62.8933 214.416 63.2C214.669 63.4933 214.776 63.8867 214.736 64.38L214.136 72.02C214.123 72.3133 214.043 72.54 213.896 72.7C213.763 72.86 213.576 72.94 213.336 72.94ZM213.336 77.1C212.883 77.1 212.516 76.96 212.236 76.68C211.969 76.4 211.836 76.04 211.836 75.6C211.836 75.1733 211.969 74.8267 212.236 74.56C212.516 74.28 212.883 74.14 213.336 74.14C213.803 74.14 214.163 74.28 214.416 74.56C214.683 74.8267 214.816 75.1733 214.816 75.6C214.816 76.04 214.683 76.4 214.416 76.68C214.163 76.96 213.803 77.1 213.336 77.1Z" fill="#212121"/>
</svg>
