<svg width="200" height="64" viewBox="0 0 200 64" fill="none" xmlns="http://www.w3.org/2000/svg">
<mask id="path-1-inside-1_153_5760" fill="white">
<path fill-rule="evenodd" clip-rule="evenodd" d="M1.21793 9.87706C0 12.8174 0 16.5449 0 24C0 31.4551 0 35.1826 1.21793 38.1229C2.84183 42.0434 5.95662 45.1582 9.87706 46.7821C12.8174 48 16.5449 48 24 48H87.6299C88.2875 49.7133 89.5499 51.9 91.3397 55C94.3771 60.2608 95.8958 62.8912 97.9479 63.6382C99.2734 64.1206 100.727 64.1206 102.052 63.6382C104.104 62.8912 105.623 60.2608 108.66 55C110.45 51.9 111.713 49.7133 112.37 48H176C183.455 48 187.183 48 190.123 46.7821C194.043 45.1582 197.158 42.0434 198.782 38.1229C200 35.1826 200 31.4551 200 24C200 16.5449 200 12.8174 198.782 9.87706C197.158 5.95662 194.043 2.84183 190.123 1.21793C187.183 0 183.455 0 176 0H24C16.5449 0 12.8174 0 9.87706 1.21793C5.95662 2.84183 2.84183 5.95662 1.21793 9.87706Z"/>
</mask>
<path fill-rule="evenodd" clip-rule="evenodd" d="M1.21793 9.87706C0 12.8174 0 16.5449 0 24C0 31.4551 0 35.1826 1.21793 38.1229C2.84183 42.0434 5.95662 45.1582 9.87706 46.7821C12.8174 48 16.5449 48 24 48H87.6299C88.2875 49.7133 89.5499 51.9 91.3397 55C94.3771 60.2608 95.8958 62.8912 97.9479 63.6382C99.2734 64.1206 100.727 64.1206 102.052 63.6382C104.104 62.8912 105.623 60.2608 108.66 55C110.45 51.9 111.713 49.7133 112.37 48H176C183.455 48 187.183 48 190.123 46.7821C194.043 45.1582 197.158 42.0434 198.782 38.1229C200 35.1826 200 31.4551 200 24C200 16.5449 200 12.8174 198.782 9.87706C197.158 5.95662 194.043 2.84183 190.123 1.21793C187.183 0 183.455 0 176 0H24C16.5449 0 12.8174 0 9.87706 1.21793C5.95662 2.84183 2.84183 5.95662 1.21793 9.87706Z" fill="#FAFAFA"/>
<path d="M1.21793 9.87706L-0.629832 9.1117L-0.629832 9.1117L1.21793 9.87706ZM1.21793 38.1229L-0.629832 38.8883L-0.629832 38.8883L1.21793 38.1229ZM9.87706 46.7821L9.1117 48.6298L9.1117 48.6298L9.87706 46.7821ZM87.6299 48L89.4972 47.2834L89.0046 46H87.6299V48ZM91.3397 55L93.0718 54L93.0718 54L91.3397 55ZM97.9479 63.6382L98.6319 61.7588L98.6319 61.7588L97.9479 63.6382ZM102.052 63.6382L101.368 61.7588L101.368 61.7588L102.052 63.6382ZM108.66 55L110.392 56L110.392 56L108.66 55ZM112.37 48V46H110.995L110.503 47.2834L112.37 48ZM190.123 46.7821L190.888 48.6298L190.888 48.6298L190.123 46.7821ZM198.782 38.1229L200.63 38.8883L200.63 38.8883L198.782 38.1229ZM198.782 9.87706L200.63 9.1117L200.63 9.1117L198.782 9.87706ZM190.123 1.21793L190.888 -0.629831L190.888 -0.629832L190.123 1.21793ZM9.87706 1.21793L9.1117 -0.629832L9.1117 -0.629832L9.87706 1.21793ZM2 24C2 20.2451 2.00108 17.5291 2.1476 15.3817C2.29289 13.2522 2.57449 11.8283 3.06569 10.6424L-0.629832 9.1117C-1.35656 10.8662 -1.68393 12.7762 -1.84312 15.1094C-2.00108 17.4245 -2 20.2998 -2 24H2ZM3.06569 37.3576C2.57449 36.1717 2.29289 34.7478 2.1476 32.6183C2.00108 30.4709 2 27.7549 2 24H-2C-2 27.7002 -2.00108 30.5755 -1.84312 32.8906C-1.68393 35.2238 -1.35656 37.1338 -0.629832 38.8883L3.06569 37.3576ZM10.6424 44.9343C7.21204 43.5134 4.4866 40.788 3.06569 37.3576L-0.629832 38.8883C1.19706 43.2988 4.70119 46.8029 9.1117 48.6298L10.6424 44.9343ZM24 46C20.2451 46 17.5291 45.9989 15.3817 45.8524C13.2522 45.7071 11.8283 45.4255 10.6424 44.9343L9.1117 48.6298C10.8662 49.3566 12.7762 49.6839 15.1094 49.8431C17.4245 50.0011 20.2998 50 24 50V46ZM87.6299 46H24V50H87.6299V46ZM93.0718 54C91.244 50.8341 90.0841 48.8127 89.4972 47.2834L85.7627 48.7166C86.4909 50.6139 87.8559 52.9659 89.6077 56L93.0718 54ZM98.6319 61.7588C98.182 61.595 97.5829 61.1557 96.6354 59.8419C95.6931 58.5353 94.6125 56.6685 93.0718 54L89.6077 56C91.1044 58.5923 92.3017 60.6712 93.3911 62.1817C94.4753 63.6851 95.6616 64.9344 97.2638 65.5175L98.6319 61.7588ZM101.368 61.7588C100.484 62.0804 99.5156 62.0804 98.6319 61.7588L97.2638 65.5175C99.0312 66.1608 100.969 66.1608 102.736 65.5175L101.368 61.7588ZM106.928 54C105.388 56.6685 104.307 58.5353 103.365 59.8419C102.417 61.1557 101.818 61.595 101.368 61.7588L102.736 65.5175C104.338 64.9344 105.525 63.6851 106.609 62.1817C107.698 60.6711 108.896 58.5923 110.392 56L106.928 54ZM110.503 47.2834C109.916 48.8127 108.756 50.8341 106.928 54L110.392 56C112.144 52.9659 113.509 50.6139 114.237 48.7166L110.503 47.2834ZM176 46H112.37V50H176V46ZM189.358 44.9343C188.172 45.4255 186.748 45.7071 184.618 45.8524C182.471 45.9989 179.755 46 176 46V50C179.7 50 182.575 50.0011 184.891 49.8431C187.224 49.6839 189.134 49.3566 190.888 48.6298L189.358 44.9343ZM196.934 37.3576C195.513 40.788 192.788 43.5134 189.358 44.9343L190.888 48.6298C195.299 46.8029 198.803 43.2988 200.63 38.8883L196.934 37.3576ZM198 24C198 27.7549 197.999 30.4709 197.852 32.6183C197.707 34.7478 197.426 36.1717 196.934 37.3576L200.63 38.8883C201.357 37.1338 201.684 35.2238 201.843 32.8906C202.001 30.5755 202 27.7002 202 24H198ZM196.934 10.6424C197.426 11.8283 197.707 13.2522 197.852 15.3817C197.999 17.5291 198 20.2451 198 24H202C202 20.2998 202.001 17.4245 201.843 15.1094C201.684 12.7762 201.357 10.8662 200.63 9.1117L196.934 10.6424ZM189.358 3.06569C192.788 4.4866 195.513 7.21204 196.934 10.6424L200.63 9.1117C198.803 4.70119 195.299 1.19706 190.888 -0.629831L189.358 3.06569ZM176 2C179.755 2 182.471 2.00108 184.618 2.1476C186.748 2.29289 188.172 2.57449 189.358 3.06569L190.888 -0.629832C189.134 -1.35656 187.224 -1.68393 184.891 -1.84312C182.575 -2.00108 179.7 -2 176 -2V2ZM24 2H176V-2H24V2ZM10.6424 3.06569C11.8283 2.57449 13.2522 2.29289 15.3817 2.1476C17.5291 2.00108 20.2451 2 24 2V-2C20.2998 -2 17.4245 -2.00108 15.1094 -1.84312C12.7762 -1.68393 10.8662 -1.35656 9.1117 -0.629832L10.6424 3.06569ZM3.06569 10.6424C4.4866 7.21204 7.21204 4.4866 10.6424 3.06569L9.1117 -0.629832C4.70119 1.19706 1.19706 4.70119 -0.629832 9.1117L3.06569 10.6424Z" fill="#EEEEEE" mask="url(#path-1-inside-1_153_5760)"/>
<path d="M60.82 31.16C60.4067 31.16 60.0867 31.0467 59.86 30.82C59.6467 30.58 59.54 30.2533 59.54 29.84V18.06C59.54 17.6333 59.6467 17.3067 59.86 17.08C60.0867 16.8533 60.4067 16.74 60.82 16.74C61.2333 16.74 61.5467 16.8533 61.76 17.08C61.9867 17.3067 62.1 17.6333 62.1 18.06V22.78H69.36V18.06C69.36 17.6333 69.4667 17.3067 69.68 17.08C69.9067 16.8533 70.2267 16.74 70.64 16.74C71.0533 16.74 71.3667 16.8533 71.58 17.08C71.8067 17.3067 71.92 17.6333 71.92 18.06V29.84C71.92 30.2533 71.8067 30.58 71.58 30.82C71.3667 31.0467 71.0533 31.16 70.64 31.16C70.2267 31.16 69.9067 31.0467 69.68 30.82C69.4667 30.58 69.36 30.2533 69.36 29.84V24.92H62.1V29.84C62.1 30.2533 61.9933 30.58 61.78 30.82C61.5667 31.0467 61.2467 31.16 60.82 31.16ZM76.0088 31.14C75.6088 31.14 75.3021 31.02 75.0888 30.78C74.8754 30.54 74.7688 30.2067 74.7688 29.78V22.44C74.7688 22 74.8754 21.6667 75.0888 21.44C75.3021 21.2 75.6088 21.08 76.0088 21.08C76.4088 21.08 76.7154 21.2 76.9288 21.44C77.1554 21.6667 77.2688 22 77.2688 22.44V29.78C77.2688 30.2067 77.1621 30.54 76.9488 30.78C76.7354 31.02 76.4221 31.14 76.0088 31.14ZM76.0088 19.22C75.5421 19.22 75.1754 19.1067 74.9088 18.88C74.6554 18.64 74.5288 18.3133 74.5288 17.9C74.5288 17.4733 74.6554 17.1467 74.9088 16.92C75.1754 16.6933 75.5421 16.58 76.0088 16.58C76.4888 16.58 76.8554 16.6933 77.1088 16.92C77.3621 17.1467 77.4888 17.4733 77.4888 17.9C77.4888 18.3133 77.3621 18.64 77.1088 18.88C76.8554 19.1067 76.4888 19.22 76.0088 19.22ZM89.7761 31.2C88.9094 31.2 88.1828 31.0533 87.5961 30.76C87.0228 30.4667 86.5961 30.04 86.3161 29.48C86.0361 28.9067 85.8961 28.2 85.8961 27.36V23.1H84.8561C84.5361 23.1 84.2894 23.02 84.1161 22.86C83.9428 22.6867 83.8561 22.4533 83.8561 22.16C83.8561 21.8533 83.9428 21.62 84.1161 21.46C84.2894 21.3 84.5361 21.22 84.8561 21.22H85.8961V19.4C85.8961 18.9867 86.0028 18.6733 86.2161 18.46C86.4428 18.2467 86.7561 18.14 87.1561 18.14C87.5561 18.14 87.8628 18.2467 88.0761 18.46C88.2894 18.6733 88.3961 18.9867 88.3961 19.4V21.22H90.5161C90.8361 21.22 91.0828 21.3 91.2561 21.46C91.4294 21.62 91.5161 21.8533 91.5161 22.16C91.5161 22.4533 91.4294 22.6867 91.2561 22.86C91.0828 23.02 90.8361 23.1 90.5161 23.1H88.3961V27.22C88.3961 27.86 88.5361 28.34 88.8161 28.66C89.0961 28.98 89.5494 29.14 90.1761 29.14C90.4028 29.14 90.6028 29.12 90.7761 29.08C90.9494 29.04 91.1028 29.0133 91.2361 29C91.3961 28.9867 91.5294 29.04 91.6361 29.16C91.7428 29.2667 91.7961 29.4933 91.7961 29.84C91.7961 30.1067 91.7494 30.3467 91.6561 30.56C91.5761 30.76 91.4228 30.9 91.1961 30.98C91.0228 31.0333 90.7961 31.08 90.5161 31.12C90.2361 31.1733 89.9894 31.2 89.7761 31.2ZM94.4658 31.16C94.0658 31.16 93.7591 31.0533 93.5458 30.84C93.3324 30.6133 93.2258 30.2933 93.2258 29.88V18C93.2258 17.5867 93.3324 17.2733 93.5458 17.06C93.7591 16.8467 94.0658 16.74 94.4658 16.74C94.8658 16.74 95.1724 16.8467 95.3858 17.06C95.6124 17.2733 95.7258 17.5867 95.7258 18V23.18H95.4458C95.7391 22.4733 96.1924 21.94 96.8058 21.58C97.4324 21.2067 98.1391 21.02 98.9258 21.02C99.7124 21.02 100.359 21.1667 100.866 21.46C101.372 21.7533 101.752 22.2 102.006 22.8C102.259 23.3867 102.386 24.1333 102.386 25.04V29.88C102.386 30.2933 102.279 30.6133 102.066 30.84C101.852 31.0533 101.546 31.16 101.146 31.16C100.746 31.16 100.432 31.0533 100.206 30.84C99.9924 30.6133 99.8858 30.2933 99.8858 29.88V25.16C99.8858 24.4 99.7391 23.8467 99.4458 23.5C99.1658 23.1533 98.7258 22.98 98.1258 22.98C97.3924 22.98 96.8058 23.2133 96.3658 23.68C95.9391 24.1333 95.7258 24.74 95.7258 25.5V29.88C95.7258 30.7333 95.3058 31.16 94.4658 31.16ZM109.745 31.2C108.638 31.2 107.685 30.9933 106.885 30.58C106.085 30.1667 105.465 29.58 105.025 28.82C104.598 28.06 104.385 27.16 104.385 26.12C104.385 25.1067 104.592 24.22 105.005 23.46C105.432 22.7 106.012 22.1067 106.745 21.68C107.492 21.24 108.338 21.02 109.285 21.02C109.978 21.02 110.598 21.1333 111.145 21.36C111.705 21.5867 112.178 21.9133 112.565 22.34C112.965 22.7667 113.265 23.2867 113.465 23.9C113.678 24.5 113.785 25.18 113.785 25.94C113.785 26.18 113.698 26.3667 113.525 26.5C113.365 26.62 113.132 26.68 112.825 26.68H106.405V25.24H112.025L111.705 25.54C111.705 24.9267 111.612 24.4133 111.425 24C111.252 23.5867 110.992 23.2733 110.645 23.06C110.312 22.8333 109.892 22.72 109.385 22.72C108.825 22.72 108.345 22.8533 107.945 23.12C107.558 23.3733 107.258 23.74 107.045 24.22C106.845 24.6867 106.745 25.2467 106.745 25.9V26.04C106.745 27.1333 106.998 27.9533 107.505 28.5C108.025 29.0333 108.785 29.3 109.785 29.3C110.132 29.3 110.518 29.26 110.945 29.18C111.385 29.0867 111.798 28.9333 112.185 28.72C112.465 28.56 112.712 28.4933 112.925 28.52C113.138 28.5333 113.305 28.6067 113.425 28.74C113.558 28.8733 113.638 29.04 113.665 29.24C113.692 29.4267 113.652 29.62 113.545 29.82C113.452 30.02 113.285 30.1933 113.045 30.34C112.578 30.6333 112.038 30.8533 111.425 31C110.825 31.1333 110.265 31.2 109.745 31.2ZM117.045 31.16C116.632 31.16 116.312 31.0533 116.085 30.84C115.872 30.6133 115.765 30.2933 115.765 29.88V22.32C115.765 21.9067 115.872 21.5933 116.085 21.38C116.298 21.1667 116.598 21.06 116.985 21.06C117.372 21.06 117.672 21.1667 117.885 21.38C118.098 21.5933 118.205 21.9067 118.205 22.32V23.58H118.005C118.192 22.78 118.558 22.1733 119.105 21.76C119.652 21.3467 120.378 21.1 121.285 21.02C121.565 20.9933 121.785 21.0667 121.945 21.24C122.118 21.4 122.218 21.6533 122.245 22C122.272 22.3333 122.192 22.6067 122.005 22.82C121.832 23.02 121.565 23.14 121.205 23.18L120.765 23.22C119.952 23.3 119.338 23.5533 118.925 23.98C118.512 24.3933 118.305 24.98 118.305 25.74V29.88C118.305 30.2933 118.198 30.6133 117.985 30.84C117.772 31.0533 117.458 31.16 117.045 31.16ZM128.261 31.2C127.154 31.2 126.201 30.9933 125.401 30.58C124.601 30.1667 123.981 29.58 123.541 28.82C123.114 28.06 122.901 27.16 122.901 26.12C122.901 25.1067 123.107 24.22 123.521 23.46C123.947 22.7 124.527 22.1067 125.261 21.68C126.007 21.24 126.854 21.02 127.801 21.02C128.494 21.02 129.114 21.1333 129.661 21.36C130.221 21.5867 130.694 21.9133 131.081 22.34C131.481 22.7667 131.781 23.2867 131.981 23.9C132.194 24.5 132.301 25.18 132.301 25.94C132.301 26.18 132.214 26.3667 132.041 26.5C131.881 26.62 131.647 26.68 131.341 26.68H124.921V25.24H130.541L130.221 25.54C130.221 24.9267 130.127 24.4133 129.941 24C129.767 23.5867 129.507 23.2733 129.161 23.06C128.827 22.8333 128.407 22.72 127.901 22.72C127.341 22.72 126.861 22.8533 126.461 23.12C126.074 23.3733 125.774 23.74 125.561 24.22C125.361 24.6867 125.261 25.2467 125.261 25.9V26.04C125.261 27.1333 125.514 27.9533 126.021 28.5C126.541 29.0333 127.301 29.3 128.301 29.3C128.647 29.3 129.034 29.26 129.461 29.18C129.901 29.0867 130.314 28.9333 130.701 28.72C130.981 28.56 131.227 28.4933 131.441 28.52C131.654 28.5333 131.821 28.6067 131.941 28.74C132.074 28.8733 132.154 29.04 132.181 29.24C132.207 29.4267 132.167 29.62 132.061 29.82C131.967 30.02 131.801 30.1933 131.561 30.34C131.094 30.6333 130.554 30.8533 129.941 31C129.341 31.1333 128.781 31.2 128.261 31.2ZM135.48 26.94C135.227 26.94 135.027 26.86 134.88 26.7C134.747 26.54 134.667 26.3133 134.64 26.02L134.04 18.38C134 17.8867 134.107 17.4933 134.36 17.2C134.614 16.8933 134.987 16.74 135.48 16.74C135.96 16.74 136.32 16.8933 136.56 17.2C136.814 17.4933 136.92 17.8867 136.88 18.38L136.28 26.02C136.267 26.3133 136.187 26.54 136.04 26.7C135.907 26.86 135.72 26.94 135.48 26.94ZM135.48 31.1C135.027 31.1 134.66 30.96 134.38 30.68C134.114 30.4 133.98 30.04 133.98 29.6C133.98 29.1733 134.114 28.8267 134.38 28.56C134.66 28.28 135.027 28.14 135.48 28.14C135.947 28.14 136.307 28.28 136.56 28.56C136.827 28.8267 136.96 29.1733 136.96 29.6C136.96 30.04 136.827 30.4 136.56 30.68C136.307 30.96 135.947 31.1 135.48 31.1Z" fill="#212121"/>
</svg>
