<svg width="25" height="24" viewBox="0 0 25 24" fill="none" xmlns="http://www.w3.org/2000/svg">
<path fill-rule="evenodd" clip-rule="evenodd" d="M11.5638 12.0001C11.5638 13.0231 10.7348 13.8521 9.7118 13.8521C8.6888 13.8521 7.8598 13.0231 7.8598 12.0001C7.8598 10.9771 8.6888 10.1481 9.7118 10.1481H9.7148C10.7368 10.1491 11.5638 10.9781 11.5638 12.0001Z" stroke="#9E9E9E" stroke-width="1.5" stroke-linecap="round" stroke-linejoin="round"/>
<path d="M11.5668 12.0001H17.8848V13.8521" stroke="#9E9E9E" stroke-width="1.5" stroke-linecap="round" stroke-linejoin="round"/>
<path d="M15.057 13.8521V12.0001" stroke="#9E9E9E" stroke-width="1.5" stroke-linecap="round" stroke-linejoin="round"/>
<path fill-rule="evenodd" clip-rule="evenodd" d="M3.62491 12.0001C3.62491 5.06311 5.93791 2.75011 12.8749 2.75011C19.8119 2.75011 22.1249 5.06311 22.1249 12.0001C22.1249 18.9371 19.8119 21.2501 12.8749 21.2501C5.93791 21.2501 3.62491 18.9371 3.62491 12.0001Z" stroke="#9E9E9E" stroke-width="1.5" stroke-linecap="round" stroke-linejoin="round"/>
</svg>
