<svg xmlns="http://www.w3.org/2000/svg" width="32" height="38" viewBox="0 0 32 38" fill="none">
<path fill-rule="evenodd" clip-rule="evenodd" d="M10.3639 27.0483H20.2385C20.9827 27.0483 21.5999 26.425 21.5999 25.6733C21.5999 24.9217 20.9827 24.3167 20.2385 24.3167H10.3639C9.61966 24.3167 9.0025 24.9217 9.0025 25.6733C9.0025 26.425 9.61966 27.0483 10.3639 27.0483ZM16.4992 15.15H10.3639C9.61966 15.15 9.0025 15.7733 9.0025 16.525C9.0025 17.2767 9.61966 17.8817 10.3639 17.8817H16.4992C17.2434 17.8817 17.8606 17.2767 17.8606 16.525C17.8606 15.7733 17.2434 15.15 16.4992 15.15ZM29.4531 13.5469C29.8798 13.542 30.3444 13.5367 30.7665 13.5367C31.2203 13.5367 31.5834 13.9033 31.5834 14.3617V29.1017C31.5834 33.6483 27.9348 37.3333 23.4332 37.3333H8.98434C4.26487 37.3333 0.416687 33.465 0.416687 28.6983V8.93499C0.416687 4.38832 4.08335 0.666656 8.60316 0.666656H18.2962C18.7682 0.666656 19.1312 1.05166 19.1312 1.50999V7.41332C19.1312 10.7683 21.8721 13.5183 25.1939 13.5367C25.9698 13.5367 26.6538 13.5425 27.2525 13.5475C27.7182 13.5515 28.1322 13.555 28.4975 13.555C28.7559 13.555 29.0909 13.5511 29.4531 13.5469ZM29.9537 10.871C28.4616 10.8765 26.7027 10.871 25.4375 10.8582C23.4299 10.8582 21.7763 9.18799 21.7763 7.16032V2.32766C21.7763 1.53749 22.7256 1.14516 23.2684 1.71532C24.2508 2.74703 25.6009 4.16524 26.9447 5.57694C28.285 6.98487 29.6192 8.38634 30.5763 9.39149C31.1063 9.94699 30.7179 10.8692 29.9537 10.871Z" fill="url(#paint0_linear_154_1449)"/>
<defs>
<linearGradient id="paint0_linear_154_1449" x1="31.5834" y1="37.3333" x2="-6.31778" y2="27.9926" gradientUnits="userSpaceOnUse">
<stop stop-color="#6949FF"/>
<stop offset="1" stop-color="#876DFF"/>
</linearGradient>
</defs>
</svg>