<svg width="74" height="40" viewBox="0 0 74 40" fill="none" xmlns="http://www.w3.org/2000/svg">
<path d="M33.7822 20.7714V17.7047C33.7822 16.9246 34.4181 16.2908 35.206 16.2856H38.0921C38.8837 16.2856 39.5255 16.9209 39.5255 17.7047V17.7047V20.7809C39.5253 21.4432 40.0593 21.9845 40.728 22H42.6521C44.5701 22 46.125 20.4607 46.125 18.5618V18.5618V9.83784C46.1148 9.09083 45.7605 8.38935 45.163 7.93303L38.5827 2.6853C37.4299 1.77157 35.7912 1.77157 34.6384 2.6853L28.087 7.94256C27.4873 8.39702 27.1324 9.09967 27.125 9.84736V18.5618C27.125 20.4607 28.6799 22 30.5979 22H32.522C33.2074 22 33.763 21.4499 33.763 20.7714V20.7714" stroke="#9E9E9E" stroke-width="1.5" stroke-linecap="round" stroke-linejoin="round"/>
<path d="M24.0413 36.07C23.8946 36.07 23.7813 36.03 23.7013 35.95C23.6213 35.8633 23.5813 35.7433 23.5813 35.59V29.36C23.5813 29.2 23.6213 29.08 23.7013 29C23.7813 28.92 23.8946 28.88 24.0413 28.88C24.1946 28.88 24.3113 28.92 24.3913 29C24.4713 29.08 24.5113 29.2 24.5113 29.36V32.03H28.5913V29.36C28.5913 29.2 28.6313 29.08 28.7113 29C28.7913 28.92 28.9079 28.88 29.0613 28.88C29.2079 28.88 29.3213 28.92 29.4013 29C29.4813 29.08 29.5213 29.2 29.5213 29.36V35.59C29.5213 35.7433 29.4813 35.8633 29.4013 35.95C29.3213 36.03 29.2079 36.07 29.0613 36.07C28.9079 36.07 28.7913 36.03 28.7113 35.95C28.6313 35.8633 28.5913 35.7433 28.5913 35.59V32.82H24.5113V35.59C24.5113 35.7433 24.4713 35.8633 24.3913 35.95C24.3179 36.03 24.2013 36.07 24.0413 36.07ZM33.368 36.09C32.888 36.09 32.4713 35.9867 32.118 35.78C31.7646 35.5733 31.4913 35.28 31.298 34.9C31.1046 34.52 31.008 34.0733 31.008 33.56C31.008 33.1733 31.0613 32.8267 31.168 32.52C31.2813 32.2067 31.4413 31.94 31.648 31.72C31.8546 31.5 32.1013 31.3333 32.388 31.22C32.6813 31.1 33.008 31.04 33.368 31.04C33.848 31.04 34.2646 31.1433 34.618 31.35C34.9713 31.5567 35.2446 31.85 35.438 32.23C35.6313 32.6033 35.728 33.0467 35.728 33.56C35.728 33.9467 35.6713 34.2967 35.558 34.61C35.4513 34.9233 35.2946 35.19 35.088 35.41C34.8813 35.63 34.6313 35.8 34.338 35.92C34.0513 36.0333 33.728 36.09 33.368 36.09ZM33.368 35.37C33.6613 35.37 33.9146 35.3 34.128 35.16C34.348 35.02 34.5146 34.8167 34.628 34.55C34.748 34.2833 34.808 33.9533 34.808 33.56C34.808 32.9733 34.678 32.5267 34.418 32.22C34.158 31.9133 33.808 31.76 33.368 31.76C33.0813 31.76 32.828 31.83 32.608 31.97C32.3946 32.1033 32.228 32.3033 32.108 32.57C31.988 32.8367 31.928 33.1667 31.928 33.56C31.928 34.1467 32.058 34.5967 32.318 34.91C32.5846 35.2167 32.9346 35.37 33.368 35.37ZM37.5637 36.07C37.4237 36.07 37.3137 36.03 37.2337 35.95C37.1537 35.87 37.1137 35.7533 37.1137 35.6V31.52C37.1137 31.3667 37.1537 31.2533 37.2337 31.18C37.3137 31.1 37.4237 31.06 37.5637 31.06C37.7037 31.06 37.8103 31.1 37.8837 31.18C37.9637 31.2533 38.0037 31.3667 38.0037 31.52V32.37L37.8937 32.19C38.0203 31.8233 38.2237 31.54 38.5037 31.34C38.7903 31.14 39.1303 31.04 39.5237 31.04C39.937 31.04 40.2703 31.14 40.5237 31.34C40.777 31.5333 40.947 31.83 41.0337 32.23H40.8937C41.0137 31.8633 41.227 31.5733 41.5337 31.36C41.847 31.1467 42.2103 31.04 42.6237 31.04C42.9903 31.04 43.2903 31.1133 43.5237 31.26C43.7637 31.4 43.9437 31.6133 44.0637 31.9C44.1837 32.18 44.2437 32.54 44.2437 32.98V35.6C44.2437 35.7533 44.2037 35.87 44.1237 35.95C44.0437 36.03 43.9337 36.07 43.7937 36.07C43.647 36.07 43.5337 36.03 43.4537 35.95C43.3737 35.87 43.3337 35.7533 43.3337 35.6V33.02C43.3337 32.5933 43.2603 32.28 43.1137 32.08C42.967 31.88 42.7203 31.78 42.3737 31.78C41.9937 31.78 41.6903 31.9133 41.4637 32.18C41.2437 32.44 41.1337 32.8 41.1337 33.26V35.6C41.1337 35.7533 41.0937 35.87 41.0137 35.95C40.9403 36.03 40.8303 36.07 40.6837 36.07C40.537 36.07 40.4237 36.03 40.3437 35.95C40.2637 35.87 40.2237 35.7533 40.2237 35.6V33.02C40.2237 32.5933 40.1503 32.28 40.0037 32.08C39.857 31.88 39.6103 31.78 39.2637 31.78C38.8837 31.78 38.5803 31.9133 38.3537 32.18C38.1337 32.44 38.0237 32.8 38.0237 33.26V35.6C38.0237 35.9133 37.8703 36.07 37.5637 36.07ZM48.157 36.09C47.6303 36.09 47.177 35.99 46.797 35.79C46.4236 35.5833 46.1336 35.2933 45.927 34.92C45.7203 34.54 45.617 34.0933 45.617 33.58C45.617 33.0733 45.717 32.63 45.917 32.25C46.1236 31.87 46.4036 31.5733 46.757 31.36C47.117 31.1467 47.527 31.04 47.987 31.04C48.3136 31.04 48.607 31.0967 48.867 31.21C49.1336 31.3167 49.3603 31.4733 49.547 31.68C49.7336 31.8867 49.8736 32.14 49.967 32.44C50.067 32.7333 50.117 33.0667 50.117 33.44C50.117 33.5467 50.0836 33.63 50.017 33.69C49.957 33.7433 49.867 33.77 49.747 33.77H46.327V33.19H49.517L49.347 33.33C49.347 32.9833 49.2936 32.69 49.187 32.45C49.087 32.2033 48.937 32.0167 48.737 31.89C48.5436 31.7633 48.3003 31.7 48.007 31.7C47.687 31.7 47.4136 31.7767 47.187 31.93C46.9603 32.0767 46.787 32.2867 46.667 32.56C46.547 32.8267 46.487 33.1367 46.487 33.49V33.55C46.487 34.15 46.6303 34.6033 46.917 34.91C47.2036 35.2167 47.617 35.37 48.157 35.37C48.3703 35.37 48.587 35.3433 48.807 35.29C49.0336 35.2367 49.2503 35.14 49.457 35C49.557 34.94 49.647 34.9133 49.727 34.92C49.8136 34.92 49.8836 34.9467 49.937 35C49.9903 35.0467 50.0236 35.1067 50.037 35.18C50.0503 35.2467 50.0403 35.32 50.007 35.4C49.9736 35.48 49.9103 35.55 49.817 35.61C49.597 35.7633 49.3336 35.8833 49.027 35.97C48.727 36.05 48.437 36.09 48.157 36.09Z" fill="#9E9E9E"/>
</svg>
