<svg width="74" height="40" viewBox="0 0 74 40" fill="none" xmlns="http://www.w3.org/2000/svg">
<path fill-rule="evenodd" clip-rule="evenodd" d="M36.8749 4.5C36.7839 4.5 36.5599 4.525 36.4409 4.763L34.6149 8.414C34.3259 8.991 33.7689 9.392 33.1249 9.484L29.0369 10.073C28.7669 10.112 28.6749 10.312 28.6469 10.396C28.6219 10.477 28.5819 10.683 28.7679 10.861L31.7239 13.701C32.1949 14.154 32.4089 14.807 32.2969 15.446L31.6009 19.456C31.5579 19.707 31.7149 19.853 31.7849 19.903C31.8589 19.959 32.0569 20.07 32.3019 19.942L35.9569 18.047C36.5329 17.75 37.2189 17.75 37.7929 18.047L41.4469 19.941C41.6929 20.068 41.8909 19.957 41.9659 19.903C42.0359 19.853 42.1929 19.707 42.1499 19.456L41.4519 15.446C41.3399 14.807 41.5539 14.154 42.0249 13.701L44.9809 10.861C45.1679 10.683 45.1279 10.476 45.1019 10.396C45.0749 10.312 44.9829 10.112 44.7129 10.073L40.6249 9.484C39.9819 9.392 39.4249 8.991 39.1359 8.413L37.3079 4.763C37.1899 4.525 36.9659 4.5 36.8749 4.5ZM32.0719 21.5C31.6589 21.5 31.2489 21.37 30.8979 21.114C30.2919 20.67 29.9949 19.937 30.1239 19.199L30.8199 15.189C30.8459 15.04 30.7949 14.889 30.6849 14.783L27.7289 11.943C27.1849 11.422 26.9899 10.652 27.2199 9.937C27.4519 9.214 28.0659 8.697 28.8229 8.589L32.9109 8C33.0689 7.978 33.2049 7.881 33.2729 7.743L35.0999 4.091C35.4369 3.418 36.1169 3 36.8749 3C37.6329 3 38.3129 3.418 38.6499 4.091L40.4779 7.742C40.5469 7.881 40.6819 7.978 40.8389 8L44.9269 8.589C45.6839 8.697 46.2979 9.214 46.5299 9.937C46.7599 10.652 46.5639 11.422 46.0199 11.943L43.0639 14.783C42.9539 14.889 42.9039 15.04 42.9299 15.188L43.6269 19.199C43.7549 19.938 43.4579 20.671 42.8509 21.114C42.2359 21.565 41.4349 21.626 40.7559 21.272L37.1029 19.379C36.9599 19.305 36.7889 19.305 36.6459 19.379L32.9929 21.273C32.7009 21.425 32.3859 21.5 32.0719 21.5Z" fill="#9E9E9E"/>
<path d="M25.9983 36.09C25.6849 36.09 25.3816 36.0633 25.0883 36.01C24.7949 35.9633 24.5183 35.89 24.2583 35.79C23.9983 35.69 23.7649 35.5667 23.5583 35.42C23.4716 35.36 23.4083 35.2867 23.3683 35.2C23.3349 35.1133 23.3249 35.03 23.3383 34.95C23.3583 34.8633 23.3949 34.79 23.4483 34.73C23.5083 34.67 23.5783 34.6333 23.6583 34.62C23.7383 34.6067 23.8249 34.6333 23.9183 34.7C24.2249 34.9067 24.5449 35.0567 24.8783 35.15C25.2183 35.2433 25.5916 35.29 25.9983 35.29C26.5849 35.29 27.0149 35.1833 27.2883 34.97C27.5683 34.7567 27.7083 34.4767 27.7083 34.13C27.7083 33.8433 27.6083 33.62 27.4083 33.46C27.2083 33.2933 26.8716 33.1633 26.3983 33.07L25.3383 32.85C24.7116 32.7167 24.2416 32.4967 23.9283 32.19C23.6216 31.8833 23.4683 31.4733 23.4683 30.96C23.4683 30.6467 23.5316 30.3633 23.6583 30.11C23.7849 29.85 23.9649 29.6267 24.1983 29.44C24.4316 29.2533 24.7049 29.11 25.0183 29.01C25.3383 28.91 25.6916 28.86 26.0783 28.86C26.4916 28.86 26.8783 28.9167 27.2383 29.03C27.6049 29.1433 27.9349 29.31 28.2283 29.53C28.3083 29.59 28.3616 29.6633 28.3883 29.75C28.4149 29.83 28.4183 29.91 28.3983 29.99C28.3849 30.07 28.3483 30.1367 28.2883 30.19C28.2349 30.2433 28.1649 30.2733 28.0783 30.28C27.9983 30.2867 27.9083 30.2567 27.8083 30.19C27.5416 30.0033 27.2683 29.87 26.9883 29.79C26.7083 29.7033 26.4016 29.66 26.0683 29.66C25.7283 29.66 25.4316 29.7133 25.1783 29.82C24.9316 29.9267 24.7383 30.0767 24.5983 30.27C24.4649 30.4567 24.3983 30.6767 24.3983 30.93C24.3983 31.2367 24.4916 31.4767 24.6783 31.65C24.8649 31.8233 25.1783 31.9567 25.6183 32.05L26.6683 32.26C27.3349 32.4 27.8283 32.6167 28.1483 32.91C28.4749 33.1967 28.6383 33.5833 28.6383 34.07C28.6383 34.3767 28.5749 34.6533 28.4483 34.9C28.3283 35.1467 28.1549 35.36 27.9283 35.54C27.7016 35.7133 27.4249 35.85 27.0983 35.95C26.7716 36.0433 26.4049 36.09 25.9983 36.09ZM31.4999 36.09C31.1666 36.09 30.8633 36.0233 30.5899 35.89C30.3233 35.7567 30.1133 35.5767 29.9599 35.35C29.8133 35.1233 29.7399 34.87 29.7399 34.59C29.7399 34.23 29.8299 33.9467 30.0099 33.74C30.1899 33.5333 30.4933 33.3867 30.9199 33.3C31.3466 33.2067 31.9199 33.16 32.6399 33.16H33.1099V33.74H32.6599C32.1466 33.74 31.7399 33.7633 31.4399 33.81C31.1466 33.8567 30.9399 33.94 30.8199 34.06C30.6999 34.1733 30.6399 34.3333 30.6399 34.54C30.6399 34.8 30.7299 35.0133 30.9099 35.18C31.0966 35.3467 31.3499 35.43 31.6699 35.43C31.9233 35.43 32.1466 35.37 32.3399 35.25C32.5333 35.1233 32.6866 34.9567 32.7999 34.75C32.9133 34.5367 32.9699 34.2933 32.9699 34.02V32.87C32.9699 32.4767 32.8899 32.1933 32.7299 32.02C32.5699 31.84 32.2999 31.75 31.9199 31.75C31.6999 31.75 31.4733 31.78 31.2399 31.84C31.0066 31.9 30.7633 31.9933 30.5099 32.12C30.4099 32.1667 30.3233 32.1833 30.2499 32.17C30.1766 32.15 30.1166 32.11 30.0699 32.05C30.0299 31.9833 30.0066 31.9133 29.9999 31.84C29.9999 31.76 30.0166 31.6833 30.0499 31.61C30.0899 31.5367 30.1566 31.4833 30.2499 31.45C30.5433 31.3033 30.8333 31.2 31.1199 31.14C31.4133 31.0733 31.6866 31.04 31.9399 31.04C32.3733 31.04 32.7299 31.11 33.0099 31.25C33.2899 31.3833 33.4999 31.5933 33.6399 31.88C33.7799 32.16 33.8499 32.52 33.8499 32.96V35.6C33.8499 35.7533 33.8133 35.87 33.7399 35.95C33.6666 36.03 33.5599 36.07 33.4199 36.07C33.2866 36.07 33.1799 36.03 33.0999 35.95C33.0266 35.87 32.9899 35.7533 32.9899 35.6V34.89H33.0799C33.0266 35.1367 32.9266 35.35 32.7799 35.53C32.6333 35.71 32.4499 35.85 32.2299 35.95C32.0166 36.0433 31.7733 36.09 31.4999 36.09ZM37.2831 36.07C37.1565 36.07 37.0465 36.0367 36.9531 35.97C36.8598 35.9033 36.7798 35.7967 36.7131 35.65L35.0131 31.69C34.9665 31.5767 34.9498 31.4733 34.9631 31.38C34.9765 31.2867 35.0198 31.21 35.0931 31.15C35.1731 31.09 35.2798 31.06 35.4131 31.06C35.5265 31.06 35.6165 31.0867 35.6831 31.14C35.7498 31.1933 35.8131 31.2867 35.8731 31.42L37.4431 35.29H37.1631L38.7731 31.42C38.8265 31.2867 38.8865 31.1933 38.9531 31.14C39.0265 31.0867 39.1265 31.06 39.2531 31.06C39.3665 31.06 39.4531 31.09 39.5131 31.15C39.5798 31.21 39.6198 31.2867 39.6331 31.38C39.6465 31.4733 39.6265 31.5733 39.5731 31.68L37.8631 35.65C37.8031 35.7967 37.7231 35.9033 37.6231 35.97C37.5298 36.0367 37.4165 36.07 37.2831 36.07ZM42.9808 36.09C42.4541 36.09 42.0008 35.99 41.6208 35.79C41.2474 35.5833 40.9574 35.2933 40.7508 34.92C40.5441 34.54 40.4408 34.0933 40.4408 33.58C40.4408 33.0733 40.5408 32.63 40.7408 32.25C40.9474 31.87 41.2274 31.5733 41.5808 31.36C41.9408 31.1467 42.3508 31.04 42.8108 31.04C43.1374 31.04 43.4308 31.0967 43.6908 31.21C43.9574 31.3167 44.1841 31.4733 44.3708 31.68C44.5574 31.8867 44.6974 32.14 44.7908 32.44C44.8908 32.7333 44.9408 33.0667 44.9408 33.44C44.9408 33.5467 44.9074 33.63 44.8408 33.69C44.7808 33.7433 44.6908 33.77 44.5708 33.77H41.1508V33.19H44.3408L44.1708 33.33C44.1708 32.9833 44.1174 32.69 44.0108 32.45C43.9108 32.2033 43.7608 32.0167 43.5608 31.89C43.3674 31.7633 43.1241 31.7 42.8308 31.7C42.5108 31.7 42.2374 31.7767 42.0108 31.93C41.7841 32.0767 41.6108 32.2867 41.4908 32.56C41.3708 32.8267 41.3108 33.1367 41.3108 33.49V33.55C41.3108 34.15 41.4541 34.6033 41.7408 34.91C42.0274 35.2167 42.4408 35.37 42.9808 35.37C43.1941 35.37 43.4108 35.3433 43.6308 35.29C43.8574 35.2367 44.0741 35.14 44.2808 35C44.3808 34.94 44.4708 34.9133 44.5508 34.92C44.6374 34.92 44.7074 34.9467 44.7608 35C44.8141 35.0467 44.8474 35.1067 44.8608 35.18C44.8741 35.2467 44.8641 35.32 44.8308 35.4C44.7974 35.48 44.7341 35.55 44.6408 35.61C44.4208 35.7633 44.1574 35.8833 43.8508 35.97C43.5508 36.05 43.2608 36.09 42.9808 36.09ZM48.1326 36.09C47.7059 36.09 47.3292 35.99 47.0026 35.79C46.6826 35.5833 46.4326 35.29 46.2526 34.91C46.0726 34.5233 45.9826 34.0733 45.9826 33.56C45.9826 33.04 46.0692 32.5933 46.2426 32.22C46.4226 31.84 46.6726 31.55 46.9926 31.35C47.3192 31.1433 47.6992 31.04 48.1326 31.04C48.5659 31.04 48.9392 31.15 49.2526 31.37C49.5659 31.5833 49.7759 31.87 49.8826 32.23H49.7726V29.34C49.7726 29.1867 49.8092 29.0733 49.8826 29C49.9626 28.92 50.0759 28.88 50.2226 28.88C50.3692 28.88 50.4826 28.92 50.5626 29C50.6426 29.0733 50.6826 29.1867 50.6826 29.34V35.6C50.6826 35.7533 50.6426 35.87 50.5626 35.95C50.4826 36.03 50.3692 36.07 50.2226 36.07C50.0826 36.07 49.9726 36.03 49.8926 35.95C49.8126 35.87 49.7726 35.7533 49.7726 35.6V34.69L49.8826 34.87C49.7826 35.2433 49.5726 35.54 49.2526 35.76C48.9392 35.98 48.5659 36.09 48.1326 36.09ZM48.3426 35.37C48.6359 35.37 48.8892 35.3 49.1026 35.16C49.3226 35.02 49.4892 34.8167 49.6026 34.55C49.7226 34.2833 49.7826 33.9533 49.7826 33.56C49.7826 32.9733 49.6526 32.5267 49.3926 32.22C49.1326 31.9133 48.7826 31.76 48.3426 31.76C48.0559 31.76 47.8026 31.83 47.5826 31.97C47.3692 32.1033 47.2026 32.3033 47.0826 32.57C46.9626 32.8367 46.9026 33.1667 46.9026 33.56C46.9026 34.1467 47.0326 34.5967 47.2926 34.91C47.5592 35.2167 47.9092 35.37 48.3426 35.37Z" fill="#9E9E9E"/>
</svg>
