<svg width="74" height="40" viewBox="0 0 74 40" fill="none" xmlns="http://www.w3.org/2000/svg">
<mask id="mask0_285_197" style="mask-type:luminance" maskUnits="userSpaceOnUse" x="29" y="14" width="17" height="8">
<path fill-rule="evenodd" clip-rule="evenodd" d="M29.375 14.4961H45.2149V21.8701H29.375V14.4961Z" fill="white"/>
</mask>
<g mask="url(#mask0_285_197)">
<path fill-rule="evenodd" clip-rule="evenodd" d="M37.296 15.9961C33.035 15.9961 30.875 16.7281 30.875 18.1731C30.875 19.6311 33.035 20.3701 37.296 20.3701C41.556 20.3701 43.715 19.6381 43.715 18.1931C43.715 16.7351 41.556 15.9961 37.296 15.9961ZM37.296 21.8701C35.337 21.8701 29.375 21.8701 29.375 18.1731C29.375 14.8771 33.896 14.4961 37.296 14.4961C39.255 14.4961 45.215 14.4961 45.215 18.1931C45.215 21.4891 40.695 21.8701 37.296 21.8701Z" fill="#9E9E9E"/>
</g>
<mask id="mask1_285_197" style="mask-type:luminance" maskUnits="userSpaceOnUse" x="31" y="2" width="12" height="11">
<path fill-rule="evenodd" clip-rule="evenodd" d="M31.9849 2.00012H42.6049V12.6187H31.9849V2.00012Z" fill="white"/>
</mask>
<g mask="url(#mask1_285_197)">
<path fill-rule="evenodd" clip-rule="evenodd" d="M37.2959 3.42776C35.1549 3.42776 33.4129 5.16876 33.4129 7.30976C33.4059 9.44376 35.1349 11.1838 37.2669 11.1918L37.2959 11.9058V11.1918C39.4359 11.1918 41.1769 9.44976 41.1769 7.30976C41.1769 5.16876 39.4359 3.42776 37.2959 3.42776ZM37.2959 12.6188H37.2639C34.3419 12.6098 31.9749 10.2268 31.9849 7.30676C31.9849 4.38176 34.3669 1.99976 37.2959 1.99976C40.2239 1.99976 42.6049 4.38176 42.6049 7.30976C42.6049 10.2378 40.2239 12.6188 37.2959 12.6188Z" fill="#9E9E9E"/>
</g>
<path d="M20.0693 36.07C19.936 36.07 19.8326 36.03 19.7593 35.95C19.686 35.87 19.6493 35.7633 19.6493 35.63V29.32C19.6493 29.18 19.686 29.0733 19.7593 29C19.8393 28.92 19.946 28.88 20.0793 28.88C20.1993 28.88 20.2926 28.9033 20.3593 28.95C20.4326 28.9967 20.4993 29.0767 20.5593 29.19L23.2393 34.22H22.9293L25.6093 29.19C25.6693 29.0767 25.7326 28.9967 25.7993 28.95C25.866 28.9033 25.9593 28.88 26.0793 28.88C26.2126 28.88 26.316 28.92 26.3893 29C26.4626 29.0733 26.4993 29.18 26.4993 29.32V35.63C26.4993 35.7633 26.4626 35.87 26.3893 35.95C26.3226 36.03 26.2193 36.07 26.0793 36.07C25.9393 36.07 25.8326 36.03 25.7593 35.95C25.6926 35.87 25.6593 35.7633 25.6593 35.63V30.24H25.8793L23.4793 34.73C23.426 34.8167 23.3693 34.8833 23.3093 34.93C23.256 34.97 23.1793 34.99 23.0793 34.99C22.986 34.99 22.906 34.9667 22.8393 34.92C22.7793 34.8733 22.726 34.81 22.6793 34.73L20.2493 30.23H20.4893V35.63C20.4893 35.7633 20.4526 35.87 20.3793 35.95C20.3126 36.03 20.2093 36.07 20.0693 36.07ZM29.4133 37.87C29.3066 37.87 29.2166 37.84 29.1433 37.78C29.0766 37.7267 29.0366 37.65 29.0233 37.55C29.0166 37.4567 29.0366 37.3567 29.0833 37.25L29.7633 35.71V36.09L27.8733 31.69C27.8266 31.5767 27.8099 31.4733 27.8233 31.38C27.8366 31.2867 27.8799 31.21 27.9533 31.15C28.0333 31.09 28.1399 31.06 28.2733 31.06C28.3866 31.06 28.4766 31.0867 28.5433 31.14C28.6099 31.1933 28.6733 31.2867 28.7333 31.42L30.3033 35.29H30.0233L31.6233 31.42C31.6766 31.2867 31.7399 31.1933 31.8133 31.14C31.8866 31.0867 31.9866 31.06 32.1133 31.06C32.2266 31.06 32.3133 31.09 32.3733 31.15C32.4399 31.21 32.4799 31.2867 32.4933 31.38C32.5066 31.4733 32.4866 31.5733 32.4333 31.68L29.9133 37.51C29.8466 37.65 29.7766 37.7433 29.7033 37.79C29.6366 37.8433 29.5399 37.87 29.4133 37.87ZM34.1093 37.87C33.9693 37.87 33.8593 37.83 33.7793 37.75C33.6993 37.67 33.6593 37.5567 33.6593 37.41V31.52C33.6593 31.3667 33.6993 31.2533 33.7793 31.18C33.8593 31.1 33.9693 31.06 34.1093 31.06C34.256 31.06 34.366 31.1 34.4393 31.18C34.5193 31.2533 34.5593 31.3667 34.5593 31.52V32.43L34.4493 32.25C34.556 31.8833 34.766 31.59 35.0793 31.37C35.3926 31.15 35.7693 31.04 36.2093 31.04C36.6426 31.04 37.0193 31.1433 37.3393 31.35C37.6593 31.55 37.9093 31.84 38.0893 32.22C38.2693 32.5933 38.3593 33.04 38.3593 33.56C38.3593 34.0733 38.2693 34.5233 38.0893 34.91C37.916 35.29 37.666 35.5833 37.3393 35.79C37.0193 35.99 36.6426 36.09 36.2093 36.09C35.776 36.09 35.4026 35.98 35.0893 35.76C34.776 35.54 34.566 35.25 34.4593 34.89H34.5693V37.41C34.5693 37.5567 34.5293 37.67 34.4493 37.75C34.3693 37.83 34.256 37.87 34.1093 37.87ZM35.9993 35.37C36.286 35.37 36.536 35.3 36.7493 35.16C36.9693 35.02 37.1393 34.8167 37.2593 34.55C37.3793 34.2833 37.4393 33.9533 37.4393 33.56C37.4393 32.9733 37.3093 32.5267 37.0493 32.22C36.7893 31.9133 36.4393 31.76 35.9993 31.76C35.706 31.76 35.4493 31.83 35.2293 31.97C35.016 32.1033 34.8493 32.3033 34.7293 32.57C34.616 32.8367 34.5593 33.1667 34.5593 33.56C34.5593 34.1467 34.6893 34.5967 34.9493 34.91C35.2093 35.2167 35.5593 35.37 35.9993 35.37ZM41.2784 36.09C40.9451 36.09 40.6418 36.0233 40.3684 35.89C40.1018 35.7567 39.8918 35.5767 39.7384 35.35C39.5918 35.1233 39.5184 34.87 39.5184 34.59C39.5184 34.23 39.6084 33.9467 39.7884 33.74C39.9684 33.5333 40.2718 33.3867 40.6984 33.3C41.1251 33.2067 41.6984 33.16 42.4184 33.16H42.8884V33.74H42.4384C41.9251 33.74 41.5184 33.7633 41.2184 33.81C40.9251 33.8567 40.7184 33.94 40.5984 34.06C40.4784 34.1733 40.4184 34.3333 40.4184 34.54C40.4184 34.8 40.5084 35.0133 40.6884 35.18C40.8751 35.3467 41.1284 35.43 41.4484 35.43C41.7018 35.43 41.9251 35.37 42.1184 35.25C42.3118 35.1233 42.4651 34.9567 42.5784 34.75C42.6918 34.5367 42.7484 34.2933 42.7484 34.02V32.87C42.7484 32.4767 42.6684 32.1933 42.5084 32.02C42.3484 31.84 42.0784 31.75 41.6984 31.75C41.4784 31.75 41.2518 31.78 41.0184 31.84C40.7851 31.9 40.5418 31.9933 40.2884 32.12C40.1884 32.1667 40.1018 32.1833 40.0284 32.17C39.9551 32.15 39.8951 32.11 39.8484 32.05C39.8084 31.9833 39.7851 31.9133 39.7784 31.84C39.7784 31.76 39.7951 31.6833 39.8284 31.61C39.8684 31.5367 39.9351 31.4833 40.0284 31.45C40.3218 31.3033 40.6118 31.2 40.8984 31.14C41.1918 31.0733 41.4651 31.04 41.7184 31.04C42.1518 31.04 42.5084 31.11 42.7884 31.25C43.0684 31.3833 43.2784 31.5933 43.4184 31.88C43.5584 32.16 43.6284 32.52 43.6284 32.96V35.6C43.6284 35.7533 43.5918 35.87 43.5184 35.95C43.4451 36.03 43.3384 36.07 43.1984 36.07C43.0651 36.07 42.9584 36.03 42.8784 35.95C42.8051 35.87 42.7684 35.7533 42.7684 35.6V34.89H42.8584C42.8051 35.1367 42.7051 35.35 42.5584 35.53C42.4118 35.71 42.2284 35.85 42.0084 35.95C41.7951 36.0433 41.5518 36.09 41.2784 36.09ZM47.4505 37.89C47.0905 37.89 46.7405 37.85 46.4005 37.77C46.0671 37.69 45.7638 37.5667 45.4905 37.4C45.4038 37.3467 45.3438 37.2833 45.3105 37.21C45.2838 37.1433 45.2771 37.0733 45.2905 37C45.3105 36.9267 45.3438 36.86 45.3905 36.8C45.4438 36.7467 45.5038 36.71 45.5705 36.69C45.6438 36.6767 45.7171 36.6933 45.7905 36.74C46.0838 36.9067 46.3638 37.02 46.6305 37.08C46.8971 37.14 47.1505 37.17 47.3905 37.17C47.8638 37.17 48.2171 37.0467 48.4505 36.8C48.6905 36.56 48.8105 36.2067 48.8105 35.74V34.66H48.9005C48.8071 35.0333 48.5971 35.33 48.2705 35.55C47.9505 35.77 47.5771 35.88 47.1505 35.88C46.7105 35.88 46.3271 35.78 46.0005 35.58C45.6738 35.3733 45.4205 35.09 45.2405 34.73C45.0605 34.3633 44.9705 33.94 44.9705 33.46C44.9705 33.0933 45.0205 32.7633 45.1205 32.47C45.2271 32.17 45.3738 31.9167 45.5605 31.71C45.7538 31.4967 45.9838 31.3333 46.2505 31.22C46.5171 31.1 46.8171 31.04 47.1505 31.04C47.5838 31.04 47.9605 31.15 48.2805 31.37C48.6005 31.59 48.8071 31.8867 48.9005 32.26L48.7905 32.4V31.52C48.7905 31.3667 48.8305 31.2533 48.9105 31.18C48.9905 31.1 49.1038 31.06 49.2505 31.06C49.3905 31.06 49.5005 31.1 49.5805 31.18C49.6605 31.2533 49.7005 31.3667 49.7005 31.52V35.62C49.7005 36.3733 49.5071 36.94 49.1205 37.32C48.7405 37.7 48.1838 37.89 47.4505 37.89ZM47.3505 35.16C47.6505 35.16 47.9071 35.0933 48.1205 34.96C48.3405 34.82 48.5071 34.6233 48.6205 34.37C48.7405 34.11 48.8005 33.8067 48.8005 33.46C48.8005 32.9333 48.6705 32.52 48.4105 32.22C48.1505 31.9133 47.7971 31.76 47.3505 31.76C47.0505 31.76 46.7905 31.83 46.5705 31.97C46.3571 32.1033 46.1905 32.2967 46.0705 32.55C45.9505 32.8033 45.8905 33.1067 45.8905 33.46C45.8905 33.98 46.0205 34.3933 46.2805 34.7C46.5471 35.0067 46.9038 35.16 47.3505 35.16ZM53.6089 36.09C53.0822 36.09 52.6289 35.99 52.2489 35.79C51.8756 35.5833 51.5856 35.2933 51.3789 34.92C51.1722 34.54 51.0689 34.0933 51.0689 33.58C51.0689 33.0733 51.1689 32.63 51.3689 32.25C51.5756 31.87 51.8556 31.5733 52.2089 31.36C52.5689 31.1467 52.9789 31.04 53.4389 31.04C53.7656 31.04 54.0589 31.0967 54.3189 31.21C54.5856 31.3167 54.8122 31.4733 54.9989 31.68C55.1856 31.8867 55.3256 32.14 55.4189 32.44C55.5189 32.7333 55.5689 33.0667 55.5689 33.44C55.5689 33.5467 55.5356 33.63 55.4689 33.69C55.4089 33.7433 55.3189 33.77 55.1989 33.77H51.7789V33.19H54.9689L54.7989 33.33C54.7989 32.9833 54.7456 32.69 54.6389 32.45C54.5389 32.2033 54.3889 32.0167 54.1889 31.89C53.9956 31.7633 53.7522 31.7 53.4589 31.7C53.1389 31.7 52.8656 31.7767 52.6389 31.93C52.4122 32.0767 52.2389 32.2867 52.1189 32.56C51.9989 32.8267 51.9389 33.1367 51.9389 33.49V33.55C51.9389 34.15 52.0822 34.6033 52.3689 34.91C52.6556 35.2167 53.0689 35.37 53.6089 35.37C53.8222 35.37 54.0389 35.3433 54.2589 35.29C54.4856 35.2367 54.7022 35.14 54.9089 35C55.0089 34.94 55.0989 34.9133 55.1789 34.92C55.2656 34.92 55.3356 34.9467 55.3889 35C55.4422 35.0467 55.4756 35.1067 55.4889 35.18C55.5022 35.2467 55.4922 35.32 55.4589 35.4C55.4256 35.48 55.3622 35.55 55.2689 35.61C55.0489 35.7633 54.7856 35.8833 54.4789 35.97C54.1789 36.05 53.8889 36.09 53.6089 36.09Z" fill="#9E9E9E"/>
</svg>
