<svg width="74" height="40" viewBox="0 0 74 40" fill="none" xmlns="http://www.w3.org/2000/svg">
<path fill-rule="evenodd" clip-rule="evenodd" d="M35.5639 12.0001C35.5639 13.0231 34.7349 13.8521 33.7119 13.8521C32.6889 13.8521 31.8599 13.0231 31.8599 12.0001C31.8599 10.9771 32.6889 10.1481 33.7119 10.1481H33.7149C34.7369 10.1491 35.5639 10.9781 35.5639 12.0001Z" stroke="#9E9E9E" stroke-width="1.5" stroke-linecap="round" stroke-linejoin="round"/>
<path d="M35.5669 12.0001H41.8849V13.8521" stroke="#9E9E9E" stroke-width="1.5" stroke-linecap="round" stroke-linejoin="round"/>
<path d="M39.0571 13.8521V12.0001" stroke="#9E9E9E" stroke-width="1.5" stroke-linecap="round" stroke-linejoin="round"/>
<path fill-rule="evenodd" clip-rule="evenodd" d="M27.625 12.0001C27.625 5.06312 29.938 2.75012 36.875 2.75012C43.812 2.75012 46.125 5.06312 46.125 12.0001C46.125 18.9371 43.812 21.2501 36.875 21.2501C29.938 21.2501 27.625 18.9371 27.625 12.0001Z" stroke="#9E9E9E" stroke-width="1.5" stroke-linecap="round" stroke-linejoin="round"/>
<path d="M16.9879 36.09C16.2879 36.09 15.6879 35.9433 15.1879 35.65C14.6879 35.3567 14.3012 34.94 14.0279 34.4C13.7612 33.8533 13.6279 33.21 13.6279 32.47C13.6279 31.9167 13.7046 31.42 13.8579 30.98C14.0112 30.5333 14.2312 30.1533 14.5179 29.84C14.8046 29.52 15.1546 29.2767 15.5679 29.11C15.9879 28.9433 16.4612 28.86 16.9879 28.86C17.3879 28.86 17.7712 28.9167 18.1379 29.03C18.5112 29.1433 18.8312 29.3033 19.0979 29.51C19.2046 29.5833 19.2746 29.6667 19.3079 29.76C19.3412 29.8533 19.3446 29.9433 19.3179 30.03C19.2979 30.11 19.2546 30.18 19.1879 30.24C19.1279 30.2933 19.0512 30.3233 18.9579 30.33C18.8646 30.33 18.7646 30.2933 18.6579 30.22C18.4246 30.04 18.1679 29.91 17.8879 29.83C17.6146 29.7433 17.3212 29.7 17.0079 29.7C16.4946 29.7 16.0579 29.81 15.6979 30.03C15.3446 30.2433 15.0746 30.5567 14.8879 30.97C14.7079 31.3767 14.6179 31.8767 14.6179 32.47C14.6179 33.0567 14.7079 33.56 14.8879 33.98C15.0746 34.3933 15.3446 34.71 15.6979 34.93C16.0579 35.1433 16.4946 35.25 17.0079 35.25C17.3212 35.25 17.6179 35.2067 17.8979 35.12C18.1846 35.0333 18.4479 34.9 18.6879 34.72C18.7946 34.6467 18.8912 34.6133 18.9779 34.62C19.0712 34.6267 19.1479 34.6567 19.2079 34.71C19.2679 34.7567 19.3079 34.8233 19.3279 34.91C19.3546 34.99 19.3546 35.0733 19.3279 35.16C19.3012 35.2467 19.2412 35.3233 19.1479 35.39C18.8746 35.6233 18.5479 35.8 18.1679 35.92C17.7946 36.0333 17.4012 36.09 16.9879 36.09ZM21.1659 36.07C21.0259 36.07 20.9159 36.03 20.8359 35.95C20.7559 35.87 20.7159 35.7533 20.7159 35.6V29.34C20.7159 29.1867 20.7559 29.0733 20.8359 29C20.9159 28.92 21.0259 28.88 21.1659 28.88C21.3126 28.88 21.4259 28.92 21.5059 29C21.5859 29.0733 21.6259 29.1867 21.6259 29.34V32.19H21.4959C21.6359 31.81 21.8626 31.5233 22.1759 31.33C22.4959 31.1367 22.8593 31.04 23.2659 31.04C23.6593 31.04 23.9826 31.1133 24.2359 31.26C24.4893 31.4 24.6793 31.6133 24.8059 31.9C24.9326 32.1867 24.9959 32.5467 24.9959 32.98V35.6C24.9959 35.7533 24.9559 35.87 24.8759 35.95C24.8026 36.03 24.6926 36.07 24.5459 36.07C24.3993 36.07 24.2859 36.03 24.2059 35.95C24.1259 35.87 24.0859 35.7533 24.0859 35.6V33.03C24.0859 32.5967 24.0026 32.28 23.8359 32.08C23.6693 31.88 23.4026 31.78 23.0359 31.78C22.6093 31.78 22.2659 31.9133 22.0059 32.18C21.7526 32.44 21.6259 32.7933 21.6259 33.24V35.6C21.6259 35.9133 21.4726 36.07 21.1659 36.07ZM28.1886 36.09C27.8553 36.09 27.5519 36.0233 27.2786 35.89C27.0119 35.7567 26.8019 35.5767 26.6486 35.35C26.5019 35.1233 26.4286 34.87 26.4286 34.59C26.4286 34.23 26.5186 33.9467 26.6986 33.74C26.8786 33.5333 27.1819 33.3867 27.6086 33.3C28.0353 33.2067 28.6086 33.16 29.3286 33.16H29.7986V33.74H29.3486C28.8353 33.74 28.4286 33.7633 28.1286 33.81C27.8353 33.8567 27.6286 33.94 27.5086 34.06C27.3886 34.1733 27.3286 34.3333 27.3286 34.54C27.3286 34.8 27.4186 35.0133 27.5986 35.18C27.7853 35.3467 28.0386 35.43 28.3586 35.43C28.6119 35.43 28.8353 35.37 29.0286 35.25C29.2219 35.1233 29.3753 34.9567 29.4886 34.75C29.6019 34.5367 29.6586 34.2933 29.6586 34.02V32.87C29.6586 32.4767 29.5786 32.1933 29.4186 32.02C29.2586 31.84 28.9886 31.75 28.6086 31.75C28.3886 31.75 28.1619 31.78 27.9286 31.84C27.6953 31.9 27.4519 31.9933 27.1986 32.12C27.0986 32.1667 27.0119 32.1833 26.9386 32.17C26.8653 32.15 26.8053 32.11 26.7586 32.05C26.7186 31.9833 26.6953 31.9133 26.6886 31.84C26.6886 31.76 26.7053 31.6833 26.7386 31.61C26.7786 31.5367 26.8453 31.4833 26.9386 31.45C27.2319 31.3033 27.5219 31.2 27.8086 31.14C28.1019 31.0733 28.3753 31.04 28.6286 31.04C29.0619 31.04 29.4186 31.11 29.6986 31.25C29.9786 31.3833 30.1886 31.5933 30.3286 31.88C30.4686 32.16 30.5386 32.52 30.5386 32.96V35.6C30.5386 35.7533 30.5019 35.87 30.4286 35.95C30.3553 36.03 30.2486 36.07 30.1086 36.07C29.9753 36.07 29.8686 36.03 29.7886 35.95C29.7153 35.87 29.6786 35.7533 29.6786 35.6V34.89H29.7686C29.7153 35.1367 29.6153 35.35 29.4686 35.53C29.3219 35.71 29.1386 35.85 28.9186 35.95C28.7053 36.0433 28.4619 36.09 28.1886 36.09ZM33.7006 36.09C33.2006 36.09 32.8206 35.9433 32.5606 35.65C32.3006 35.35 32.1706 34.92 32.1706 34.36V29.34C32.1706 29.1867 32.2106 29.0733 32.2906 29C32.3706 28.92 32.4806 28.88 32.6206 28.88C32.7673 28.88 32.8806 28.92 32.9606 29C33.0406 29.0733 33.0806 29.1867 33.0806 29.34V34.29C33.0806 34.6367 33.1506 34.8967 33.2906 35.07C33.4373 35.2367 33.644 35.32 33.9106 35.32C33.9706 35.32 34.024 35.32 34.0706 35.32C34.1173 35.3133 34.164 35.3067 34.2106 35.3C34.284 35.2933 34.3373 35.3133 34.3706 35.36C34.404 35.4067 34.4206 35.5 34.4206 35.64C34.4206 35.7667 34.3906 35.8667 34.3306 35.94C34.2773 36.0067 34.1873 36.05 34.0606 36.07C34.0006 36.0767 33.9406 36.08 33.8806 36.08C33.8206 36.0867 33.7606 36.09 33.7006 36.09ZM36.9084 36.09C36.4084 36.09 36.0284 35.9433 35.7684 35.65C35.5084 35.35 35.3784 34.92 35.3784 34.36V29.34C35.3784 29.1867 35.4184 29.0733 35.4984 29C35.5784 28.92 35.6884 28.88 35.8284 28.88C35.9751 28.88 36.0884 28.92 36.1684 29C36.2484 29.0733 36.2884 29.1867 36.2884 29.34V34.29C36.2884 34.6367 36.3584 34.8967 36.4984 35.07C36.6451 35.2367 36.8518 35.32 37.1184 35.32C37.1784 35.32 37.2318 35.32 37.2784 35.32C37.3251 35.3133 37.3718 35.3067 37.4184 35.3C37.4918 35.2933 37.5451 35.3133 37.5784 35.36C37.6118 35.4067 37.6284 35.5 37.6284 35.64C37.6284 35.7667 37.5984 35.8667 37.5384 35.94C37.4851 36.0067 37.3951 36.05 37.2684 36.07C37.2084 36.0767 37.1484 36.08 37.0884 36.08C37.0284 36.0867 36.9684 36.09 36.9084 36.09ZM40.7874 36.09C40.2608 36.09 39.8074 35.99 39.4274 35.79C39.0541 35.5833 38.7641 35.2933 38.5574 34.92C38.3508 34.54 38.2474 34.0933 38.2474 33.58C38.2474 33.0733 38.3474 32.63 38.5474 32.25C38.7541 31.87 39.0341 31.5733 39.3874 31.36C39.7474 31.1467 40.1574 31.04 40.6174 31.04C40.9441 31.04 41.2374 31.0967 41.4974 31.21C41.7641 31.3167 41.9908 31.4733 42.1774 31.68C42.3641 31.8867 42.5041 32.14 42.5974 32.44C42.6974 32.7333 42.7474 33.0667 42.7474 33.44C42.7474 33.5467 42.7141 33.63 42.6474 33.69C42.5874 33.7433 42.4974 33.77 42.3774 33.77H38.9574V33.19H42.1474L41.9774 33.33C41.9774 32.9833 41.9241 32.69 41.8174 32.45C41.7174 32.2033 41.5674 32.0167 41.3674 31.89C41.1741 31.7633 40.9308 31.7 40.6374 31.7C40.3174 31.7 40.0441 31.7767 39.8174 31.93C39.5908 32.0767 39.4174 32.2867 39.2974 32.56C39.1774 32.8267 39.1174 33.1367 39.1174 33.49V33.55C39.1174 34.15 39.2608 34.6033 39.5474 34.91C39.8341 35.2167 40.2474 35.37 40.7874 35.37C41.0008 35.37 41.2174 35.3433 41.4374 35.29C41.6641 35.2367 41.8808 35.14 42.0874 35C42.1874 34.94 42.2774 34.9133 42.3574 34.92C42.4441 34.92 42.5141 34.9467 42.5674 35C42.6208 35.0467 42.6541 35.1067 42.6674 35.18C42.6808 35.2467 42.6708 35.32 42.6374 35.4C42.6041 35.48 42.5408 35.55 42.4474 35.61C42.2274 35.7633 41.9641 35.8833 41.6574 35.97C41.3574 36.05 41.0674 36.09 40.7874 36.09ZM44.5292 36.07C44.3892 36.07 44.2792 36.03 44.1992 35.95C44.1192 35.87 44.0792 35.7533 44.0792 35.6V31.52C44.0792 31.3667 44.1192 31.2533 44.1992 31.18C44.2792 31.1 44.3892 31.06 44.5292 31.06C44.6692 31.06 44.7759 31.1 44.8492 31.18C44.9292 31.2533 44.9692 31.3667 44.9692 31.52V32.34L44.8592 32.19C44.9992 31.81 45.2259 31.5233 45.5392 31.33C45.8592 31.1367 46.2226 31.04 46.6292 31.04C47.0226 31.04 47.3459 31.11 47.5992 31.25C47.8526 31.39 48.0426 31.6033 48.1692 31.89C48.2959 32.1767 48.3592 32.54 48.3592 32.98V35.6C48.3592 35.7533 48.3192 35.87 48.2392 35.95C48.1659 36.03 48.0559 36.07 47.9092 36.07C47.7626 36.07 47.6492 36.03 47.5692 35.95C47.4892 35.87 47.4492 35.7533 47.4492 35.6V33.03C47.4492 32.5967 47.3659 32.28 47.1992 32.08C47.0326 31.88 46.7659 31.78 46.3992 31.78C45.9726 31.78 45.6292 31.9133 45.3692 32.18C45.1159 32.44 44.9892 32.7933 44.9892 33.24V35.6C44.9892 35.9133 44.8359 36.07 44.5292 36.07ZM52.1919 37.89C51.8319 37.89 51.4819 37.85 51.1419 37.77C50.8085 37.69 50.5052 37.5667 50.2319 37.4C50.1452 37.3467 50.0852 37.2833 50.0519 37.21C50.0252 37.1433 50.0185 37.0733 50.0319 37C50.0519 36.9267 50.0852 36.86 50.1319 36.8C50.1852 36.7467 50.2452 36.71 50.3119 36.69C50.3852 36.6767 50.4585 36.6933 50.5319 36.74C50.8252 36.9067 51.1052 37.02 51.3719 37.08C51.6385 37.14 51.8919 37.17 52.1319 37.17C52.6052 37.17 52.9585 37.0467 53.1919 36.8C53.4319 36.56 53.5519 36.2067 53.5519 35.74V34.66H53.6419C53.5485 35.0333 53.3385 35.33 53.0119 35.55C52.6919 35.77 52.3185 35.88 51.8919 35.88C51.4519 35.88 51.0685 35.78 50.7419 35.58C50.4152 35.3733 50.1619 35.09 49.9819 34.73C49.8019 34.3633 49.7119 33.94 49.7119 33.46C49.7119 33.0933 49.7619 32.7633 49.8619 32.47C49.9685 32.17 50.1152 31.9167 50.3019 31.71C50.4952 31.4967 50.7252 31.3333 50.9919 31.22C51.2585 31.1 51.5585 31.04 51.8919 31.04C52.3252 31.04 52.7019 31.15 53.0219 31.37C53.3419 31.59 53.5485 31.8867 53.6419 32.26L53.5319 32.4V31.52C53.5319 31.3667 53.5719 31.2533 53.6519 31.18C53.7319 31.1 53.8452 31.06 53.9919 31.06C54.1319 31.06 54.2419 31.1 54.3219 31.18C54.4019 31.2533 54.4419 31.3667 54.4419 31.52V35.62C54.4419 36.3733 54.2485 36.94 53.8619 37.32C53.4819 37.7 52.9252 37.89 52.1919 37.89ZM52.0919 35.16C52.3919 35.16 52.6485 35.0933 52.8619 34.96C53.0819 34.82 53.2485 34.6233 53.3619 34.37C53.4819 34.11 53.5419 33.8067 53.5419 33.46C53.5419 32.9333 53.4119 32.52 53.1519 32.22C52.8919 31.9133 52.5385 31.76 52.0919 31.76C51.7919 31.76 51.5319 31.83 51.3119 31.97C51.0985 32.1033 50.9319 32.2967 50.8119 32.55C50.6919 32.8033 50.6319 33.1067 50.6319 33.46C50.6319 33.98 50.7619 34.3933 51.0219 34.7C51.2885 35.0067 51.6452 35.16 52.0919 35.16ZM58.3503 36.09C57.8236 36.09 57.3703 35.99 56.9903 35.79C56.617 35.5833 56.327 35.2933 56.1203 34.92C55.9136 34.54 55.8103 34.0933 55.8103 33.58C55.8103 33.0733 55.9103 32.63 56.1103 32.25C56.317 31.87 56.597 31.5733 56.9503 31.36C57.3103 31.1467 57.7203 31.04 58.1803 31.04C58.507 31.04 58.8003 31.0967 59.0603 31.21C59.327 31.3167 59.5536 31.4733 59.7403 31.68C59.927 31.8867 60.067 32.14 60.1603 32.44C60.2603 32.7333 60.3103 33.0667 60.3103 33.44C60.3103 33.5467 60.277 33.63 60.2103 33.69C60.1503 33.7433 60.0603 33.77 59.9403 33.77H56.5203V33.19H59.7103L59.5403 33.33C59.5403 32.9833 59.487 32.69 59.3803 32.45C59.2803 32.2033 59.1303 32.0167 58.9303 31.89C58.737 31.7633 58.4936 31.7 58.2003 31.7C57.8803 31.7 57.607 31.7767 57.3803 31.93C57.1536 32.0767 56.9803 32.2867 56.8603 32.56C56.7403 32.8267 56.6803 33.1367 56.6803 33.49V33.55C56.6803 34.15 56.8236 34.6033 57.1103 34.91C57.397 35.2167 57.8103 35.37 58.3503 35.37C58.5636 35.37 58.7803 35.3433 59.0003 35.29C59.227 35.2367 59.4436 35.14 59.6503 35C59.7503 34.94 59.8403 34.9133 59.9203 34.92C60.007 34.92 60.077 34.9467 60.1303 35C60.1836 35.0467 60.217 35.1067 60.2303 35.18C60.2436 35.2467 60.2336 35.32 60.2003 35.4C60.167 35.48 60.1036 35.55 60.0103 35.61C59.7903 35.7633 59.527 35.8833 59.2203 35.97C58.9203 36.05 58.6303 36.09 58.3503 36.09Z" fill="#9E9E9E"/>
</svg>
