<svg width="24" height="24" viewBox="0 0 24 24" fill="none" xmlns="http://www.w3.org/2000/svg">
<g id="Group">
<path id="Exclude" fill-rule="evenodd" clip-rule="evenodd" d="M12.0002 2.08337C6.532 2.08337 2.0835 6.53187 2.0835 12C2.0835 17.4682 6.532 21.9167 12.0002 21.9167C17.4683 21.9167 21.9168 17.4682 21.9168 12C21.9168 6.53187 17.4683 2.08337 12.0002 2.08337ZM12.0002 23.6667C5.56716 23.6667 0.333496 18.433 0.333496 12C0.333496 5.56704 5.56716 0.333374 12.0002 0.333374C18.4332 0.333374 23.6668 5.56704 23.6668 12C23.6668 18.433 18.4332 23.6667 12.0002 23.6667Z" fill="white"/>
<path id="Vector" fill-rule="evenodd" clip-rule="evenodd" d="M11.9932 13.6019C11.5102 13.6019 11.1182 13.2099 11.1182 12.7269V7.57141C11.1182 7.08841 11.5102 6.69641 11.9932 6.69641C12.4762 6.69641 12.8682 7.08841 12.8682 7.57141V12.7269C12.8682 13.2099 12.4762 13.6019 11.9932 13.6019Z" fill="white"/>
<path id="Vector_2" fill-rule="evenodd" clip-rule="evenodd" d="M12.0045 17.5953C11.3594 17.5953 10.832 17.0738 10.832 16.4286C10.832 15.7835 11.3489 15.262 11.9929 15.262H12.0045C12.6497 15.262 13.1712 15.7835 13.1712 16.4286C13.1712 17.0738 12.6497 17.5953 12.0045 17.5953Z" fill="white"/>
</g>
</svg>
