<svg width="297" height="501" viewBox="0 0 297 501" fill="none" xmlns="http://www.w3.org/2000/svg">
<ellipse cx="65.8134" cy="438.5" rx="58.5" ry="50.5" transform="rotate(-3.91746 65.8134 438.5)" fill="#454341"/>
<g filter="url(#filter0_di_276_2308)">
<ellipse cx="65.3292" cy="431.429" rx="58.5" ry="43.4123" transform="rotate(-3.91746 65.3292 431.429)" fill="url(#paint0_linear_276_2308)" shape-rendering="crispEdges"/>
</g>
<g filter="url(#filter1_di_276_2308)">
<path d="M18.396 434.347C15.9988 434.511 14.154 436.603 14.712 438.94C15.4392 441.986 16.7135 444.935 18.5073 447.706C21.1336 451.764 24.8222 455.362 29.3624 458.295C33.9026 461.227 39.2055 463.437 44.9683 464.798C49.709 465.917 54.6845 466.444 59.7006 466.363C61.4964 466.334 62.8498 464.773 62.7271 462.981C62.6044 461.189 61.0517 459.847 59.2558 459.855C55.3816 459.871 51.5444 459.441 47.8798 458.576C43.1925 457.469 38.8792 455.672 35.1864 453.286C31.4935 450.901 28.4934 447.975 26.3572 444.674C25.053 442.659 24.0865 440.528 23.4735 438.33C22.8284 436.015 20.7931 434.183 18.396 434.347Z" fill="#92918F" fill-opacity="0.67" shape-rendering="crispEdges"/>
</g>
<g clip-path="url(#clip0_276_2308)" filter="url(#filter2_i_276_2308)">
<path d="M38.595 414.48L39.6454 415.392L74.851 431.553L75.3701 431.362L73.1666 410.685L38.595 414.48Z" fill="#343434"/>
<g filter="url(#filter3_d_276_2308)">
<path d="M38.5948 414.48L58.2541 443.17L75.3701 431.362L58.2824 423.518L38.5948 414.48Z" fill="#8C8C8C"/>
</g>
<g filter="url(#filter4_d_276_2308)">
<path d="M78.4639 432.782L78.6174 433.095L91.1584 438.852L91.8377 438.921L76.2697 412.098L78.4639 432.782Z" fill="#3C3C3B"/>
</g>
<g filter="url(#filter5_bdd_276_2308)">
<path d="M91.8379 438.921L78.4641 432.782L61.353 444.593L91.8379 438.921Z" fill="#8C8C8C"/>
</g>
<path d="M75.3697 431.362L73.1662 410.685L58.2822 423.518L75.3697 431.362Z" fill="#141414"/>
<path d="M58.254 443.17L75.3697 431.362L58.2822 423.518L58.254 443.17Z" fill="#393939"/>
</g>
<ellipse cx="214.289" cy="340.5" rx="55.0248" ry="47.5" transform="rotate(-2.57959 214.289 340.5)" fill="#454341"/>
<g filter="url(#filter6_di_276_2308)">
<ellipse cx="213.989" cy="333.84" rx="55.0248" ry="40.8333" transform="rotate(-2.57959 213.989 333.84)" fill="url(#paint1_linear_276_2308)" shape-rendering="crispEdges"/>
</g>
<g filter="url(#filter7_di_276_2308)">
<path d="M169.792 335.553C167.534 335.655 165.753 337.581 166.227 339.791C166.844 342.671 167.977 345.472 169.603 348.118C171.983 351.991 175.373 355.456 179.578 358.313C183.783 361.171 188.721 363.365 194.11 364.771C198.543 365.928 203.21 366.532 207.929 366.566C209.618 366.578 210.925 365.14 210.849 363.453C210.773 361.765 209.342 360.469 207.654 360.437C204.01 360.367 200.411 359.878 196.984 358.984C192.601 357.84 188.585 356.056 185.164 353.732C181.744 351.407 178.987 348.59 177.051 345.439C175.869 343.516 175.007 341.491 174.479 339.41C173.923 337.219 172.049 335.451 169.792 335.553Z" fill="#92918F" fill-opacity="0.67" shape-rendering="crispEdges"/>
</g>
<g clip-path="url(#clip1_276_2308)" filter="url(#filter8_i_276_2308)">
<path d="M187.065 323.531L188.214 324.157L223.816 331.91L224.255 331.63L218.063 313.077L187.065 323.531Z" fill="#343434"/>
<g filter="url(#filter9_d_276_2308)">
<path d="M187.066 323.531L210.91 345.928L224.255 331.629L206.975 327.866L187.066 323.531Z" fill="#8C8C8C"/>
</g>
<g filter="url(#filter10_d_276_2308)">
<path d="M227.384 332.311L227.588 332.567L240.271 335.329L240.909 335.256L221.2 313.749L227.384 332.311Z" fill="#3C3C3B"/>
</g>
<g filter="url(#filter11_bdd_276_2308)">
<path d="M240.908 335.256L227.384 332.311L214.043 346.61L240.908 335.256Z" fill="#8C8C8C"/>
</g>
<path d="M224.255 331.63L218.063 313.077L206.975 327.867L224.255 331.63Z" fill="#141414"/>
<path d="M210.91 345.928L224.255 331.63L206.975 327.867L210.91 345.928Z" fill="#393939"/>
</g>
<ellipse cx="139.813" cy="208" rx="49.5" ry="43" fill="#BDBDBD"/>
<ellipse cx="139.813" cy="201.965" rx="49.5" ry="36.9649" fill="#E0E0E0"/>
<path d="M169.325 201.713C172.593 201.713 175.312 199.021 174.468 195.864C173.681 192.919 172.301 190.071 170.363 187.419C167.161 183.039 162.541 179.338 156.931 176.66C151.321 173.982 144.902 172.413 138.27 172.1C133.625 171.88 128.982 172.28 124.551 173.271C121.655 173.919 120.489 177.251 122.063 179.767C123.215 181.609 125.487 182.371 127.603 181.877C130.801 181.13 134.164 180.825 137.527 180.984C142.169 181.203 146.662 182.301 150.59 184.176C154.517 186.051 157.751 188.641 159.992 191.707C160.975 193.052 161.752 194.469 162.316 195.932C163.491 198.981 166.057 201.713 169.325 201.713Z" fill="#EEEEEE"/>
<path fill-rule="evenodd" clip-rule="evenodd" d="M148.167 194.944V197.246C150.772 198.054 152.67 200.395 152.67 203.191V210.604C152.67 214.066 149.779 216.873 146.215 216.873H133.414C129.848 216.873 126.958 214.066 126.958 210.604V203.191C126.958 200.395 128.857 198.054 131.461 197.246V194.944C131.476 190.467 135.211 186.841 139.791 186.841C144.432 186.841 148.167 190.467 148.167 194.944ZM139.821 189.453C142.941 189.453 145.477 191.915 145.477 194.944V196.922H134.15V194.914C134.166 191.9 136.702 189.453 139.821 189.453ZM141.159 208.547C141.159 209.278 140.559 209.86 139.806 209.86C139.068 209.86 138.469 209.278 138.469 208.547V205.234C138.469 204.518 139.068 203.936 139.806 203.936C140.559 203.936 141.159 204.518 141.159 205.234V208.547Z" fill="#9E9E9E"/>
<ellipse cx="252.313" cy="117.5" rx="44" ry="38.5" fill="#BDBDBD"/>
<ellipse cx="252.313" cy="112.096" rx="44" ry="33.0965" fill="#E0E0E0"/>
<path d="M248.739 89.2892C248.739 87.0883 246.952 85.286 244.759 85.4758C240.241 85.8669 235.853 86.9213 231.846 88.5903C226.67 90.7462 222.297 93.8576 219.132 97.6359C215.967 101.414 214.113 105.737 213.743 110.203C213.477 113.4 213.977 116.595 215.205 119.638C216.075 121.794 218.573 122.626 220.762 121.846C223.728 120.788 224.867 117.213 224.371 114.104C224.191 112.98 224.147 111.842 224.242 110.704C224.501 107.577 225.799 104.551 228.014 101.907C230.23 99.2617 233.291 97.0837 236.914 95.5746C239.366 94.5533 242.022 93.8608 244.764 93.5198C246.948 93.2482 248.739 91.4901 248.739 89.2892Z" fill="#EEEEEE"/>
<path fill-rule="evenodd" clip-rule="evenodd" d="M259.739 105.81V107.872C262.054 108.594 263.741 110.691 263.741 113.194V119.832C263.741 122.931 261.172 125.444 258.004 125.444H246.625C243.455 125.444 240.886 122.931 240.886 119.832V113.194C240.886 110.691 242.574 108.594 244.889 107.872V105.81C244.902 101.802 248.222 98.5555 252.293 98.5555C256.419 98.5555 259.739 101.802 259.739 105.81ZM252.32 100.894C255.094 100.894 257.348 103.098 257.348 105.81V107.582H247.279V105.783C247.293 103.085 249.547 100.894 252.32 100.894ZM253.509 117.989C253.509 118.644 252.976 119.165 252.307 119.165C251.651 119.165 251.118 118.644 251.118 117.989V115.023C251.118 114.382 251.651 113.861 252.307 113.861C252.976 113.861 253.509 114.382 253.509 115.023V117.989Z" fill="#9E9E9E"/>
<ellipse cx="155.813" cy="33" rx="37.5" ry="33" fill="#BDBDBD"/>
<ellipse cx="155.813" cy="28.3684" rx="37.5" ry="28.3684" fill="#E0E0E0"/>
<path d="M152.768 8.81935C152.768 6.93287 151.235 5.38787 149.356 5.55241C145.512 5.88895 141.78 6.79208 138.37 8.2203C133.959 10.0682 130.232 12.7351 127.534 15.9737C124.837 19.2123 123.257 22.9175 122.941 26.7456C122.715 29.4837 123.14 32.2211 124.186 34.828C124.926 36.6761 127.067 37.3907 128.941 36.7186C131.464 35.8141 132.434 32.7745 132.005 30.129C131.847 29.1526 131.807 28.1637 131.889 27.1746C132.11 24.4949 133.216 21.9012 135.104 19.6342C136.992 17.3672 139.601 15.5004 142.689 14.2069C144.773 13.3338 147.03 12.7411 149.361 12.448C151.232 12.2125 152.768 10.7058 152.768 8.81935Z" fill="#EEEEEE"/>
<path fill-rule="evenodd" clip-rule="evenodd" d="M162.141 22.9802V24.7471C164.115 25.3667 165.553 27.1634 165.553 29.3095V34.9987C165.553 37.6555 163.363 39.8095 160.663 39.8095H150.965C148.264 39.8095 146.074 37.6555 146.074 34.9987V29.3095C146.074 27.1634 147.513 25.3667 149.485 24.7471V22.9802C149.497 19.5447 152.326 16.7619 155.796 16.7619C159.312 16.7619 162.141 19.5447 162.141 22.9802ZM155.819 18.7659C158.183 18.7659 160.104 20.6555 160.104 22.9802V24.4986H151.523V22.9573C151.534 20.644 153.456 18.7659 155.819 18.7659ZM156.832 33.4195C156.832 33.9806 156.378 34.4272 155.807 34.4272C155.249 34.4272 154.795 33.9806 154.795 33.4195V30.8772C154.795 30.3275 155.249 29.8809 155.807 29.8809C156.378 29.8809 156.832 30.3275 156.832 30.8772V33.4195Z" fill="#9E9E9E"/>
<ellipse cx="41.3135" cy="49" rx="34" ry="30" fill="#BDBDBD"/>
<ellipse cx="41.3135" cy="44.7895" rx="34" ry="25.7895" fill="#E0E0E0"/>
<path d="M38.552 62.2105C38.552 63.9255 39.945 65.3301 41.6534 65.1798C45.1355 64.8732 48.517 64.0525 51.6058 62.7551C55.6054 61.0753 58.9847 58.6508 61.4303 55.7066C63.8759 52.7624 65.3084 49.394 65.595 45.9139C65.7999 43.4255 65.4142 40.9377 64.4673 38.5684C63.7957 36.8881 61.8503 36.238 60.1475 36.8502C57.8623 37.6718 56.9826 40.4243 57.3738 42.8211C57.5196 43.7142 57.5566 44.619 57.4821 45.524C57.2815 47.96 56.2787 50.3179 54.5668 52.3788C52.8549 54.4397 50.4894 56.1369 47.6897 57.3128C45.8025 58.1055 43.7592 58.644 41.6492 58.9108C39.9478 59.1259 38.552 60.4955 38.552 62.2105Z" fill="#EEEEEE"/>
<path fill-rule="evenodd" clip-rule="evenodd" d="M47.051 39.8911V41.4974C48.8403 42.0606 50.144 43.694 50.144 45.645V50.817C50.144 53.2322 48.1583 55.1905 45.7103 55.1905H36.9177C34.4686 55.1905 32.4829 53.2322 32.4829 50.817V45.645C32.4829 43.694 33.7877 42.0606 35.576 41.4974V39.8911C35.5865 36.7679 38.1518 34.2381 41.2976 34.2381C44.4857 34.2381 47.051 36.7679 47.051 39.8911ZM41.3187 36.06C43.4617 36.06 45.2036 37.7777 45.2036 39.8911V41.2715H37.4234V39.8702C37.4339 37.7673 39.1758 36.06 41.3187 36.06ZM42.2372 49.3814C42.2372 49.8915 41.8255 50.2975 41.3082 50.2975C40.8015 50.2975 40.3898 49.8915 40.3898 49.3814V47.0702C40.3898 46.5705 40.8015 46.1645 41.3082 46.1645C41.8255 46.1645 42.2372 46.5705 42.2372 47.0702V49.3814Z" fill="#9E9E9E"/>
<circle cx="226.5" cy="286.5" r="42.5" fill="url(#paint2_linear_276_2308)"/>
<path d="M187.682 278.477C185.902 283.884 187.133 289.012 190.435 289.931C193.733 290.854 197.852 287.221 199.632 281.815C201.413 276.412 200.181 271.284 196.881 270.361C193.579 269.442 189.463 273.075 187.682 278.477Z" fill="white"/>
<path d="M194.906 284.837C194.3 285.389 193.682 285.333 193.52 284.717C193.36 284.097 193.717 283.15 194.32 282.6C194.926 282.048 195.544 282.103 195.706 282.72C195.866 283.339 195.508 284.287 194.906 284.837ZM193.408 279.285C192.365 280.235 191.294 280.142 191.016 279.072C190.737 278.007 191.356 276.368 192.4 275.414C193.441 274.463 194.512 274.557 194.793 275.623C195.071 276.692 194.451 278.331 193.408 279.285ZM197.77 281.294C198.996 277.572 198.147 274.041 195.873 273.407C193.6 272.769 190.764 275.273 189.538 278.995C188.312 282.718 189.16 286.252 191.434 286.886C193.706 287.519 196.544 285.016 197.77 281.294Z" fill="#133441"/>
<path d="M211.851 287.143C210.071 292.549 211.303 297.677 214.604 298.597C217.903 299.519 222.022 295.887 223.801 290.48C225.582 285.077 224.351 279.95 221.05 279.027C217.749 278.107 213.632 281.74 211.851 287.143Z" fill="white"/>
<path d="M219.431 293.358C218.829 293.908 218.207 293.855 218.045 293.238C217.885 292.618 218.245 291.672 218.848 291.119C219.451 290.569 220.07 290.621 220.231 291.241C220.392 291.857 220.033 292.808 219.431 293.358ZM217.772 287.578C216.697 288.359 215.687 288.057 215.52 286.895C215.353 285.738 216.089 284.164 217.165 283.38C218.243 282.597 219.25 282.901 219.418 284.06C219.587 285.218 218.85 286.795 217.772 287.578ZM221.94 289.959C223.166 286.237 222.317 282.707 220.043 282.072C217.772 281.435 214.934 283.938 213.708 287.661C212.48 291.383 213.33 294.917 215.604 295.551C217.876 296.185 220.714 293.682 221.94 289.959Z" fill="#133441"/>
<defs>
<filter id="filter0_di_276_2308" x="0.88916" y="387.931" width="128.88" height="112.995" filterUnits="userSpaceOnUse" color-interpolation-filters="sRGB">
<feFlood flood-opacity="0" result="BackgroundImageFix"/>
<feColorMatrix in="SourceAlpha" type="matrix" values="0 0 0 0 0 0 0 0 0 0 0 0 0 0 0 0 0 0 127 0" result="hardAlpha"/>
<feOffset dy="20"/>
<feGaussianBlur stdDeviation="3"/>
<feComposite in2="hardAlpha" operator="out"/>
<feColorMatrix type="matrix" values="0 0 0 0 0 0 0 0 0 0 0 0 0 0 0 0 0 0 0.25 0"/>
<feBlend mode="normal" in2="BackgroundImageFix" result="effect1_dropShadow_276_2308"/>
<feBlend mode="normal" in="SourceGraphic" in2="effect1_dropShadow_276_2308" result="shape"/>
<feColorMatrix in="SourceAlpha" type="matrix" values="0 0 0 0 0 0 0 0 0 0 0 0 0 0 0 0 0 0 127 0" result="hardAlpha"/>
<feOffset dx="8" dy="4"/>
<feGaussianBlur stdDeviation="2"/>
<feComposite in2="hardAlpha" operator="arithmetic" k2="-1" k3="1"/>
<feColorMatrix type="matrix" values="0 0 0 0 0 0 0 0 0 0 0 0 0 0 0 0 0 0 0.25 0"/>
<feBlend mode="normal" in2="shape" result="effect2_innerShadow_276_2308"/>
</filter>
<filter id="filter1_di_276_2308" x="13.6118" y="434.337" width="50.123" height="34.0344" filterUnits="userSpaceOnUse" color-interpolation-filters="sRGB">
<feFlood flood-opacity="0" result="BackgroundImageFix"/>
<feColorMatrix in="SourceAlpha" type="matrix" values="0 0 0 0 0 0 0 0 0 0 0 0 0 0 0 0 0 0 127 0" result="hardAlpha"/>
<feOffset dy="1"/>
<feGaussianBlur stdDeviation="0.5"/>
<feComposite in2="hardAlpha" operator="out"/>
<feColorMatrix type="matrix" values="0 0 0 0 0 0 0 0 0 0 0 0 0 0 0 0 0 0 0.25 0"/>
<feBlend mode="normal" in2="BackgroundImageFix" result="effect1_dropShadow_276_2308"/>
<feBlend mode="normal" in="SourceGraphic" in2="effect1_dropShadow_276_2308" result="shape"/>
<feColorMatrix in="SourceAlpha" type="matrix" values="0 0 0 0 0 0 0 0 0 0 0 0 0 0 0 0 0 0 127 0" result="hardAlpha"/>
<feOffset dy="1"/>
<feGaussianBlur stdDeviation="2"/>
<feComposite in2="hardAlpha" operator="arithmetic" k2="-1" k3="1"/>
<feColorMatrix type="matrix" values="0 0 0 0 0 0 0 0 0 0 0 0 0 0 0 0 0 0 0.25 0"/>
<feBlend mode="normal" in2="shape" result="effect2_innerShadow_276_2308"/>
</filter>
<filter id="filter2_i_276_2308" x="31.1387" y="398.228" width="68.1719" height="60.9416" filterUnits="userSpaceOnUse" color-interpolation-filters="sRGB">
<feFlood flood-opacity="0" result="BackgroundImageFix"/>
<feBlend mode="normal" in="SourceGraphic" in2="BackgroundImageFix" result="shape"/>
<feColorMatrix in="SourceAlpha" type="matrix" values="0 0 0 0 0 0 0 0 0 0 0 0 0 0 0 0 0 0 127 0" result="hardAlpha"/>
<feOffset dy="4"/>
<feGaussianBlur stdDeviation="2"/>
<feComposite in2="hardAlpha" operator="arithmetic" k2="-1" k3="1"/>
<feColorMatrix type="matrix" values="0 0 0 0 0 0 0 0 0 0 0 0 0 0 0 0 0 0 0.25 0"/>
<feBlend mode="normal" in2="shape" result="effect1_innerShadow_276_2308"/>
</filter>
<filter id="filter3_d_276_2308" x="37.5947" y="414.48" width="38.7754" height="30.6899" filterUnits="userSpaceOnUse" color-interpolation-filters="sRGB">
<feFlood flood-opacity="0" result="BackgroundImageFix"/>
<feColorMatrix in="SourceAlpha" type="matrix" values="0 0 0 0 0 0 0 0 0 0 0 0 0 0 0 0 0 0 127 0" result="hardAlpha"/>
<feOffset dy="1"/>
<feGaussianBlur stdDeviation="0.5"/>
<feComposite in2="hardAlpha" operator="out"/>
<feColorMatrix type="matrix" values="0 0 0 0 0 0 0 0 0 0 0 0 0 0 0 0 0 0 0.25 0"/>
<feBlend mode="normal" in2="BackgroundImageFix" result="effect1_dropShadow_276_2308"/>
<feBlend mode="normal" in="SourceGraphic" in2="effect1_dropShadow_276_2308" result="shape"/>
</filter>
<filter id="filter4_d_276_2308" x="76.2695" y="411.098" width="17.5684" height="28.8236" filterUnits="userSpaceOnUse" color-interpolation-filters="sRGB">
<feFlood flood-opacity="0" result="BackgroundImageFix"/>
<feColorMatrix in="SourceAlpha" type="matrix" values="0 0 0 0 0 0 0 0 0 0 0 0 0 0 0 0 0 0 127 0" result="hardAlpha"/>
<feOffset dx="1"/>
<feGaussianBlur stdDeviation="0.5"/>
<feComposite in2="hardAlpha" operator="out"/>
<feColorMatrix type="matrix" values="0 0 0 0 0 0 0 0 0 0 0 0 0 0 0 0 0 0 0.25 0"/>
<feBlend mode="normal" in2="BackgroundImageFix" result="effect1_dropShadow_276_2308"/>
<feBlend mode="normal" in="SourceGraphic" in2="effect1_dropShadow_276_2308" result="shape"/>
</filter>
<filter id="filter5_bdd_276_2308" x="51.353" y="422.782" width="50.4849" height="31.8105" filterUnits="userSpaceOnUse" color-interpolation-filters="sRGB">
<feFlood flood-opacity="0" result="BackgroundImageFix"/>
<feGaussianBlur in="BackgroundImageFix" stdDeviation="5"/>
<feComposite in2="SourceAlpha" operator="in" result="effect1_backgroundBlur_276_2308"/>
<feColorMatrix in="SourceAlpha" type="matrix" values="0 0 0 0 0 0 0 0 0 0 0 0 0 0 0 0 0 0 127 0" result="hardAlpha"/>
<feOffset dx="1"/>
<feGaussianBlur stdDeviation="0.5"/>
<feComposite in2="hardAlpha" operator="out"/>
<feColorMatrix type="matrix" values="0 0 0 0 0.2125 0 0 0 0 0.192135 0 0 0 0 0.192135 0 0 0 0.09 0"/>
<feBlend mode="normal" in2="effect1_backgroundBlur_276_2308" result="effect2_dropShadow_276_2308"/>
<feColorMatrix in="SourceAlpha" type="matrix" values="0 0 0 0 0 0 0 0 0 0 0 0 0 0 0 0 0 0 127 0" result="hardAlpha"/>
<feOffset dy="1"/>
<feGaussianBlur stdDeviation="0.5"/>
<feComposite in2="hardAlpha" operator="out"/>
<feColorMatrix type="matrix" values="0 0 0 0 0 0 0 0 0 0 0 0 0 0 0 0 0 0 0.25 0"/>
<feBlend mode="normal" in2="effect2_dropShadow_276_2308" result="effect3_dropShadow_276_2308"/>
<feBlend mode="normal" in="SourceGraphic" in2="effect3_dropShadow_276_2308" result="shape"/>
</filter>
<filter id="filter6_di_276_2308" x="152.989" y="292.972" width="122" height="107.737" filterUnits="userSpaceOnUse" color-interpolation-filters="sRGB">
<feFlood flood-opacity="0" result="BackgroundImageFix"/>
<feColorMatrix in="SourceAlpha" type="matrix" values="0 0 0 0 0 0 0 0 0 0 0 0 0 0 0 0 0 0 127 0" result="hardAlpha"/>
<feOffset dy="20"/>
<feGaussianBlur stdDeviation="3"/>
<feComposite in2="hardAlpha" operator="out"/>
<feColorMatrix type="matrix" values="0 0 0 0 0 0 0 0 0 0 0 0 0 0 0 0 0 0 0.25 0"/>
<feBlend mode="normal" in2="BackgroundImageFix" result="effect1_dropShadow_276_2308"/>
<feBlend mode="normal" in="SourceGraphic" in2="effect1_dropShadow_276_2308" result="shape"/>
<feColorMatrix in="SourceAlpha" type="matrix" values="0 0 0 0 0 0 0 0 0 0 0 0 0 0 0 0 0 0 127 0" result="hardAlpha"/>
<feOffset dx="8" dy="4"/>
<feGaussianBlur stdDeviation="2"/>
<feComposite in2="hardAlpha" operator="arithmetic" k2="-1" k3="1"/>
<feColorMatrix type="matrix" values="0 0 0 0 0 0 0 0 0 0 0 0 0 0 0 0 0 0 0.25 0"/>
<feBlend mode="normal" in2="shape" result="effect2_innerShadow_276_2308"/>
</filter>
<filter id="filter7_di_276_2308" x="165.15" y="335.549" width="46.7021" height="33.0172" filterUnits="userSpaceOnUse" color-interpolation-filters="sRGB">
<feFlood flood-opacity="0" result="BackgroundImageFix"/>
<feColorMatrix in="SourceAlpha" type="matrix" values="0 0 0 0 0 0 0 0 0 0 0 0 0 0 0 0 0 0 127 0" result="hardAlpha"/>
<feOffset dy="1"/>
<feGaussianBlur stdDeviation="0.5"/>
<feComposite in2="hardAlpha" operator="out"/>
<feColorMatrix type="matrix" values="0 0 0 0 0 0 0 0 0 0 0 0 0 0 0 0 0 0 0.25 0"/>
<feBlend mode="normal" in2="BackgroundImageFix" result="effect1_dropShadow_276_2308"/>
<feBlend mode="normal" in="SourceGraphic" in2="effect1_dropShadow_276_2308" result="shape"/>
<feColorMatrix in="SourceAlpha" type="matrix" values="0 0 0 0 0 0 0 0 0 0 0 0 0 0 0 0 0 0 127 0" result="hardAlpha"/>
<feOffset dy="1"/>
<feGaussianBlur stdDeviation="2"/>
<feComposite in2="hardAlpha" operator="arithmetic" k2="-1" k3="1"/>
<feColorMatrix type="matrix" values="0 0 0 0 0 0 0 0 0 0 0 0 0 0 0 0 0 0 0.25 0"/>
<feBlend mode="normal" in2="shape" result="effect2_innerShadow_276_2308"/>
</filter>
<filter id="filter8_i_276_2308" x="183.896" y="307.964" width="60.1978" height="46.8523" filterUnits="userSpaceOnUse" color-interpolation-filters="sRGB">
<feFlood flood-opacity="0" result="BackgroundImageFix"/>
<feBlend mode="normal" in="SourceGraphic" in2="BackgroundImageFix" result="shape"/>
<feColorMatrix in="SourceAlpha" type="matrix" values="0 0 0 0 0 0 0 0 0 0 0 0 0 0 0 0 0 0 127 0" result="hardAlpha"/>
<feOffset dy="4"/>
<feGaussianBlur stdDeviation="2"/>
<feComposite in2="hardAlpha" operator="arithmetic" k2="-1" k3="1"/>
<feColorMatrix type="matrix" values="0 0 0 0 0 0 0 0 0 0 0 0 0 0 0 0 0 0 0.25 0"/>
<feBlend mode="normal" in2="shape" result="effect1_innerShadow_276_2308"/>
</filter>
<filter id="filter9_d_276_2308" x="186.065" y="323.531" width="39.1899" height="24.3968" filterUnits="userSpaceOnUse" color-interpolation-filters="sRGB">
<feFlood flood-opacity="0" result="BackgroundImageFix"/>
<feColorMatrix in="SourceAlpha" type="matrix" values="0 0 0 0 0 0 0 0 0 0 0 0 0 0 0 0 0 0 127 0" result="hardAlpha"/>
<feOffset dy="1"/>
<feGaussianBlur stdDeviation="0.5"/>
<feComposite in2="hardAlpha" operator="out"/>
<feColorMatrix type="matrix" values="0 0 0 0 0 0 0 0 0 0 0 0 0 0 0 0 0 0 0.25 0"/>
<feBlend mode="normal" in2="BackgroundImageFix" result="effect1_dropShadow_276_2308"/>
<feBlend mode="normal" in="SourceGraphic" in2="effect1_dropShadow_276_2308" result="shape"/>
</filter>
<filter id="filter10_d_276_2308" x="221.2" y="312.749" width="21.709" height="23.5794" filterUnits="userSpaceOnUse" color-interpolation-filters="sRGB">
<feFlood flood-opacity="0" result="BackgroundImageFix"/>
<feColorMatrix in="SourceAlpha" type="matrix" values="0 0 0 0 0 0 0 0 0 0 0 0 0 0 0 0 0 0 127 0" result="hardAlpha"/>
<feOffset dx="1"/>
<feGaussianBlur stdDeviation="0.5"/>
<feComposite in2="hardAlpha" operator="out"/>
<feColorMatrix type="matrix" values="0 0 0 0 0 0 0 0 0 0 0 0 0 0 0 0 0 0 0.25 0"/>
<feBlend mode="normal" in2="BackgroundImageFix" result="effect1_dropShadow_276_2308"/>
<feBlend mode="normal" in="SourceGraphic" in2="effect1_dropShadow_276_2308" result="shape"/>
</filter>
<filter id="filter11_bdd_276_2308" x="204.043" y="322.311" width="46.8647" height="34.2994" filterUnits="userSpaceOnUse" color-interpolation-filters="sRGB">
<feFlood flood-opacity="0" result="BackgroundImageFix"/>
<feGaussianBlur in="BackgroundImageFix" stdDeviation="5"/>
<feComposite in2="SourceAlpha" operator="in" result="effect1_backgroundBlur_276_2308"/>
<feColorMatrix in="SourceAlpha" type="matrix" values="0 0 0 0 0 0 0 0 0 0 0 0 0 0 0 0 0 0 127 0" result="hardAlpha"/>
<feOffset dx="1"/>
<feGaussianBlur stdDeviation="0.5"/>
<feComposite in2="hardAlpha" operator="out"/>
<feColorMatrix type="matrix" values="0 0 0 0 0.2125 0 0 0 0 0.192135 0 0 0 0 0.192135 0 0 0 0.09 0"/>
<feBlend mode="normal" in2="effect1_backgroundBlur_276_2308" result="effect2_dropShadow_276_2308"/>
<feColorMatrix in="SourceAlpha" type="matrix" values="0 0 0 0 0 0 0 0 0 0 0 0 0 0 0 0 0 0 127 0" result="hardAlpha"/>
<feOffset dy="1"/>
<feGaussianBlur stdDeviation="0.5"/>
<feComposite in2="hardAlpha" operator="out"/>
<feColorMatrix type="matrix" values="0 0 0 0 0 0 0 0 0 0 0 0 0 0 0 0 0 0 0.25 0"/>
<feBlend mode="normal" in2="effect2_dropShadow_276_2308" result="effect3_dropShadow_276_2308"/>
<feBlend mode="normal" in="SourceGraphic" in2="effect3_dropShadow_276_2308" result="shape"/>
</filter>
<linearGradient id="paint0_linear_276_2308" x1="22.3292" y1="409.017" x2="130.829" y2="446.017" gradientUnits="userSpaceOnUse">
<stop stop-color="#5C5C59"/>
<stop offset="1" stop-color="#5C5C59" stop-opacity="0"/>
</linearGradient>
<linearGradient id="paint1_linear_276_2308" x1="173.543" y1="312.759" x2="275.598" y2="347.561" gradientUnits="userSpaceOnUse">
<stop stop-color="#5C5C59"/>
<stop offset="1" stop-color="#5C5C59" stop-opacity="0"/>
</linearGradient>
<linearGradient id="paint2_linear_276_2308" x1="269" y1="329" x2="167.858" y2="299.675" gradientUnits="userSpaceOnUse">
<stop stop-color="#A0E8CF"/>
<stop offset="1" stop-color="#9681FA"/>
</linearGradient>
<clipPath id="clip0_276_2308">
<rect width="35.7551" height="58.5982" fill="white" transform="translate(31.1387 430.723) rotate(-65.3425)"/>
</clipPath>
<clipPath id="clip1_276_2308">
<rect width="33.631" height="55.1171" fill="white" transform="translate(183.896 341.064) rotate(-79.809)"/>
</clipPath>
</defs>
</svg>
