<svg width="25" height="24" viewBox="0 0 25 24" fill="none" xmlns="http://www.w3.org/2000/svg">
<path d="M9.78222 20.7714V17.7047C9.7822 16.9246 10.4181 16.2908 11.206 16.2856H14.0921C14.8837 16.2856 15.5255 16.9209 15.5255 17.7047V17.7047V20.7809C15.5253 21.4432 16.0593 21.9845 16.728 22H18.6521C20.5701 22 22.125 20.4607 22.125 18.5618V18.5618V9.83784C22.1148 9.09083 21.7605 8.38935 21.163 7.93303L14.5827 2.6853C13.4299 1.77157 11.7912 1.77157 10.6384 2.6853L4.08703 7.94256C3.48726 8.39702 3.13239 9.09967 3.125 9.84736V18.5618C3.125 20.4607 4.67988 22 6.59791 22H8.52196C9.20735 22 9.76297 21.4499 9.76297 20.7714V20.7714" stroke="#9E9E9E" stroke-width="1.5" stroke-linecap="round" stroke-linejoin="round"/>
</svg>
