<svg width="37" height="37" viewBox="0 0 37 37" fill="none" xmlns="http://www.w3.org/2000/svg">
<path fill-rule="evenodd" clip-rule="evenodd" d="M26.5031 11.1057V13.4082C29.1082 14.2155 31.0062 16.5567 31.0062 19.3531V26.7662C31.0062 30.2281 28.1153 33.0349 24.5512 33.0349H11.7503C8.18467 33.0349 5.29375 30.2281 5.29375 26.7662V19.3531C5.29375 16.5567 7.19337 14.2155 9.79689 13.4082V11.1057C9.81226 6.62919 13.547 3.00317 18.1269 3.00317C22.7684 3.00317 26.5031 6.62919 26.5031 11.1057ZM18.1577 5.6145C21.2776 5.6145 23.8135 8.07661 23.8135 11.1057V13.0844H12.4865V11.0759C12.5019 8.06169 15.0378 5.6145 18.1577 5.6145ZM19.4948 24.7085C19.4948 25.4397 18.8954 26.0216 18.1423 26.0216C17.4046 26.0216 16.8052 25.4397 16.8052 24.7085V21.3959C16.8052 20.6796 17.4046 20.0977 18.1423 20.0977C18.8954 20.0977 19.4948 20.6796 19.4948 21.3959V24.7085Z" fill="#9E9E9E"/>
</svg>
