<svg width="24" height="24" viewBox="0 0 24 24" fill="none" xmlns="http://www.w3.org/2000/svg">
<g id="Mask Group">
<mask id="mask0_205_570" style="mask-type:luminance" maskUnits="userSpaceOnUse" x="0" y="0" width="24" height="24">
<path id="Vector" fill-rule="evenodd" clip-rule="evenodd" d="M0.333496 0.500488H23.0823V23.2493H0.333496V0.500488Z" fill="white"/>
</mask>
<g mask="url(#mask0_205_570)">
<path id="Exclude" fill-rule="evenodd" clip-rule="evenodd" d="M10.6059 14.2875L14.8724 21.2093C15.0591 21.5126 15.3508 21.5091 15.4686 21.4928C15.5864 21.4765 15.8699 21.4041 15.9726 21.06L21.3078 3.04081C21.4011 2.72231 21.2296 2.50531 21.1526 2.42831C21.0779 2.35131 20.8644 2.18681 20.5553 2.27432L2.52327 7.55465C2.18143 7.65498 2.10677 7.94198 2.09043 8.05981C2.0741 8.17998 2.06943 8.47748 2.3716 8.66765L9.37277 13.0461L15.5584 6.79515C15.8979 6.45215 16.4521 6.44865 16.7963 6.78815C17.1404 7.12765 17.1428 7.68298 16.8033 8.02598L10.6059 14.2875ZM15.3776 23.2498C14.5656 23.2498 13.8213 22.8368 13.3826 22.1275L8.85943 14.788L1.4441 10.1505C0.644932 9.64998 0.227265 8.75865 0.356765 7.82181C0.485099 6.88498 1.12793 6.14065 2.03093 5.87581L20.0629 0.595482C20.8924 0.352815 21.7814 0.582648 22.3928 1.19165C23.0041 1.80648 23.2316 2.70481 22.9843 3.53781L17.6491 21.5558C17.3819 22.4623 16.6353 23.1028 15.7008 23.2276C15.5911 23.2416 15.4849 23.2498 15.3776 23.2498Z" fill="white"/>
</g>
</g>
</svg>
