<svg width="20" height="20" viewBox="0 0 20 20" fill="none" xmlns="http://www.w3.org/2000/svg">
<path fill-rule="evenodd" clip-rule="evenodd" d="M1.66666 10.0125C1.66666 5.62261 5.17499 1.66667 10.0167 1.66667C14.75 1.66667 18.3333 5.54749 18.3333 9.98749C18.3333 15.1369 14.1333 18.3333 9.99999 18.3333C8.63332 18.3333 7.11666 17.9661 5.89999 17.2484C5.47499 16.9897 5.11666 16.7977 4.65832 16.9479L2.97499 17.4487C2.54999 17.5822 2.16666 17.2484 2.29166 16.7977L2.84999 14.9282C2.94166 14.6695 2.92499 14.3941 2.79166 14.1771C2.07499 12.8585 1.66666 11.4146 1.66666 10.0125ZM8.91666 10.0125C8.91666 10.6051 9.39166 11.0808 9.98332 11.0891C10.575 11.0891 11.05 10.6051 11.05 10.0209C11.05 9.42831 10.575 8.9526 9.98332 8.9526C9.39999 8.94425 8.91666 9.42831 8.91666 10.0125ZM12.7583 10.0209C12.7583 10.6051 13.2333 11.0891 13.825 11.0891C14.4167 11.0891 14.8917 10.6051 14.8917 10.0209C14.8917 9.42831 14.4167 8.9526 13.825 8.9526C13.2333 8.9526 12.7583 9.42831 12.7583 10.0209ZM6.14166 11.0891C5.55832 11.0891 5.07499 10.6051 5.07499 10.0209C5.07499 9.42831 5.54999 8.9526 6.14166 8.9526C6.73332 8.9526 7.20832 9.42831 7.20832 10.0209C7.20832 10.6051 6.73332 11.0808 6.14166 11.0891Z" fill="#6949FF"/>
</svg>
