<svg width="186" height="180" viewBox="0 0 186 180" fill="none" xmlns="http://www.w3.org/2000/svg">
<circle cx="95.4668" cy="90.5" r="70.5" fill="url(#paint0_linear_153_5764)"/>
<circle cx="178.433" cy="27.5" r="7.5" fill="#A592FF"/>
<circle cx="20" cy="10" r="10" fill="#A592FF"/>
<circle cx="10" cy="133" r="5" fill="#A592FF"/>
<circle cx="165.5" cy="160.5" r="2.5" fill="#A592FF"/>
<path fill-rule="evenodd" clip-rule="evenodd" d="M84.8225 65.9164H106.136C114.47 65.9164 120.05 71.7672 120.05 80.4697V100.557C120.05 109.232 114.47 115.083 106.136 115.083H84.8225C76.4887 115.083 70.8837 109.232 70.8837 100.557V80.4697C70.8837 71.7672 76.4887 65.9164 84.8225 65.9164ZM94.0658 97.8502L105.743 86.1731C106.579 85.3372 106.579 83.9852 105.743 83.1247C104.907 82.2889 103.53 82.2889 102.695 83.1247L92.5416 93.2777L88.2396 88.9756C87.4037 88.1397 86.0271 88.1397 85.1912 88.9756C84.3554 89.8114 84.3554 91.1635 85.1912 92.0239L91.0421 97.8502C91.46 98.2681 92.0008 98.4647 92.5416 98.4647C93.107 98.4647 93.6479 98.2681 94.0658 97.8502Z" fill="white"/>
<circle cx="106.5" cy="4.5" r="2.5" fill="#A592FF"/>
<circle cx="62.5" cy="176.5" r="3.5" fill="#A592FF"/>
<circle cx="122" cy="171" r="1" fill="#A592FF"/>
<circle cx="170.5" cy="110.5" r="2.5" fill="#A592FF"/>
<circle cx="1" cy="75" r="1" fill="#A592FF"/>
<defs>
<linearGradient id="paint0_linear_153_5764" x1="165.967" y1="161" x2="-1.81054" y2="112.355" gradientUnits="userSpaceOnUse">
<stop stop-color="#6949FF"/>
<stop offset="1" stop-color="#876DFF"/>
</linearGradient>
</defs>
</svg>
