<svg width="28" height="28" viewBox="0 0 28 28" fill="none" xmlns="http://www.w3.org/2000/svg">
<mask id="mask0_285_459" style="mask-type:luminance" maskUnits="userSpaceOnUse" x="2" y="2" width="23" height="25">
<path fill-rule="evenodd" clip-rule="evenodd" d="M2.3335 2.33334H24.8325V26.5078H2.3335V2.33334Z" fill="white"/>
</mask>
<g mask="url(#mask0_285_459)">
<path fill-rule="evenodd" clip-rule="evenodd" d="M8.40287 20.3467C8.67004 20.3467 8.9372 20.3805 9.19854 20.4505C9.9872 20.6628 10.672 21.1902 11.078 21.8983C11.3417 22.3428 11.4875 22.862 11.4922 23.3917C11.4922 24.15 12.1012 24.7578 12.8502 24.7578H14.312C15.0575 24.7578 15.6665 24.1535 15.67 23.408C15.6654 22.5843 15.9874 21.8015 16.5765 21.2123C17.1575 20.6313 17.9695 20.2825 18.7815 20.3058C19.3135 20.3187 19.8257 20.4622 20.2772 20.7188C20.927 21.091 21.7565 20.8693 22.1322 20.2277L22.9069 18.9362C23.0795 18.6387 23.1297 18.2653 23.0375 17.9212C22.9465 17.577 22.7179 17.2783 22.4099 17.1022C21.6889 16.6868 21.1744 16.0172 20.9609 15.2145C20.7497 14.427 20.8652 13.5672 21.277 12.859C21.5454 12.3923 21.9385 11.9992 22.4099 11.7285C23.0422 11.3587 23.2639 10.5315 22.8964 9.88751C22.8812 9.86184 22.8672 9.83501 22.8555 9.80701L22.1719 8.62168C21.7997 7.97418 20.9714 7.75134 20.3215 8.12118C19.6192 8.53651 18.7839 8.65551 17.9812 8.44434C17.1797 8.23668 16.5077 7.72918 16.0889 7.01284C15.8205 6.56484 15.6747 6.04334 15.67 5.51251C15.6805 5.11351 15.5405 4.75534 15.2862 4.49284C15.033 4.23151 14.6772 4.08334 14.312 4.08334H12.8502C12.4885 4.08334 12.1502 4.22451 11.8947 4.47884C11.6404 4.73434 11.5015 5.07384 11.5039 5.43551C11.4794 7.14118 10.0852 8.51434 8.39704 8.51434C7.8557 8.50851 7.3342 8.36268 6.88154 8.09201C6.2457 7.73034 5.41504 7.95318 5.04287 8.60068L4.25304 9.89918C3.89137 10.5268 4.11304 11.3563 4.75704 11.7308C5.71254 12.2838 6.3087 13.3152 6.3087 14.4212C6.3087 15.5272 5.71254 16.5573 4.7547 17.1115C4.1142 17.4825 3.89254 18.3073 4.26354 18.949L4.9997 20.2183C5.1817 20.5462 5.4792 20.783 5.82337 20.8798C6.16637 20.9755 6.54437 20.9347 6.85937 20.7597C7.32254 20.4878 7.86154 20.3467 8.40287 20.3467M14.312 26.5078H12.8502C11.1364 26.5078 9.7422 25.1148 9.7422 23.401C9.73987 23.1898 9.6792 22.9705 9.56604 22.7803C9.38287 22.4607 9.08654 22.232 8.7447 22.141C8.4052 22.05 8.03304 22.1002 7.72737 22.2775C6.9947 22.6858 6.13254 22.785 5.34387 22.5633C4.55637 22.3405 3.8762 21.7992 3.4772 21.0817L2.74804 19.8252C1.8952 18.3458 2.4027 16.45 3.8797 15.596C4.29854 15.3545 4.5587 14.9042 4.5587 14.4212C4.5587 13.9382 4.29854 13.4867 3.8797 13.2452C2.40154 12.3865 1.8952 10.486 2.74687 9.00668L3.53787 7.70818C4.37904 6.24518 6.2807 5.72951 7.76354 6.58118C7.96537 6.70134 8.1847 6.76201 8.40754 6.76434C9.13437 6.76434 9.7422 6.16468 9.75387 5.42734C9.7492 4.61418 10.07 3.83368 10.6545 3.24451C11.2414 2.65651 12.0207 2.33334 12.8502 2.33334H14.312C15.1474 2.33334 15.9594 2.67634 16.5415 3.27251C17.1225 3.87218 17.4434 4.69468 17.4189 5.52884C17.4212 5.71668 17.483 5.93368 17.595 6.12384C17.7805 6.43884 18.0734 6.66051 18.421 6.75151C18.7687 6.83784 19.1327 6.79118 19.4419 6.60801C20.9352 5.75518 22.8357 6.26618 23.6885 7.74784L24.4154 9.00668C24.434 9.04051 24.4504 9.07318 24.4644 9.10701C25.2367 10.5665 24.721 12.404 23.286 13.2428C23.0772 13.363 22.908 13.531 22.7914 13.734C22.6105 14.0478 22.5604 14.4212 22.6514 14.7642C22.7447 15.1142 22.9675 15.4047 23.2814 15.5843C23.9895 15.9915 24.518 16.6775 24.7292 17.4697C24.9404 18.2607 24.8249 19.1193 24.413 19.8275L23.6384 21.1178C22.7855 22.5832 20.885 23.0907 19.4069 22.2367C19.2097 22.1235 18.9822 22.0617 18.7559 22.0558H18.7489C18.4117 22.0558 18.0652 22.1993 17.8132 22.4502C17.5577 22.7057 17.4177 23.0463 17.42 23.408C17.4119 25.1218 16.0177 26.5078 14.312 26.5078" fill="#212121"/>
</g>
<path fill-rule="evenodd" clip-rule="evenodd" d="M13.5861 12.2198C12.3727 12.2198 11.3857 13.208 11.3857 14.4213C11.3857 15.6346 12.3727 16.6205 13.5861 16.6205C14.7994 16.6205 15.7864 15.6346 15.7864 14.4213C15.7864 13.208 14.7994 12.2198 13.5861 12.2198M13.5861 18.3705C11.4079 18.3705 9.63574 16.5995 9.63574 14.4213C9.63574 12.2431 11.4079 10.4698 13.5861 10.4698C15.7642 10.4698 17.5364 12.2431 17.5364 14.4213C17.5364 16.5995 15.7642 18.3705 13.5861 18.3705" fill="#212121"/>
</svg>
