<svg width="17" height="15" viewBox="0 0 17 15" fill="none" xmlns="http://www.w3.org/2000/svg">
<g id="Group">
<path id="Vector" d="M-0.000488281 7.72571C-0.000488281 7.34601 0.281666 7.03222 0.647741 6.98255L0.749512 6.97571L15.7495 6.97571C16.1637 6.97571 16.4995 7.31149 16.4995 7.72571C16.4995 8.1054 16.2174 8.4192 15.8513 8.46886L15.7495 8.47571L0.749512 8.47571C0.335298 8.47571 -0.000488281 8.13992 -0.000488281 7.72571Z" fill="black"/>
<path id="Vector_2" d="M9.17101 2.23277C8.87749 1.94051 8.87646 1.46564 9.16872 1.17212C9.43442 0.905277 9.85103 0.880175 10.1451 1.0974L10.2294 1.16983L16.2794 7.19383C16.547 7.46032 16.5714 7.87843 16.3524 8.17251L16.2794 8.25673L10.2294 14.2817C9.93593 14.574 9.46105 14.573 9.16877 14.2795C8.90305 14.0127 8.87971 13.596 9.09817 13.3028L9.17096 13.2189L14.687 7.725L9.17101 2.23277Z" fill="black"/>
</g>
</svg>
