<svg width="28" height="28" viewBox="0 0 28 28" fill="none" xmlns="http://www.w3.org/2000/svg">
<mask id="mask0_178_820" style="mask-type:luminance" maskUnits="userSpaceOnUse" x="2" y="3" width="24" height="24">
<path fill-rule="evenodd" clip-rule="evenodd" d="M2.33337 3.50047H25.0822V26.2493H2.33337V3.50047Z" fill="white"/>
</mask>
<g mask="url(#mask0_178_820)">
<path fill-rule="evenodd" clip-rule="evenodd" d="M12.6058 17.2874L16.8723 24.2093C17.059 24.5126 17.3506 24.5091 17.4685 24.4928C17.5863 24.4764 17.8698 24.4041 17.9725 24.0599L23.3076 6.04077C23.401 5.72227 23.2295 5.50527 23.1525 5.42827C23.0778 5.35127 22.8643 5.18677 22.5551 5.27427L4.52314 10.5546C4.18131 10.6549 4.10664 10.9419 4.09031 11.0598C4.07398 11.1799 4.06931 11.4774 4.37148 11.6676L11.3726 16.0461L17.5583 9.7951C17.8978 9.4521 18.452 9.4486 18.7961 9.7881C19.1403 10.1276 19.1426 10.6829 18.8031 11.0259L12.6058 17.2874ZM17.3775 26.2498C16.5655 26.2498 15.8211 25.8368 15.3825 25.1274L10.8593 17.7879L3.44398 13.1504C2.64481 12.6499 2.22714 11.7586 2.35664 10.8218C2.48498 9.88494 3.12781 9.1406 4.03081 8.87577L22.0628 3.59544C22.8923 3.35277 23.7813 3.5826 24.3926 4.1916C25.004 4.80644 25.2315 5.70477 24.9841 6.53777L19.649 24.5558C19.3818 25.4623 18.6351 26.1028 17.7006 26.2276C17.591 26.2416 17.4848 26.2498 17.3775 26.2498Z" fill="white"/>
</g>
</svg>
