<svg xmlns="http://www.w3.org/2000/svg" width="34" height="34" viewBox="0 0 34 34" fill="none">
  <path fill-rule="evenodd" clip-rule="evenodd" d="M17 0.5C13.2671 0.5 12.9141 7.00196 10.6917 9.29922C8.46929 11.5965 1.56003 8.96985 0.600076 13.0474C-0.357863 17.127 5.85765 18.5112 6.624 22.0113C7.39438 25.5114 3.59691 30.429 6.8418 32.8764C10.0867 35.3216 13.5796 29.787 17 29.787C20.4203 29.787 23.9133 35.3216 27.1582 32.8764C30.4031 30.429 26.6076 25.5114 27.376 22.0113C28.1443 18.5112 34.3578 17.127 33.3999 13.0474C32.442 8.96985 25.5307 11.5965 23.3103 9.29922C21.0879 7.00196 20.7329 0.5 17 0.5Z" fill="url(#paint0_linear_220_899)" stroke="url(#paint1_linear_220_899)" stroke-linecap="round" stroke-linejoin="round"/>
  <defs>
    <linearGradient id="paint0_linear_220_899" x1="25.5" y1="11.5" x2="12.5" y2="28.5" gradientUnits="userSpaceOnUse">
      <stop stop-color="#6949FF"/>
      <stop offset="1" stop-color="#876DFF"/>
    </linearGradient>
    <linearGradient id="paint1_linear_220_899" x1="17" y1="0.5" x2="17" y2="33.5" gradientUnits="userSpaceOnUse">
      <stop stop-color="#6949FF"/>
      <stop offset="1" stop-color="#876DFF"/>
    </linearGradient>
  </defs>
</svg>