<svg width="68" height="12" viewBox="0 0 68 12" fill="none" xmlns="http://www.w3.org/2000/svg">
<path opacity="0.35" d="M43.4998 3.00004C43.4998 1.80342 44.4698 0.833374 45.6664 0.833374H62.3331C63.5297 0.833374 64.4998 1.80342 64.4998 3.00004V9.00004C64.4998 10.1967 63.5297 11.1667 62.3331 11.1667H45.6664C44.4698 11.1667 43.4998 10.1967 43.4998 9.00004V3.00004Z" fill="white" stroke="white"/>
<path opacity="0.4" d="M65.9998 4.00004V8.00004C66.8045 7.66126 67.3278 6.87317 67.3278 6.00004C67.3278 5.1269 66.8045 4.33881 65.9998 4.00004Z" fill="white"/>
<path d="M44.9998 3.66671C44.9998 2.93033 45.5967 2.33337 46.3331 2.33337H61.6664C62.4028 2.33337 62.9998 2.93033 62.9998 3.66671V8.33337C62.9998 9.06975 62.4028 9.66671 61.6664 9.66671H46.3331C45.5967 9.66671 44.9998 9.06975 44.9998 8.33337V3.66671Z" fill="white"/>
<path fill-rule="evenodd" clip-rule="evenodd" d="M30.3302 2.60802C32.5461 2.60811 34.6773 3.45955 36.2832 4.98635C36.4041 5.10422 36.5974 5.10274 36.7165 4.98302L37.8725 3.81635C37.9329 3.75563 37.9665 3.67338 37.966 3.5878C37.9655 3.50221 37.9309 3.42036 37.8699 3.36035C33.6548 -0.679198 27.005 -0.679198 22.7899 3.36035C22.7288 3.42032 22.6942 3.50215 22.6936 3.58773C22.693 3.67331 22.7266 3.75558 22.7869 3.81635L23.9432 4.98302C24.0622 5.10292 24.2557 5.10441 24.3765 4.98635C25.9827 3.45945 28.1141 2.60801 30.3302 2.60802ZM30.3302 6.40368C31.5477 6.40361 32.7217 6.85614 33.6242 7.67335C33.7463 7.78933 33.9385 7.78682 34.0575 7.66768L35.2122 6.50102C35.273 6.43982 35.3067 6.3568 35.3059 6.27054C35.305 6.18428 35.2696 6.10196 35.2075 6.04202C32.4593 3.48563 28.2034 3.48563 25.4552 6.04202C25.3931 6.10196 25.3577 6.18432 25.3569 6.27061C25.3561 6.3569 25.3899 6.43991 25.4509 6.50102L26.6052 7.66768C26.7242 7.78682 26.9165 7.78933 27.0385 7.67335C27.9404 6.85668 29.1135 6.40419 30.3302 6.40368ZM32.6432 8.9575C32.645 9.04401 32.611 9.12741 32.5492 9.18801L30.5519 11.2037C30.4933 11.2629 30.4135 11.2963 30.3302 11.2963C30.2469 11.2963 30.1671 11.2629 30.1085 11.2037L28.1109 9.18801C28.0492 9.12736 28.0152 9.04394 28.017 8.95743C28.0189 8.87092 28.0563 8.789 28.1205 8.73102C29.3961 7.65213 31.2643 7.65213 32.5399 8.73102C32.604 8.78905 32.6414 8.87099 32.6432 8.9575Z" fill="white"/>
<path fill-rule="evenodd" clip-rule="evenodd" d="M16.6665 0.666626H15.6665C15.1142 0.666626 14.6665 1.11434 14.6665 1.66663V10.3333C14.6665 10.8856 15.1142 11.3333 15.6665 11.3333H16.6665C17.2188 11.3333 17.6665 10.8856 17.6665 10.3333V1.66663C17.6665 1.11434 17.2188 0.666626 16.6665 0.666626ZM10.9998 2.99996H11.9998C12.5521 2.99996 12.9998 3.44768 12.9998 3.99996V10.3333C12.9998 10.8856 12.5521 11.3333 11.9998 11.3333H10.9998C10.4476 11.3333 9.99985 10.8856 9.99985 10.3333V3.99996C9.99985 3.44768 10.4476 2.99996 10.9998 2.99996ZM7.33316 5.33329H6.33316C5.78088 5.33329 5.33316 5.78101 5.33316 6.33329V10.3333C5.33316 10.8856 5.78088 11.3333 6.33316 11.3333H7.33316C7.88545 11.3333 8.33316 10.8856 8.33316 10.3333V6.33329C8.33316 5.78101 7.88545 5.33329 7.33316 5.33329ZM2.6665 7.33329H1.6665C1.11422 7.33329 0.666504 7.78101 0.666504 8.33329V10.3333C0.666504 10.8856 1.11422 11.3333 1.6665 11.3333H2.6665C3.21879 11.3333 3.6665 10.8856 3.6665 10.3333V8.33329C3.6665 7.78101 3.21879 7.33329 2.6665 7.33329Z" fill="white"/>
</svg>