<svg width="44" height="44" viewBox="0 0 44 44" fill="none" xmlns="http://www.w3.org/2000/svg">
<path fill-rule="evenodd" clip-rule="evenodd" d="M16.3639 30.0483H26.2385C26.9827 30.0483 27.5998 29.425 27.5998 28.6733C27.5998 27.9217 26.9827 27.3167 26.2385 27.3167H16.3639C15.6196 27.3167 15.0025 27.9217 15.0025 28.6733C15.0025 29.425 15.6196 30.0483 16.3639 30.0483ZM22.4992 18.15H16.3639C15.6196 18.15 15.0025 18.7733 15.0025 19.525C15.0025 20.2767 15.6196 20.8817 16.3639 20.8817H22.4992C23.2434 20.8817 23.8606 20.2767 23.8606 19.525C23.8606 18.7733 23.2434 18.15 22.4992 18.15ZM35.4531 16.547C35.8798 16.542 36.3444 16.5367 36.7665 16.5367C37.2203 16.5367 37.5833 16.9033 37.5833 17.3617V32.1017C37.5833 36.6483 33.9348 40.3333 29.4332 40.3333H14.9843C10.2649 40.3333 6.41667 36.465 6.41667 31.6983V11.935C6.41667 7.38834 10.0833 3.66667 14.6031 3.66667H24.2962C24.7682 3.66667 25.1312 4.05167 25.1312 4.51001V10.4133C25.1312 13.7683 27.8721 16.5183 31.1939 16.5367C31.9698 16.5367 32.6538 16.5425 33.2524 16.5475C33.7182 16.5515 34.1322 16.555 34.4975 16.555C34.7559 16.555 35.0909 16.5511 35.4531 16.547ZM35.9537 13.871C34.4616 13.8765 32.7027 13.871 31.4375 13.8582C29.4299 13.8582 27.7763 12.188 27.7763 10.1603V5.32767C27.7763 4.5375 28.7256 4.14517 29.2684 4.71534C30.2508 5.74705 31.6008 7.16525 32.9447 8.57695C34.285 9.98488 35.6191 11.3864 36.5763 12.3915C37.1063 12.947 36.7179 13.8692 35.9537 13.871Z" fill="url(#paint0_linear_153_5747)"/>
<defs>
<linearGradient id="paint0_linear_153_5747" x1="37.5833" y1="40.3333" x2="-0.317799" y2="30.9926" gradientUnits="userSpaceOnUse">
<stop stop-color="#6949FF"/>
<stop offset="1" stop-color="#876DFF"/>
</linearGradient>
</defs>
</svg>
