<svg width="120" height="120" viewBox="0 0 120 120" fill="none" xmlns="http://www.w3.org/2000/svg">
<circle cx="59.5154" cy="59.8196" r="52.7273" transform="rotate(-7.95273 59.5154 59.8196)" fill="url(#paint0_linear_286_2677)"/>
<path d="M59.8701 59.6183C61.5597 66.475 66.2318 71.0553 70.3088 69.8476C74.3841 68.6447 76.3221 62.1131 74.6325 55.2564C72.9465 48.4034 68.2744 43.8231 64.1964 45.0265C60.1194 46.2342 58.1841 52.7653 59.8701 59.6183Z" fill="white"/>
<path d="M71.6538 61.5461C71.381 62.526 70.6941 62.8748 70.1182 62.3332C69.5414 61.7873 69.2936 60.5559 69.5647 59.5809C69.8375 58.601 70.5245 58.2522 71.1003 58.7938C71.6772 59.3397 71.925 60.5711 71.6538 61.5461ZM66.422 56.6959C65.9518 58.382 64.7639 58.9892 63.7677 58.0479C62.7724 57.1109 62.3442 54.9807 62.8134 53.2903C63.2809 51.6047 64.4688 50.9975 65.4667 51.9339C66.463 52.8752 66.8911 55.0054 66.422 56.6959ZM72.3316 55.9352C71.1689 51.2142 67.9512 48.0614 65.1423 48.8924C62.3325 49.7192 61.0003 54.2192 62.1631 58.9403C63.3259 63.6613 66.5444 66.8184 69.3533 65.9874C72.1596 65.1569 73.4944 60.6563 72.3316 55.9352Z" fill="#133441"/>
<path d="M90.9888 52.8101C92.6784 59.6668 97.3504 64.2471 101.427 63.0394C105.503 61.8365 107.441 55.3049 105.751 48.4482C104.065 41.5952 99.393 37.0149 95.315 38.2183C91.238 39.4261 89.3027 45.9571 90.9888 52.8101Z" fill="white"/>
<path d="M103.051 54.3523C102.78 55.3273 102.091 55.6809 101.515 55.1393C100.939 54.5934 100.693 53.3614 100.964 52.3821C101.235 51.4071 101.921 51.054 102.498 51.5999C103.073 52.1416 103.322 53.3772 103.051 54.3523ZM97.5004 49.3688C96.8848 50.8973 95.624 51.2453 94.6826 50.1341C93.7447 49.0266 93.4824 46.8873 94.097 45.3544C94.7142 43.821 95.9734 43.4779 96.9138 44.5848C97.8543 45.6917 98.1176 47.8354 97.5004 49.3688ZM103.451 49.127C102.288 44.406 99.0701 41.2532 96.2613 42.0842C93.454 42.9104 92.1192 47.411 93.282 52.1321C94.4422 56.8537 97.6633 60.0102 100.472 59.1792C103.278 58.3487 104.613 53.8481 103.451 49.127Z" fill="#133441"/>
<defs>
<linearGradient id="paint0_linear_286_2677" x1="112.243" y1="112.547" x2="-13.2389" y2="76.1647" gradientUnits="userSpaceOnUse">
<stop stop-color="#A0E8CF"/>
<stop offset="1" stop-color="#9681FA"/>
</linearGradient>
</defs>
</svg>
