<svg width="337" height="86" viewBox="0 0 337 86" fill="none" xmlns="http://www.w3.org/2000/svg">
<path d="M10.952 36.256C10.2907 36.256 9.77867 36.0747 9.416 35.712C9.07467 35.328 8.904 34.8053 8.904 34.144V16.864H2.664C2.10933 16.864 1.672 16.7147 1.352 16.416C1.05333 16.096 0.904 15.6693 0.904 15.136C0.904 14.5813 1.05333 14.1653 1.352 13.888C1.672 13.5893 2.10933 13.44 2.664 13.44H19.24C19.7947 13.44 20.2213 13.5893 20.52 13.888C20.84 14.1653 21 14.5813 21 15.136C21 15.6693 20.84 16.096 20.52 16.416C20.2213 16.7147 19.7947 16.864 19.24 16.864H13V34.144C13 34.8053 12.8293 35.328 12.488 35.712C12.1467 36.0747 11.6347 36.256 10.952 36.256ZM27.591 36.32C25.9697 36.32 24.5617 35.9893 23.367 35.328C22.1723 34.6667 21.2443 33.728 20.583 32.512C19.9217 31.2747 19.591 29.824 19.591 28.16C19.591 26.9013 19.7723 25.7813 20.135 24.8C20.519 23.7973 21.063 22.944 21.767 22.24C22.471 21.5147 23.3137 20.9707 24.295 20.608C25.2763 20.224 26.375 20.032 27.591 20.032C29.2123 20.032 30.6203 20.3627 31.815 21.024C33.0097 21.6853 33.9377 22.624 34.599 23.84C35.2603 25.056 35.591 26.496 35.591 28.16C35.591 29.4187 35.399 30.5493 35.015 31.552C34.6523 32.5547 34.119 33.4187 33.415 34.144C32.711 34.848 31.8683 35.392 30.887 35.776C29.9057 36.1387 28.807 36.32 27.591 36.32ZM27.591 33.28C28.3803 33.28 29.0737 33.088 29.671 32.704C30.2683 32.32 30.727 31.7547 31.047 31.008C31.3883 30.24 31.559 29.2907 31.559 28.16C31.559 26.4533 31.1963 25.184 30.471 24.352C29.7457 23.4987 28.7857 23.072 27.591 23.072C26.8017 23.072 26.1083 23.264 25.511 23.648C24.9137 24.0107 24.4443 24.576 24.103 25.344C23.783 26.0907 23.623 27.0293 23.623 28.16C23.623 29.8453 23.9857 31.1253 24.711 32C25.4363 32.8533 26.3963 33.28 27.591 33.28ZM40.8765 42.016C40.2365 42.016 39.7458 41.8453 39.4045 41.504C39.0632 41.1627 38.8925 40.6613 38.8925 40V22.112C38.8925 21.4507 39.0632 20.9493 39.4045 20.608C39.7458 20.2667 40.2258 20.096 40.8445 20.096C41.4845 20.096 41.9752 20.2667 42.3165 20.608C42.6578 20.9493 42.8285 21.4507 42.8285 22.112V24.608L42.4765 23.648C42.7965 22.56 43.4472 21.6853 44.4285 21.024C45.4312 20.3627 46.5938 20.032 47.9165 20.032C49.2818 20.032 50.4765 20.3627 51.5005 21.024C52.5458 21.6853 53.3565 22.624 53.9325 23.84C54.5085 25.0347 54.7965 26.4747 54.7965 28.16C54.7965 29.824 54.5085 31.2747 53.9325 32.512C53.3565 33.728 52.5565 34.6667 51.5325 35.328C50.5085 35.9893 49.3032 36.32 47.9165 36.32C46.6152 36.32 45.4738 36 44.4925 35.36C43.5112 34.6987 42.8498 33.8453 42.5085 32.8H42.8925V40C42.8925 40.6613 42.7112 41.1627 42.3485 41.504C42.0072 41.8453 41.5165 42.016 40.8765 42.016ZM46.7965 33.28C47.5858 33.28 48.2792 33.088 48.8765 32.704C49.4738 32.32 49.9325 31.7547 50.2525 31.008C50.5938 30.24 50.7645 29.2907 50.7645 28.16C50.7645 26.4533 50.4018 25.184 49.6765 24.352C48.9512 23.4987 47.9912 23.072 46.7965 23.072C46.0072 23.072 45.3138 23.264 44.7165 23.648C44.1192 24.0107 43.6498 24.576 43.3085 25.344C42.9885 26.0907 42.8285 27.0293 42.8285 28.16C42.8285 29.8453 43.1912 31.1253 43.9165 32C44.6418 32.8533 45.6018 33.28 46.7965 33.28ZM60.064 36.224C59.424 36.224 58.9333 36.032 58.592 35.648C58.2507 35.264 58.08 34.7307 58.08 34.048V22.304C58.08 21.6 58.2507 21.0667 58.592 20.704C58.9333 20.32 59.424 20.128 60.064 20.128C60.704 20.128 61.1947 20.32 61.536 20.704C61.8987 21.0667 62.08 21.6 62.08 22.304V34.048C62.08 34.7307 61.9093 35.264 61.568 35.648C61.2267 36.032 60.7253 36.224 60.064 36.224ZM60.064 17.152C59.3173 17.152 58.7307 16.9707 58.304 16.608C57.8987 16.224 57.696 15.7013 57.696 15.04C57.696 14.3573 57.8987 13.8347 58.304 13.472C58.7307 13.1093 59.3173 12.928 60.064 12.928C60.832 12.928 61.4187 13.1093 61.824 13.472C62.2293 13.8347 62.432 14.3573 62.432 15.04C62.432 15.7013 62.2293 16.224 61.824 16.608C61.4187 16.9707 60.832 17.152 60.064 17.152ZM73.4683 36.32C71.8256 36.32 70.3963 35.9893 69.1803 35.328C67.9643 34.6453 67.0256 33.6853 66.3643 32.448C65.7029 31.2107 65.3723 29.76 65.3723 28.096C65.3723 26.8373 65.5536 25.7173 65.9163 24.736C66.3003 23.7333 66.8443 22.8907 67.5483 22.208C68.2523 21.504 69.1056 20.9707 70.1083 20.608C71.1109 20.224 72.2309 20.032 73.4683 20.032C74.1723 20.032 74.9296 20.128 75.7403 20.32C76.5723 20.512 77.3509 20.832 78.0763 21.28C78.4176 21.4933 78.6416 21.7493 78.7483 22.048C78.8549 22.3467 78.8763 22.656 78.8123 22.976C78.7483 23.2747 78.6096 23.5413 78.3963 23.776C78.2043 23.9893 77.9589 24.128 77.6603 24.192C77.3616 24.2347 77.0309 24.16 76.6683 23.968C76.1989 23.6907 75.7189 23.488 75.2283 23.36C74.7376 23.2107 74.2683 23.136 73.8203 23.136C73.1163 23.136 72.4976 23.2533 71.9643 23.488C71.4309 23.7013 70.9723 24.0213 70.5883 24.448C70.2256 24.8533 69.9483 25.3653 69.7563 25.984C69.5643 26.6027 69.4683 27.3173 69.4683 28.128C69.4683 29.7067 69.8416 30.9547 70.5883 31.872C71.3563 32.768 72.4336 33.216 73.8203 33.216C74.2683 33.216 74.7269 33.152 75.1963 33.024C75.6869 32.896 76.1776 32.6933 76.6683 32.416C77.0309 32.224 77.3509 32.16 77.6283 32.224C77.9269 32.288 78.1723 32.4373 78.3643 32.672C78.5563 32.8853 78.6736 33.152 78.7163 33.472C78.7589 33.7707 78.7163 34.0693 78.5883 34.368C78.4816 34.6667 78.2683 34.912 77.9483 35.104C77.2443 35.5307 76.4976 35.84 75.7083 36.032C74.9189 36.224 74.1723 36.32 73.4683 36.32ZM92.9295 36C92.3748 36 91.9375 35.8507 91.6175 35.552C91.3188 35.232 91.1695 34.8053 91.1695 34.272C91.1695 33.7173 91.3188 33.3013 91.6175 33.024C91.9375 32.7467 92.3748 32.608 92.9295 32.608H96.5135V16.896H98.4975L93.7935 19.744C93.3882 19.9787 93.0042 20.0747 92.6415 20.032C92.3002 19.968 92.0015 19.8187 91.7455 19.584C91.5108 19.328 91.3508 19.0293 91.2655 18.688C91.1802 18.3467 91.2015 18.0053 91.3295 17.664C91.4788 17.3013 91.7562 17.0027 92.1615 16.768L96.5775 14.112C97.0042 13.856 97.4308 13.6427 97.8575 13.472C98.2842 13.28 98.6788 13.184 99.0415 13.184C99.4895 13.184 99.8628 13.312 100.162 13.568C100.46 13.8027 100.61 14.1973 100.61 14.752V32.608H103.874C104.428 32.608 104.855 32.7467 105.154 33.024C105.474 33.3013 105.634 33.7173 105.634 34.272C105.634 34.8267 105.474 35.2533 105.154 35.552C104.855 35.8507 104.428 36 103.874 36H92.9295ZM111.125 36.16C110.4 36.16 109.813 35.936 109.365 35.488C108.938 35.04 108.725 34.464 108.725 33.76C108.725 33.0773 108.938 32.5227 109.365 32.096C109.813 31.648 110.4 31.424 111.125 31.424C111.872 31.424 112.448 31.648 112.853 32.096C113.28 32.5227 113.493 33.0773 113.493 33.76C113.493 34.464 113.28 35.04 112.853 35.488C112.448 35.936 111.872 36.16 111.125 36.16ZM111.125 24.928C110.4 24.928 109.813 24.704 109.365 24.256C108.938 23.808 108.725 23.2427 108.725 22.56C108.725 21.856 108.938 21.2907 109.365 20.864C109.813 20.416 110.4 20.192 111.125 20.192C111.872 20.192 112.448 20.416 112.853 20.864C113.28 21.2907 113.493 21.856 113.493 22.56C113.493 23.2427 113.28 23.808 112.853 24.256C112.448 24.704 111.872 24.928 111.125 24.928ZM8.8 74.192C8.368 74.192 8.016 74.088 7.744 73.88C7.488 73.672 7.28 73.344 7.12 72.896L2.104 58.712C1.928 58.2 1.96 57.768 2.2 57.416C2.456 57.064 2.88 56.888 3.472 56.888C3.904 56.888 4.24 56.992 4.48 57.2C4.72 57.392 4.912 57.704 5.056 58.136L9.376 70.952H8.416L12.928 58.16C13.088 57.728 13.288 57.408 13.528 57.2C13.768 56.992 14.08 56.888 14.464 56.888C14.848 56.888 15.152 56.992 15.376 57.2C15.6 57.408 15.792 57.736 15.952 58.184L20.32 70.952H19.48L23.872 58.136C24.016 57.72 24.208 57.408 24.448 57.2C24.688 56.992 25.016 56.888 25.432 56.888C25.944 56.888 26.32 57.064 26.56 57.416C26.8 57.768 26.832 58.2 26.656 58.712L21.592 72.92C21.432 73.352 21.224 73.672 20.968 73.88C20.712 74.088 20.368 74.192 19.936 74.192C19.504 74.192 19.16 74.088 18.904 73.88C18.648 73.672 18.44 73.344 18.28 72.896L14.104 60.992H14.656L10.432 72.92C10.272 73.352 10.064 73.672 9.808 73.88C9.568 74.088 9.232 74.192 8.8 74.192ZM31.9621 74.192C31.4821 74.192 31.1141 74.064 30.8581 73.808C30.6021 73.536 30.4741 73.152 30.4741 72.656V58.4C30.4741 57.904 30.6021 57.528 30.8581 57.272C31.1141 57.016 31.4821 56.888 31.9621 56.888C32.4421 56.888 32.8101 57.016 33.0661 57.272C33.3381 57.528 33.4741 57.904 33.4741 58.4V64.616H33.1381C33.4901 63.768 34.0341 63.128 34.7701 62.696C35.5221 62.248 36.3701 62.024 37.3141 62.024C38.2581 62.024 39.0341 62.2 39.6421 62.552C40.2501 62.904 40.7061 63.44 41.0101 64.16C41.3141 64.864 41.4661 65.76 41.4661 66.848V72.656C41.4661 73.152 41.3381 73.536 41.0821 73.808C40.8261 74.064 40.4581 74.192 39.9781 74.192C39.4981 74.192 39.1221 74.064 38.8501 73.808C38.5941 73.536 38.4661 73.152 38.4661 72.656V66.992C38.4661 66.08 38.2901 65.416 37.9381 65C37.6021 64.584 37.0741 64.376 36.3541 64.376C35.4741 64.376 34.7701 64.656 34.2421 65.216C33.7301 65.76 33.4741 66.488 33.4741 67.4V72.656C33.4741 73.68 32.9701 74.192 31.9621 74.192ZM48.3771 74.24C47.5291 74.24 46.7691 74.08 46.0971 73.76C45.4411 73.424 44.9211 72.976 44.5371 72.416C44.1691 71.856 43.9851 71.224 43.9851 70.52C43.9851 69.656 44.2091 68.976 44.6571 68.48C45.1051 67.968 45.8331 67.6 46.8411 67.376C47.8491 67.152 49.2011 67.04 50.8971 67.04H52.0971V68.768H50.9211C49.9291 68.768 49.1371 68.816 48.5451 68.912C47.9531 69.008 47.5291 69.176 47.2731 69.416C47.0331 69.64 46.9131 69.96 46.9131 70.376C46.9131 70.904 47.0971 71.336 47.4651 71.672C47.8331 72.008 48.3451 72.176 49.0011 72.176C49.5291 72.176 49.9931 72.056 50.3931 71.816C50.8091 71.56 51.1371 71.216 51.3771 70.784C51.6171 70.352 51.7371 69.856 51.7371 69.296V66.536C51.7371 65.736 51.5611 65.16 51.2091 64.808C50.8571 64.456 50.2651 64.28 49.4331 64.28C48.9691 64.28 48.4651 64.336 47.9211 64.448C47.3931 64.56 46.8331 64.752 46.2411 65.024C45.9371 65.168 45.6651 65.208 45.4251 65.144C45.2011 65.08 45.0251 64.952 44.8971 64.76C44.7691 64.552 44.7051 64.328 44.7051 64.088C44.7051 63.848 44.7691 63.616 44.8971 63.392C45.0251 63.152 45.2411 62.976 45.5451 62.864C46.2811 62.56 46.9851 62.344 47.6571 62.216C48.3451 62.088 48.9691 62.024 49.5291 62.024C50.6811 62.024 51.6251 62.2 52.3611 62.552C53.1131 62.904 53.6731 63.44 54.0411 64.16C54.4091 64.864 54.5931 65.776 54.5931 66.896V72.656C54.5931 73.152 54.4731 73.536 54.2331 73.808C53.9931 74.064 53.6491 74.192 53.2011 74.192C52.7531 74.192 52.4011 74.064 52.1451 73.808C51.9051 73.536 51.7851 73.152 51.7851 72.656V71.504H51.9771C51.8651 72.064 51.6411 72.552 51.3051 72.968C50.9851 73.368 50.5771 73.68 50.0811 73.904C49.5851 74.128 49.0171 74.24 48.3771 74.24ZM63.0141 74.24C61.9741 74.24 61.1021 74.064 60.3981 73.712C59.7101 73.36 59.1981 72.848 58.8621 72.176C58.5261 71.488 58.3581 70.64 58.3581 69.632V64.52H57.1101C56.7261 64.52 56.4301 64.424 56.2221 64.232C56.0141 64.024 55.9101 63.744 55.9101 63.392C55.9101 63.024 56.0141 62.744 56.2221 62.552C56.4301 62.36 56.7261 62.264 57.1101 62.264H58.3581V60.08C58.3581 59.584 58.4861 59.208 58.7421 58.952C59.0141 58.696 59.3901 58.568 59.8701 58.568C60.3501 58.568 60.7181 58.696 60.9741 58.952C61.2301 59.208 61.3581 59.584 61.3581 60.08V62.264H63.9021C64.2861 62.264 64.5821 62.36 64.7901 62.552C64.9981 62.744 65.1021 63.024 65.1021 63.392C65.1021 63.744 64.9981 64.024 64.7901 64.232C64.5821 64.424 64.2861 64.52 63.9021 64.52H61.3581V69.464C61.3581 70.232 61.5261 70.808 61.8621 71.192C62.1981 71.576 62.7421 71.768 63.4941 71.768C63.7661 71.768 64.0061 71.744 64.2141 71.696C64.4221 71.648 64.6061 71.616 64.7661 71.6C64.9581 71.584 65.1181 71.648 65.2461 71.792C65.3741 71.92 65.4381 72.192 65.4381 72.608C65.4381 72.928 65.3821 73.216 65.2701 73.472C65.1741 73.712 64.9901 73.88 64.7181 73.976C64.5101 74.04 64.2381 74.096 63.9021 74.144C63.5661 74.208 63.2701 74.24 63.0141 74.24ZM74.8527 74.168C74.3727 74.168 74.0047 74.024 73.7487 73.736C73.4927 73.448 73.3647 73.048 73.3647 72.536V63.728C73.3647 63.2 73.4927 62.8 73.7487 62.528C74.0047 62.24 74.3727 62.096 74.8527 62.096C75.3327 62.096 75.7007 62.24 75.9567 62.528C76.2287 62.8 76.3647 63.2 76.3647 63.728V72.536C76.3647 73.048 76.2367 73.448 75.9807 73.736C75.7247 74.024 75.3487 74.168 74.8527 74.168ZM74.8527 59.864C74.2927 59.864 73.8527 59.728 73.5327 59.456C73.2287 59.168 73.0767 58.776 73.0767 58.28C73.0767 57.768 73.2287 57.376 73.5327 57.104C73.8527 56.832 74.2927 56.696 74.8527 56.696C75.4287 56.696 75.8687 56.832 76.1727 57.104C76.4767 57.376 76.6287 57.768 76.6287 58.28C76.6287 58.776 76.4767 59.168 76.1727 59.456C75.8687 59.728 75.4287 59.864 74.8527 59.864ZM83.7779 74.24C83.0899 74.24 82.3619 74.168 81.5939 74.024C80.8259 73.88 80.1379 73.632 79.5299 73.28C79.2739 73.12 79.0899 72.936 78.9779 72.728C78.8819 72.504 78.8419 72.288 78.8579 72.08C78.8899 71.856 78.9699 71.664 79.0979 71.504C79.2419 71.344 79.4179 71.24 79.6259 71.192C79.8499 71.144 80.0899 71.184 80.3459 71.312C80.9859 71.616 81.5859 71.832 82.1459 71.96C82.7059 72.072 83.2579 72.128 83.8019 72.128C84.5699 72.128 85.1379 72 85.5059 71.744C85.8899 71.472 86.0819 71.12 86.0819 70.688C86.0819 70.32 85.9539 70.04 85.6979 69.848C85.4579 69.64 85.0899 69.488 84.5939 69.392L82.1939 68.936C81.2019 68.744 80.4419 68.384 79.9139 67.856C79.4019 67.312 79.1459 66.616 79.1459 65.768C79.1459 65 79.3539 64.336 79.7699 63.776C80.2019 63.216 80.7939 62.784 81.5459 62.48C82.2979 62.176 83.1619 62.024 84.1379 62.024C84.8419 62.024 85.4979 62.104 86.1059 62.264C86.7299 62.408 87.3299 62.64 87.9059 62.96C88.1459 63.088 88.3059 63.256 88.3859 63.464C88.4819 63.672 88.5059 63.888 88.4579 64.112C88.4099 64.32 88.3139 64.512 88.1699 64.688C88.0259 64.848 87.8419 64.952 87.6179 65C87.4099 65.032 87.1699 64.984 86.8979 64.856C86.4019 64.6 85.9219 64.416 85.4579 64.304C85.0099 64.192 84.5779 64.136 84.1619 64.136C83.3779 64.136 82.7939 64.272 82.4099 64.544C82.0419 64.816 81.8579 65.176 81.8579 65.624C81.8579 65.96 81.9699 66.24 82.1939 66.464C82.4179 66.688 82.7619 66.84 83.2259 66.92L85.6259 67.376C86.6659 67.568 87.4499 67.92 87.9779 68.432C88.5219 68.944 88.7939 69.632 88.7939 70.496C88.7939 71.664 88.3379 72.584 87.4259 73.256C86.5139 73.912 85.2979 74.24 83.7779 74.24ZM99.6363 74C99.1083 74 98.7003 73.864 98.4123 73.592C98.1403 73.304 98.0043 72.896 98.0043 72.368V58.712C98.0043 58.184 98.1403 57.784 98.4123 57.512C98.7003 57.224 99.1083 57.08 99.6363 57.08H105.396C106.58 57.08 107.588 57.256 108.42 57.608C109.252 57.96 109.884 58.464 110.316 59.12C110.764 59.776 110.988 60.56 110.988 61.472C110.988 62.496 110.692 63.36 110.1 64.064C109.508 64.768 108.7 65.24 107.676 65.48V65.12C108.86 65.296 109.78 65.744 110.436 66.464C111.092 67.184 111.42 68.12 111.42 69.272C111.42 70.776 110.908 71.944 109.884 72.776C108.876 73.592 107.468 74 105.66 74H99.6363ZM100.956 71.672H105.276C106.364 71.672 107.164 71.464 107.676 71.048C108.188 70.616 108.444 69.976 108.444 69.128C108.444 68.264 108.188 67.624 107.676 67.208C107.164 66.792 106.364 66.584 105.276 66.584H100.956V71.672ZM100.956 64.256H104.868C105.924 64.256 106.708 64.056 107.22 63.656C107.748 63.24 108.012 62.632 108.012 61.832C108.012 61.032 107.748 60.432 107.22 60.032C106.708 59.616 105.924 59.408 104.868 59.408H100.956V64.256ZM118.248 74.24C116.92 74.24 115.92 73.864 115.248 73.112C114.576 72.344 114.24 71.224 114.24 69.752V58.4C114.24 57.904 114.368 57.528 114.624 57.272C114.88 57.016 115.248 56.888 115.728 56.888C116.208 56.888 116.576 57.016 116.832 57.272C117.104 57.528 117.24 57.904 117.24 58.4V69.608C117.24 70.344 117.392 70.888 117.696 71.24C118.016 71.592 118.464 71.768 119.04 71.768C119.168 71.768 119.288 71.768 119.4 71.768C119.512 71.752 119.624 71.736 119.736 71.72C119.96 71.688 120.112 71.752 120.192 71.912C120.272 72.056 120.312 72.36 120.312 72.824C120.312 73.224 120.232 73.536 120.072 73.76C119.912 73.984 119.648 74.12 119.28 74.168C119.12 74.184 118.952 74.2 118.776 74.216C118.6 74.232 118.424 74.24 118.248 74.24ZM127.139 74.24C125.923 74.24 124.867 73.992 123.971 73.496C123.075 73 122.379 72.296 121.883 71.384C121.387 70.456 121.139 69.368 121.139 68.12C121.139 67.176 121.275 66.336 121.547 65.6C121.835 64.848 122.243 64.208 122.771 63.68C123.299 63.136 123.931 62.728 124.667 62.456C125.403 62.168 126.227 62.024 127.139 62.024C128.355 62.024 129.411 62.272 130.307 62.768C131.203 63.264 131.899 63.968 132.395 64.88C132.891 65.792 133.139 66.872 133.139 68.12C133.139 69.064 132.995 69.912 132.707 70.664C132.435 71.416 132.035 72.064 131.507 72.608C130.979 73.136 130.347 73.544 129.611 73.832C128.875 74.104 128.051 74.24 127.139 74.24ZM127.139 71.96C127.731 71.96 128.251 71.816 128.699 71.528C129.147 71.24 129.491 70.816 129.731 70.256C129.987 69.68 130.115 68.968 130.115 68.12C130.115 66.84 129.843 65.888 129.299 65.264C128.755 64.624 128.035 64.304 127.139 64.304C126.547 64.304 126.027 64.448 125.579 64.736C125.131 65.008 124.779 65.432 124.523 66.008C124.283 66.568 124.163 67.272 124.163 68.12C124.163 69.384 124.435 70.344 124.979 71C125.523 71.64 126.243 71.96 127.139 71.96ZM141.039 74.24C139.807 74.24 138.735 73.992 137.823 73.496C136.911 72.984 136.207 72.264 135.711 71.336C135.215 70.408 134.967 69.32 134.967 68.072C134.967 67.128 135.103 66.288 135.375 65.552C135.663 64.8 136.071 64.168 136.599 63.656C137.127 63.128 137.767 62.728 138.519 62.456C139.271 62.168 140.111 62.024 141.039 62.024C141.567 62.024 142.135 62.096 142.743 62.24C143.367 62.384 143.951 62.624 144.495 62.96C144.751 63.12 144.919 63.312 144.999 63.536C145.079 63.76 145.095 63.992 145.047 64.232C144.999 64.456 144.895 64.656 144.735 64.832C144.591 64.992 144.407 65.096 144.183 65.144C143.959 65.176 143.711 65.12 143.439 64.976C143.087 64.768 142.727 64.616 142.359 64.52C141.991 64.408 141.639 64.352 141.303 64.352C140.775 64.352 140.311 64.44 139.911 64.616C139.511 64.776 139.167 65.016 138.879 65.336C138.607 65.64 138.399 66.024 138.255 66.488C138.111 66.952 138.039 67.488 138.039 68.096C138.039 69.28 138.319 70.216 138.879 70.904C139.455 71.576 140.263 71.912 141.303 71.912C141.639 71.912 141.983 71.864 142.335 71.768C142.703 71.672 143.071 71.52 143.439 71.312C143.711 71.168 143.951 71.12 144.159 71.168C144.383 71.216 144.567 71.328 144.711 71.504C144.855 71.664 144.943 71.864 144.975 72.104C145.007 72.328 144.975 72.552 144.879 72.776C144.799 73 144.639 73.184 144.399 73.328C143.871 73.648 143.311 73.88 142.719 74.024C142.127 74.168 141.567 74.24 141.039 74.24ZM148.423 74.192C147.943 74.192 147.575 74.064 147.319 73.808C147.063 73.536 146.935 73.152 146.935 72.656V58.4C146.935 57.904 147.063 57.528 147.319 57.272C147.575 57.016 147.943 56.888 148.423 56.888C148.903 56.888 149.271 57.016 149.527 57.272C149.799 57.528 149.935 57.904 149.935 58.4V67.256H149.983L153.943 63.08C154.263 62.76 154.543 62.512 154.783 62.336C155.023 62.16 155.351 62.072 155.767 62.072C156.183 62.072 156.495 62.184 156.703 62.408C156.927 62.616 157.039 62.872 157.039 63.176C157.039 63.48 156.895 63.784 156.607 64.088L152.431 68.504V67.256L157.015 72.2C157.303 72.504 157.431 72.816 157.399 73.136C157.383 73.44 157.255 73.696 157.015 73.904C156.775 74.096 156.471 74.192 156.103 74.192C155.655 74.192 155.295 74.104 155.023 73.928C154.767 73.752 154.479 73.488 154.159 73.136L149.983 68.768H149.935V72.656C149.935 73.68 149.431 74.192 148.423 74.192ZM164.992 74.24C163.76 74.24 162.688 73.992 161.776 73.496C160.864 72.984 160.16 72.264 159.664 71.336C159.168 70.408 158.92 69.32 158.92 68.072C158.92 67.128 159.056 66.288 159.328 65.552C159.616 64.8 160.024 64.168 160.552 63.656C161.08 63.128 161.72 62.728 162.472 62.456C163.224 62.168 164.064 62.024 164.992 62.024C165.52 62.024 166.088 62.096 166.696 62.24C167.32 62.384 167.904 62.624 168.448 62.96C168.704 63.12 168.872 63.312 168.952 63.536C169.032 63.76 169.048 63.992 169 64.232C168.952 64.456 168.848 64.656 168.688 64.832C168.544 64.992 168.36 65.096 168.136 65.144C167.912 65.176 167.664 65.12 167.392 64.976C167.04 64.768 166.68 64.616 166.312 64.52C165.944 64.408 165.592 64.352 165.256 64.352C164.728 64.352 164.264 64.44 163.864 64.616C163.464 64.776 163.12 65.016 162.832 65.336C162.56 65.64 162.352 66.024 162.208 66.488C162.064 66.952 161.992 67.488 161.992 68.096C161.992 69.28 162.272 70.216 162.832 70.904C163.408 71.576 164.216 71.912 165.256 71.912C165.592 71.912 165.936 71.864 166.288 71.768C166.656 71.672 167.024 71.52 167.392 71.312C167.664 71.168 167.904 71.12 168.112 71.168C168.336 71.216 168.52 71.328 168.664 71.504C168.808 71.664 168.896 71.864 168.928 72.104C168.96 72.328 168.928 72.552 168.832 72.776C168.752 73 168.592 73.184 168.352 73.328C167.824 73.648 167.264 73.88 166.672 74.024C166.08 74.168 165.52 74.24 164.992 74.24ZM172.376 74.192C171.896 74.192 171.528 74.064 171.272 73.808C171.016 73.536 170.888 73.152 170.888 72.656V58.4C170.888 57.904 171.016 57.528 171.272 57.272C171.528 57.016 171.896 56.888 172.376 56.888C172.856 56.888 173.224 57.016 173.48 57.272C173.752 57.528 173.888 57.904 173.888 58.4V64.616H173.552C173.904 63.768 174.448 63.128 175.184 62.696C175.936 62.248 176.784 62.024 177.728 62.024C178.672 62.024 179.448 62.2 180.056 62.552C180.664 62.904 181.12 63.44 181.424 64.16C181.728 64.864 181.88 65.76 181.88 66.848V72.656C181.88 73.152 181.752 73.536 181.496 73.808C181.24 74.064 180.872 74.192 180.392 74.192C179.912 74.192 179.536 74.064 179.264 73.808C179.008 73.536 178.88 73.152 178.88 72.656V66.992C178.88 66.08 178.704 65.416 178.352 65C178.016 64.584 177.488 64.376 176.768 64.376C175.888 64.376 175.184 64.656 174.656 65.216C174.144 65.76 173.888 66.488 173.888 67.4V72.656C173.888 73.68 173.384 74.192 172.376 74.192ZM188.791 74.24C187.943 74.24 187.183 74.08 186.511 73.76C185.855 73.424 185.335 72.976 184.951 72.416C184.583 71.856 184.399 71.224 184.399 70.52C184.399 69.656 184.623 68.976 185.071 68.48C185.519 67.968 186.247 67.6 187.255 67.376C188.263 67.152 189.615 67.04 191.311 67.04H192.511V68.768H191.335C190.343 68.768 189.551 68.816 188.959 68.912C188.367 69.008 187.943 69.176 187.687 69.416C187.447 69.64 187.327 69.96 187.327 70.376C187.327 70.904 187.511 71.336 187.879 71.672C188.247 72.008 188.759 72.176 189.415 72.176C189.943 72.176 190.407 72.056 190.807 71.816C191.223 71.56 191.551 71.216 191.791 70.784C192.031 70.352 192.151 69.856 192.151 69.296V66.536C192.151 65.736 191.975 65.16 191.623 64.808C191.271 64.456 190.679 64.28 189.847 64.28C189.383 64.28 188.879 64.336 188.335 64.448C187.807 64.56 187.247 64.752 186.655 65.024C186.351 65.168 186.079 65.208 185.839 65.144C185.615 65.08 185.439 64.952 185.311 64.76C185.183 64.552 185.119 64.328 185.119 64.088C185.119 63.848 185.183 63.616 185.311 63.392C185.439 63.152 185.655 62.976 185.959 62.864C186.695 62.56 187.399 62.344 188.071 62.216C188.759 62.088 189.383 62.024 189.943 62.024C191.095 62.024 192.039 62.2 192.775 62.552C193.527 62.904 194.087 63.44 194.455 64.16C194.823 64.864 195.007 65.776 195.007 66.896V72.656C195.007 73.152 194.887 73.536 194.647 73.808C194.407 74.064 194.063 74.192 193.615 74.192C193.167 74.192 192.815 74.064 192.559 73.808C192.319 73.536 192.199 73.152 192.199 72.656V71.504H192.391C192.279 72.064 192.055 72.552 191.719 72.968C191.399 73.368 190.991 73.68 190.495 73.904C189.999 74.128 189.431 74.24 188.791 74.24ZM199.54 74.168C199.06 74.168 198.692 74.024 198.436 73.736C198.18 73.448 198.052 73.048 198.052 72.536V63.728C198.052 63.2 198.18 62.8 198.436 62.528C198.692 62.24 199.06 62.096 199.54 62.096C200.02 62.096 200.388 62.24 200.644 62.528C200.916 62.8 201.052 63.2 201.052 63.728V72.536C201.052 73.048 200.924 73.448 200.668 73.736C200.412 74.024 200.036 74.168 199.54 74.168ZM199.54 59.864C198.98 59.864 198.54 59.728 198.22 59.456C197.916 59.168 197.764 58.776 197.764 58.28C197.764 57.768 197.916 57.376 198.22 57.104C198.54 56.832 198.98 56.696 199.54 56.696C200.116 56.696 200.556 56.832 200.86 57.104C201.164 57.376 201.316 57.768 201.316 58.28C201.316 58.776 201.164 59.168 200.86 59.456C200.556 59.728 200.116 59.864 199.54 59.864ZM205.657 74.192C205.177 74.192 204.809 74.064 204.553 73.808C204.297 73.536 204.169 73.152 204.169 72.656V63.584C204.169 63.088 204.297 62.712 204.553 62.456C204.809 62.2 205.169 62.072 205.633 62.072C206.097 62.072 206.457 62.2 206.713 62.456C206.969 62.712 207.097 63.088 207.097 63.584V65.216L206.833 64.616C207.185 63.768 207.729 63.128 208.465 62.696C209.217 62.248 210.065 62.024 211.009 62.024C211.953 62.024 212.729 62.2 213.337 62.552C213.945 62.904 214.401 63.44 214.705 64.16C215.009 64.864 215.161 65.76 215.161 66.848V72.656C215.161 73.152 215.033 73.536 214.777 73.808C214.521 74.064 214.153 74.192 213.673 74.192C213.193 74.192 212.817 74.064 212.545 73.808C212.289 73.536 212.161 73.152 212.161 72.656V66.992C212.161 66.08 211.985 65.416 211.633 65C211.297 64.584 210.769 64.376 210.049 64.376C209.169 64.376 208.465 64.656 207.937 65.216C207.425 65.76 207.169 66.488 207.169 67.4V72.656C207.169 73.68 206.665 74.192 205.657 74.192ZM221.696 69.104C221.392 69.104 221.152 69.008 220.976 68.816C220.816 68.608 220.736 68.336 220.736 68C220.736 67.504 220.792 67.04 220.904 66.608C221.032 66.16 221.232 65.712 221.504 65.264C221.776 64.816 222.136 64.344 222.584 63.848C222.92 63.464 223.184 63.128 223.376 62.84C223.584 62.536 223.728 62.248 223.808 61.976C223.904 61.704 223.952 61.424 223.952 61.136C223.952 60.608 223.76 60.192 223.376 59.888C222.992 59.584 222.448 59.432 221.744 59.432C221.104 59.432 220.52 59.52 219.992 59.696C219.48 59.856 218.96 60.088 218.432 60.392C218.08 60.6 217.76 60.696 217.472 60.68C217.2 60.648 216.976 60.544 216.8 60.368C216.624 60.192 216.512 59.976 216.464 59.72C216.416 59.464 216.456 59.2 216.584 58.928C216.712 58.656 216.944 58.408 217.28 58.184C217.936 57.752 218.688 57.424 219.536 57.2C220.384 56.96 221.184 56.84 221.936 56.84C222.944 56.84 223.824 57.008 224.576 57.344C225.344 57.68 225.936 58.144 226.352 58.736C226.784 59.328 227 60.024 227 60.824C227 61.32 226.928 61.792 226.784 62.24C226.64 62.672 226.408 63.112 226.088 63.56C225.768 63.992 225.328 64.464 224.768 64.976C224.272 65.424 223.872 65.832 223.568 66.2C223.28 66.568 223.064 66.92 222.92 67.256C222.792 67.592 222.704 67.952 222.656 68.336C222.64 68.56 222.544 68.744 222.368 68.888C222.208 69.032 221.984 69.104 221.696 69.104ZM221.648 74.12C221.104 74.12 220.664 73.952 220.328 73.616C220.008 73.28 219.848 72.848 219.848 72.32C219.848 71.808 220.008 71.392 220.328 71.072C220.664 70.736 221.104 70.568 221.648 70.568C222.208 70.568 222.64 70.736 222.944 71.072C223.264 71.392 223.424 71.808 223.424 72.32C223.424 72.848 223.264 73.28 222.944 73.616C222.64 73.952 222.208 74.12 221.648 74.12Z" fill="white"/>
</svg>