<!-- <svg width="337" height="86" viewBox="0 0 337 86" fill="none" xmlns="http://www.w3.org/2000/svg"> -->

<svg width="337"  height="86" viewBox="0 0 337 86" fill="none" xmlns="http://www.w3.org/2000/svg">
<path d="M3.64 24C2.936 24 2.392 23.8187 2.008 23.456C1.64533 23.072 1.464 22.528 1.464 21.824V3.616C1.464 2.912 1.64533 2.37867 2.008 2.016C2.392 1.632 2.936 1.44 3.64 1.44H11.32C12.8987 1.44 14.2427 1.67467 15.352 2.144C16.4613 2.61333 17.304 3.28533 17.88 4.16C18.4773 5.03467 18.776 6.08 18.776 7.296C18.776 8.66133 18.3813 9.81333 17.592 10.752C16.8027 11.6907 15.7253 12.32 14.36 12.64V12.16C15.9387 12.3947 17.1653 12.992 18.04 13.952C18.9147 14.912 19.352 16.16 19.352 17.696C19.352 19.7013 18.6693 21.2587 17.304 22.368C15.96 23.456 14.0827 24 11.672 24H3.64ZM5.4 20.896H11.16C12.6107 20.896 13.6773 20.6187 14.36 20.064C15.0427 19.488 15.384 18.6347 15.384 17.504C15.384 16.352 15.0427 15.4987 14.36 14.944C13.6773 14.3893 12.6107 14.112 11.16 14.112H5.4V20.896ZM5.4 11.008H10.616C12.024 11.008 13.0693 10.7413 13.752 10.208C14.456 9.65333 14.808 8.84267 14.808 7.776C14.808 6.70933 14.456 5.90933 13.752 5.376C13.0693 4.82133 12.024 4.544 10.616 4.544H5.4V11.008ZM28.4553 24.32C26.6846 24.32 25.3513 23.8187 24.4553 22.816C23.5593 21.792 23.1113 20.2987 23.1113 18.336V3.2C23.1113 2.53867 23.2819 2.03733 23.6233 1.696C23.9646 1.35467 24.4553 1.184 25.0953 1.184C25.7353 1.184 26.2259 1.35467 26.5673 1.696C26.9299 2.03733 27.1113 2.53867 27.1113 3.2V18.144C27.1113 19.1253 27.3139 19.8507 27.7193 20.32C28.1459 20.7893 28.7433 21.024 29.5113 21.024C29.6819 21.024 29.8419 21.024 29.9913 21.024C30.1406 21.0027 30.2899 20.9813 30.4392 20.96C30.7379 20.9173 30.9406 21.0027 31.0473 21.216C31.1539 21.408 31.2073 21.8133 31.2073 22.432C31.2073 22.9653 31.1006 23.3813 30.8873 23.68C30.6739 23.9787 30.3219 24.16 29.8313 24.224C29.6179 24.2453 29.3939 24.2667 29.1593 24.288C28.9246 24.3093 28.6899 24.32 28.4553 24.32ZM40.3098 24.32C38.6884 24.32 37.2804 23.9893 36.0858 23.328C34.8911 22.6667 33.9631 21.728 33.3018 20.512C32.6404 19.2747 32.3098 17.824 32.3098 16.16C32.3098 14.9013 32.4911 13.7813 32.8538 12.8C33.2378 11.7973 33.7818 10.944 34.4858 10.24C35.1898 9.51467 36.0324 8.97067 37.0138 8.608C37.9951 8.224 39.0938 8.032 40.3098 8.032C41.9311 8.032 43.3391 8.36267 44.5338 9.024C45.7284 9.68533 46.6564 10.624 47.3178 11.84C47.9791 13.056 48.3098 14.496 48.3098 16.16C48.3098 17.4187 48.1178 18.5493 47.7338 19.552C47.3711 20.5547 46.8378 21.4187 46.1338 22.144C45.4298 22.848 44.5871 23.392 43.6058 23.776C42.6244 24.1387 41.5258 24.32 40.3098 24.32ZM40.3098 21.28C41.0991 21.28 41.7924 21.088 42.3898 20.704C42.9871 20.32 43.4458 19.7547 43.7658 19.008C44.1071 18.24 44.2778 17.2907 44.2778 16.16C44.2778 14.4533 43.9151 13.184 43.1898 12.352C42.4644 11.4987 41.5044 11.072 40.3098 11.072C39.5204 11.072 38.8271 11.264 38.2298 11.648C37.6324 12.0107 37.1631 12.576 36.8218 13.344C36.5018 14.0907 36.3418 15.0293 36.3418 16.16C36.3418 17.8453 36.7044 19.1253 37.4298 20C38.1551 20.8533 39.1151 21.28 40.3098 21.28ZM58.8433 24.32C57.2006 24.32 55.7713 23.9893 54.5553 23.328C53.3393 22.6453 52.4006 21.6853 51.7393 20.448C51.0779 19.2107 50.7473 17.76 50.7473 16.096C50.7473 14.8373 50.9286 13.7173 51.2913 12.736C51.6753 11.7333 52.2193 10.8907 52.9233 10.208C53.6273 9.504 54.4806 8.97067 55.4833 8.608C56.4859 8.224 57.6059 8.032 58.8433 8.032C59.5473 8.032 60.3046 8.128 61.1153 8.32C61.9473 8.512 62.7259 8.832 63.4513 9.28C63.7926 9.49333 64.0166 9.74933 64.1233 10.048C64.2299 10.3467 64.2513 10.656 64.1873 10.976C64.1233 11.2747 63.9846 11.5413 63.7713 11.776C63.5793 11.9893 63.3339 12.128 63.0353 12.192C62.7366 12.2347 62.4059 12.16 62.0433 11.968C61.5739 11.6907 61.0939 11.488 60.6033 11.36C60.1126 11.2107 59.6433 11.136 59.1953 11.136C58.4913 11.136 57.8726 11.2533 57.3393 11.488C56.8059 11.7013 56.3473 12.0213 55.9633 12.448C55.6006 12.8533 55.3233 13.3653 55.1313 13.984C54.9393 14.6027 54.8433 15.3173 54.8433 16.128C54.8433 17.7067 55.2166 18.9547 55.9633 19.872C56.7313 20.768 57.8086 21.216 59.1953 21.216C59.6433 21.216 60.1019 21.152 60.5713 21.024C61.0619 20.896 61.5526 20.6933 62.0433 20.416C62.4059 20.224 62.7259 20.16 63.0033 20.224C63.3019 20.288 63.5473 20.4373 63.7393 20.672C63.9313 20.8853 64.0486 21.152 64.0913 21.472C64.1339 21.7707 64.0913 22.0693 63.9633 22.368C63.8566 22.6667 63.6433 22.912 63.3233 23.104C62.6193 23.5307 61.8726 23.84 61.0833 24.032C60.2939 24.224 59.5473 24.32 58.8433 24.32ZM68.689 24.256C68.049 24.256 67.5583 24.0853 67.217 23.744C66.8757 23.3813 66.705 22.8693 66.705 22.208V3.2C66.705 2.53867 66.8757 2.03733 67.217 1.696C67.5583 1.35467 68.049 1.184 68.689 1.184C69.329 1.184 69.8197 1.35467 70.161 1.696C70.5237 2.03733 70.705 2.53867 70.705 3.2V15.008H70.769L76.049 9.44C76.4757 9.01333 76.849 8.68267 77.169 8.448C77.489 8.21333 77.9263 8.096 78.481 8.096C79.0357 8.096 79.4517 8.24533 79.729 8.544C80.0277 8.82133 80.177 9.16267 80.177 9.568C80.177 9.97333 79.985 10.3787 79.601 10.784L74.033 16.672V15.008L80.145 21.6C80.529 22.0053 80.6997 22.4213 80.657 22.848C80.6357 23.2533 80.465 23.5947 80.145 23.872C79.825 24.128 79.4197 24.256 78.929 24.256C78.3317 24.256 77.8517 24.1387 77.489 23.904C77.1477 23.6693 76.7637 23.3173 76.337 22.848L70.769 17.024H70.705V22.208C70.705 23.5733 70.033 24.256 68.689 24.256ZM90.7808 24.32C89.1381 24.32 87.7088 23.9893 86.4928 23.328C85.2768 22.6453 84.3381 21.6853 83.6768 20.448C83.0154 19.2107 82.6848 17.76 82.6848 16.096C82.6848 14.8373 82.8661 13.7173 83.2288 12.736C83.6128 11.7333 84.1568 10.8907 84.8608 10.208C85.5648 9.504 86.4181 8.97067 87.4208 8.608C88.4234 8.224 89.5434 8.032 90.7808 8.032C91.4848 8.032 92.2421 8.128 93.0528 8.32C93.8848 8.512 94.6634 8.832 95.3888 9.28C95.7301 9.49333 95.9541 9.74933 96.0608 10.048C96.1674 10.3467 96.1888 10.656 96.1248 10.976C96.0608 11.2747 95.9221 11.5413 95.7088 11.776C95.5168 11.9893 95.2714 12.128 94.9728 12.192C94.6741 12.2347 94.3434 12.16 93.9808 11.968C93.5114 11.6907 93.0314 11.488 92.5408 11.36C92.0501 11.2107 91.5808 11.136 91.1328 11.136C90.4288 11.136 89.8101 11.2533 89.2768 11.488C88.7434 11.7013 88.2848 12.0213 87.9008 12.448C87.5381 12.8533 87.2608 13.3653 87.0688 13.984C86.8768 14.6027 86.7808 15.3173 86.7808 16.128C86.7808 17.7067 87.1541 18.9547 87.9008 19.872C88.6688 20.768 89.7461 21.216 91.1328 21.216C91.5808 21.216 92.0394 21.152 92.5088 21.024C92.9994 20.896 93.4901 20.6933 93.9808 20.416C94.3434 20.224 94.6634 20.16 94.9408 20.224C95.2394 20.288 95.4848 20.4373 95.6768 20.672C95.8688 20.8853 95.9861 21.152 96.0288 21.472C96.0714 21.7707 96.0288 22.0693 95.9008 22.368C95.7941 22.6667 95.5808 22.912 95.2608 23.104C94.5568 23.5307 93.8101 23.84 93.0208 24.032C92.2314 24.224 91.4848 24.32 90.7808 24.32ZM100.627 24.256C99.9865 24.256 99.4958 24.0853 99.1545 23.744C98.8132 23.3813 98.6425 22.8693 98.6425 22.208V3.2C98.6425 2.53867 98.8132 2.03733 99.1545 1.696C99.4958 1.35467 99.9865 1.184 100.627 1.184C101.267 1.184 101.757 1.35467 102.099 1.696C102.461 2.03733 102.643 2.53867 102.643 3.2V11.488H102.195C102.664 10.3573 103.389 9.504 104.371 8.928C105.373 8.33067 106.504 8.032 107.763 8.032C109.021 8.032 110.056 8.26667 110.867 8.736C111.677 9.20533 112.285 9.92 112.691 10.88C113.096 11.8187 113.299 13.0133 113.299 14.464V22.208C113.299 22.8693 113.128 23.3813 112.787 23.744C112.445 24.0853 111.955 24.256 111.315 24.256C110.675 24.256 110.173 24.0853 109.811 23.744C109.469 23.3813 109.299 22.8693 109.299 22.208V14.656C109.299 13.44 109.064 12.5547 108.595 12C108.147 11.4453 107.443 11.168 106.483 11.168C105.309 11.168 104.371 11.5413 103.667 12.288C102.984 13.0133 102.643 13.984 102.643 15.2V22.208C102.643 23.5733 101.971 24.256 100.627 24.256ZM122.513 24.32C121.383 24.32 120.369 24.1067 119.473 23.68C118.599 23.232 117.905 22.6347 117.393 21.888C116.903 21.1413 116.657 20.2987 116.657 19.36C116.657 18.208 116.956 17.3013 117.553 16.64C118.151 15.9573 119.121 15.4667 120.465 15.168C121.809 14.8693 123.612 14.72 125.873 14.72H127.473V17.024H125.905C124.583 17.024 123.527 17.088 122.737 17.216C121.948 17.344 121.383 17.568 121.041 17.888C120.721 18.1867 120.561 18.6133 120.561 19.168C120.561 19.872 120.807 20.448 121.297 20.896C121.788 21.344 122.471 21.568 123.345 21.568C124.049 21.568 124.668 21.408 125.201 21.088C125.756 20.7467 126.193 20.288 126.513 19.712C126.833 19.136 126.993 18.4747 126.993 17.728V14.048C126.993 12.9813 126.759 12.2133 126.289 11.744C125.82 11.2747 125.031 11.04 123.921 11.04C123.303 11.04 122.631 11.1147 121.905 11.264C121.201 11.4133 120.455 11.6693 119.665 12.032C119.26 12.224 118.897 12.2773 118.577 12.192C118.279 12.1067 118.044 11.936 117.873 11.68C117.703 11.4027 117.617 11.104 117.617 10.784C117.617 10.464 117.703 10.1547 117.873 9.856C118.044 9.536 118.332 9.30133 118.737 9.152C119.719 8.74667 120.657 8.45867 121.553 8.288C122.471 8.11733 123.303 8.032 124.049 8.032C125.585 8.032 126.844 8.26667 127.825 8.736C128.828 9.20533 129.575 9.92 130.065 10.88C130.556 11.8187 130.801 13.0347 130.801 14.528V22.208C130.801 22.8693 130.641 23.3813 130.321 23.744C130.001 24.0853 129.543 24.256 128.945 24.256C128.348 24.256 127.879 24.0853 127.537 23.744C127.217 23.3813 127.057 22.8693 127.057 22.208V20.672H127.313C127.164 21.4187 126.865 22.0693 126.417 22.624C125.991 23.1573 125.447 23.5733 124.785 23.872C124.124 24.1707 123.367 24.32 122.513 24.32ZM136.845 24.224C136.205 24.224 135.715 24.032 135.373 23.648C135.032 23.264 134.861 22.7307 134.861 22.048V10.304C134.861 9.6 135.032 9.06667 135.373 8.704C135.715 8.32 136.205 8.128 136.845 8.128C137.485 8.128 137.976 8.32 138.317 8.704C138.68 9.06667 138.861 9.6 138.861 10.304V22.048C138.861 22.7307 138.691 23.264 138.349 23.648C138.008 24.032 137.507 24.224 136.845 24.224ZM136.845 5.152C136.099 5.152 135.512 4.97067 135.085 4.608C134.68 4.224 134.477 3.70133 134.477 3.04C134.477 2.35733 134.68 1.83467 135.085 1.472C135.512 1.10933 136.099 0.927999 136.845 0.927999C137.613 0.927999 138.2 1.10933 138.605 1.472C139.011 1.83467 139.213 2.35733 139.213 3.04C139.213 3.70133 139.011 4.224 138.605 4.608C138.2 4.97067 137.613 5.152 136.845 5.152ZM145.002 24.256C144.362 24.256 143.871 24.0853 143.53 23.744C143.188 23.3813 143.018 22.8693 143.018 22.208V10.112C143.018 9.45067 143.188 8.94933 143.53 8.608C143.871 8.26667 144.351 8.096 144.97 8.096C145.588 8.096 146.068 8.26667 146.41 8.608C146.751 8.94933 146.922 9.45067 146.922 10.112V12.288L146.57 11.488C147.039 10.3573 147.764 9.504 148.746 8.928C149.748 8.33067 150.879 8.032 152.138 8.032C153.396 8.032 154.431 8.26667 155.242 8.736C156.052 9.20533 156.66 9.92 157.066 10.88C157.471 11.8187 157.674 13.0133 157.674 14.464V22.208C157.674 22.8693 157.503 23.3813 157.162 23.744C156.82 24.0853 156.33 24.256 155.69 24.256C155.05 24.256 154.548 24.0853 154.186 23.744C153.844 23.3813 153.674 22.8693 153.674 22.208V14.656C153.674 13.44 153.439 12.5547 152.97 12C152.522 11.4453 151.818 11.168 150.858 11.168C149.684 11.168 148.746 11.5413 148.042 12.288C147.359 13.0133 147.018 13.984 147.018 15.2V22.208C147.018 23.5733 146.346 24.256 145.002 24.256ZM172.92 24.256C172.258 24.256 171.736 24.0747 171.352 23.712C170.989 23.328 170.808 22.784 170.808 22.08V3.616C170.808 2.912 170.989 2.37867 171.352 2.016C171.736 1.632 172.28 1.44 172.984 1.44H184.152C184.706 1.44 185.122 1.57867 185.4 1.856C185.677 2.13333 185.816 2.528 185.816 3.04C185.816 3.57333 185.677 3.98933 185.4 4.288C185.122 4.56533 184.706 4.704 184.152 4.704H174.904V11.072H183.48C184.013 11.072 184.418 11.2107 184.696 11.488C184.994 11.7653 185.144 12.16 185.144 12.672C185.144 13.2053 184.994 13.6213 184.696 13.92C184.418 14.1973 184.013 14.336 183.48 14.336H174.904V22.08C174.904 23.5307 174.242 24.256 172.92 24.256ZM194.966 24.32C193.345 24.32 191.937 23.9893 190.742 23.328C189.547 22.6667 188.619 21.728 187.958 20.512C187.297 19.2747 186.966 17.824 186.966 16.16C186.966 14.9013 187.147 13.7813 187.51 12.8C187.894 11.7973 188.438 10.944 189.142 10.24C189.846 9.51467 190.689 8.97067 191.67 8.608C192.651 8.224 193.75 8.032 194.966 8.032C196.587 8.032 197.995 8.36267 199.19 9.024C200.385 9.68533 201.313 10.624 201.974 11.84C202.635 13.056 202.966 14.496 202.966 16.16C202.966 17.4187 202.774 18.5493 202.39 19.552C202.027 20.5547 201.494 21.4187 200.79 22.144C200.086 22.848 199.243 23.392 198.262 23.776C197.281 24.1387 196.182 24.32 194.966 24.32ZM194.966 21.28C195.755 21.28 196.449 21.088 197.046 20.704C197.643 20.32 198.102 19.7547 198.422 19.008C198.763 18.24 198.934 17.2907 198.934 16.16C198.934 14.4533 198.571 13.184 197.846 12.352C197.121 11.4987 196.161 11.072 194.966 11.072C194.177 11.072 193.483 11.264 192.886 11.648C192.289 12.0107 191.819 12.576 191.478 13.344C191.158 14.0907 190.998 15.0293 190.998 16.16C190.998 17.8453 191.361 19.1253 192.086 20C192.811 20.8533 193.771 21.28 194.966 21.28ZM208.316 24.256C207.654 24.256 207.142 24.0853 206.78 23.744C206.438 23.3813 206.268 22.8693 206.268 22.208V10.112C206.268 9.45067 206.438 8.94933 206.78 8.608C207.121 8.26667 207.601 8.096 208.22 8.096C208.838 8.096 209.318 8.26667 209.66 8.608C210.001 8.94933 210.172 9.45067 210.172 10.112V12.128H209.852C210.15 10.848 210.737 9.87733 211.612 9.216C212.486 8.55467 213.649 8.16 215.1 8.032C215.548 7.98933 215.9 8.10667 216.156 8.384C216.433 8.64 216.593 9.04533 216.636 9.6C216.678 10.1333 216.55 10.5707 216.252 10.912C215.974 11.232 215.548 11.424 214.972 11.488L214.268 11.552C212.966 11.68 211.985 12.0853 211.324 12.768C210.662 13.4293 210.332 14.368 210.332 15.584V22.208C210.332 22.8693 210.161 23.3813 209.82 23.744C209.478 24.0853 208.977 24.256 208.316 24.256ZM226.261 24.32C224.49 24.32 222.965 23.9893 221.685 23.328C220.405 22.6667 219.413 21.728 218.709 20.512C218.026 19.296 217.685 17.856 217.685 16.192C217.685 14.5707 218.015 13.152 218.677 11.936C219.359 10.72 220.287 9.77067 221.461 9.088C222.655 8.384 224.01 8.032 225.525 8.032C226.634 8.032 227.626 8.21333 228.501 8.576C229.397 8.93867 230.154 9.46133 230.773 10.144C231.413 10.8267 231.893 11.6587 232.213 12.64C232.554 13.6 232.725 14.688 232.725 15.904C232.725 16.288 232.586 16.5867 232.309 16.8C232.053 16.992 231.679 17.088 231.189 17.088H220.917V14.784H229.909L229.397 15.264C229.397 14.2827 229.247 13.4613 228.949 12.8C228.671 12.1387 228.255 11.6373 227.701 11.296C227.167 10.9333 226.495 10.752 225.685 10.752C224.789 10.752 224.021 10.9653 223.381 11.392C222.762 11.7973 222.282 12.384 221.941 13.152C221.621 13.8987 221.461 14.7947 221.461 15.84V16.064C221.461 17.8133 221.866 19.1253 222.677 20C223.509 20.8533 224.725 21.28 226.325 21.28C226.879 21.28 227.498 21.216 228.181 21.088C228.885 20.9387 229.546 20.6933 230.165 20.352C230.613 20.096 231.007 19.9893 231.349 20.032C231.69 20.0533 231.957 20.1707 232.149 20.384C232.362 20.5973 232.49 20.864 232.533 21.184C232.575 21.4827 232.511 21.792 232.341 22.112C232.191 22.432 231.925 22.7093 231.541 22.944C230.794 23.4133 229.93 23.7653 228.949 24C227.989 24.2133 227.093 24.32 226.261 24.32ZM241.621 24.32C240.703 24.32 239.733 24.224 238.709 24.032C237.685 23.84 236.767 23.5093 235.957 23.04C235.615 22.8267 235.37 22.5813 235.221 22.304C235.093 22.0053 235.039 21.7173 235.061 21.44C235.103 21.1413 235.21 20.8853 235.381 20.672C235.573 20.4587 235.807 20.32 236.085 20.256C236.383 20.192 236.703 20.2453 237.045 20.416C237.898 20.8213 238.698 21.1093 239.445 21.28C240.191 21.4293 240.927 21.504 241.653 21.504C242.677 21.504 243.434 21.3333 243.925 20.992C244.437 20.6293 244.693 20.16 244.693 19.584C244.693 19.0933 244.522 18.72 244.181 18.464C243.861 18.1867 243.37 17.984 242.709 17.856L239.509 17.248C238.186 16.992 237.173 16.512 236.469 15.808C235.786 15.0827 235.445 14.1547 235.445 13.024C235.445 12 235.722 11.1147 236.277 10.368C236.853 9.62133 237.642 9.04533 238.645 8.64C239.647 8.23467 240.799 8.032 242.101 8.032C243.039 8.032 243.914 8.13867 244.725 8.352C245.557 8.544 246.357 8.85333 247.125 9.28C247.445 9.45067 247.658 9.67467 247.765 9.952C247.893 10.2293 247.925 10.5173 247.861 10.816C247.797 11.0933 247.669 11.3493 247.477 11.584C247.285 11.7973 247.039 11.936 246.741 12C246.463 12.0427 246.143 11.9787 245.781 11.808C245.119 11.4667 244.479 11.2213 243.861 11.072C243.263 10.9227 242.687 10.848 242.133 10.848C241.087 10.848 240.309 11.0293 239.797 11.392C239.306 11.7547 239.061 12.2347 239.061 12.832C239.061 13.28 239.21 13.6533 239.509 13.952C239.807 14.2507 240.266 14.4533 240.885 14.56L244.085 15.168C245.471 15.424 246.517 15.8933 247.221 16.576C247.946 17.2587 248.309 18.176 248.309 19.328C248.309 20.8853 247.701 22.112 246.485 23.008C245.269 23.8827 243.647 24.32 241.621 24.32ZM258.529 24.32C257.143 24.32 255.98 24.0853 255.041 23.616C254.124 23.1467 253.441 22.464 252.993 21.568C252.545 20.6507 252.321 19.52 252.321 18.176V11.36H250.657C250.145 11.36 249.751 11.232 249.473 10.976C249.196 10.6987 249.057 10.3253 249.057 9.856C249.057 9.36533 249.196 8.992 249.473 8.736C249.751 8.48 250.145 8.352 250.657 8.352H252.321V5.44C252.321 4.77867 252.492 4.27733 252.833 3.936C253.196 3.59467 253.697 3.424 254.337 3.424C254.977 3.424 255.468 3.59467 255.809 3.936C256.151 4.27733 256.321 4.77867 256.321 5.44V8.352H259.713C260.225 8.352 260.62 8.48 260.897 8.736C261.175 8.992 261.313 9.36533 261.313 9.856C261.313 10.3253 261.175 10.6987 260.897 10.976C260.62 11.232 260.225 11.36 259.713 11.36H256.321V17.952C256.321 18.976 256.545 19.744 256.993 20.256C257.441 20.768 258.167 21.024 259.169 21.024C259.532 21.024 259.852 20.992 260.129 20.928C260.407 20.864 260.652 20.8213 260.865 20.8C261.121 20.7787 261.335 20.864 261.505 21.056C261.676 21.2267 261.761 21.5893 261.761 22.144C261.761 22.5707 261.687 22.9547 261.537 23.296C261.409 23.616 261.164 23.84 260.801 23.968C260.524 24.0533 260.161 24.128 259.713 24.192C259.265 24.2773 258.871 24.32 258.529 24.32ZM2 62.12C1.456 62.12 1.016 61.952 0.68 61.616C0.36 61.28 0.2 60.848 0.2 60.32C0.2 59.808 0.36 59.392 0.68 59.072C1.016 58.736 1.456 58.568 2 58.568C2.56 58.568 2.992 58.736 3.296 59.072C3.616 59.392 3.776 59.808 3.776 60.32C3.776 60.848 3.616 61.28 3.296 61.616C2.992 61.952 2.56 62.12 2 62.12ZM2 53.696C1.456 53.696 1.016 53.528 0.68 53.192C0.36 52.856 0.2 52.432 0.2 51.92C0.2 51.392 0.36 50.968 0.68 50.648C1.016 50.312 1.456 50.144 2 50.144C2.56 50.144 2.992 50.312 3.296 50.648C3.616 50.968 3.776 51.392 3.776 51.92C3.776 52.432 3.616 52.856 3.296 53.192C2.992 53.528 2.56 53.696 2 53.696ZM19.2688 62.192C18.8368 62.192 18.4848 62.088 18.2128 61.88C17.9568 61.672 17.7488 61.344 17.5888 60.896L12.5728 46.712C12.3968 46.2 12.4288 45.768 12.6688 45.416C12.9248 45.064 13.3488 44.888 13.9408 44.888C14.3728 44.888 14.7088 44.992 14.9488 45.2C15.1888 45.392 15.3808 45.704 15.5248 46.136L19.8448 58.952H18.8848L23.3968 46.16C23.5568 45.728 23.7568 45.408 23.9968 45.2C24.2368 44.992 24.5488 44.888 24.9328 44.888C25.3168 44.888 25.6208 44.992 25.8448 45.2C26.0688 45.408 26.2608 45.736 26.4208 46.184L30.7888 58.952H29.9488L34.3408 46.136C34.4848 45.72 34.6768 45.408 34.9168 45.2C35.1568 44.992 35.4848 44.888 35.9008 44.888C36.4128 44.888 36.7888 45.064 37.0288 45.416C37.2688 45.768 37.3008 46.2 37.1248 46.712L32.0608 60.92C31.9008 61.352 31.6928 61.672 31.4368 61.88C31.1808 62.088 30.8368 62.192 30.4048 62.192C29.9728 62.192 29.6288 62.088 29.3728 61.88C29.1168 61.672 28.9088 61.344 28.7488 60.896L24.5728 48.992H25.1248L20.9008 60.92C20.7408 61.352 20.5328 61.672 20.2768 61.88C20.0368 62.088 19.7008 62.192 19.2688 62.192ZM42.4308 62.192C41.9508 62.192 41.5828 62.064 41.3268 61.808C41.0708 61.536 40.9428 61.152 40.9428 60.656V46.4C40.9428 45.904 41.0708 45.528 41.3268 45.272C41.5828 45.016 41.9508 44.888 42.4308 44.888C42.9108 44.888 43.2788 45.016 43.5348 45.272C43.8068 45.528 43.9428 45.904 43.9428 46.4V52.616H43.6068C43.9588 51.768 44.5028 51.128 45.2388 50.696C45.9908 50.248 46.8388 50.024 47.7828 50.024C48.7268 50.024 49.5028 50.2 50.1108 50.552C50.7188 50.904 51.1748 51.44 51.4788 52.16C51.7828 52.864 51.9348 53.76 51.9348 54.848V60.656C51.9348 61.152 51.8068 61.536 51.5508 61.808C51.2948 62.064 50.9268 62.192 50.4468 62.192C49.9668 62.192 49.5908 62.064 49.3188 61.808C49.0628 61.536 48.9348 61.152 48.9348 60.656V54.992C48.9348 54.08 48.7588 53.416 48.4068 53C48.0708 52.584 47.5428 52.376 46.8228 52.376C45.9428 52.376 45.2388 52.656 44.7108 53.216C44.1988 53.76 43.9428 54.488 43.9428 55.4V60.656C43.9428 61.68 43.4388 62.192 42.4308 62.192ZM58.8459 62.24C57.9979 62.24 57.2379 62.08 56.5659 61.76C55.9099 61.424 55.3899 60.976 55.0059 60.416C54.6379 59.856 54.4539 59.224 54.4539 58.52C54.4539 57.656 54.6779 56.976 55.1259 56.48C55.5739 55.968 56.3019 55.6 57.3099 55.376C58.3179 55.152 59.6699 55.04 61.3659 55.04H62.5659V56.768H61.3899C60.3979 56.768 59.6059 56.816 59.0139 56.912C58.4219 57.008 57.9979 57.176 57.7419 57.416C57.5019 57.64 57.3819 57.96 57.3819 58.376C57.3819 58.904 57.5659 59.336 57.9339 59.672C58.3019 60.008 58.8139 60.176 59.4699 60.176C59.9979 60.176 60.4619 60.056 60.8619 59.816C61.2779 59.56 61.6059 59.216 61.8459 58.784C62.0859 58.352 62.2059 57.856 62.2059 57.296V54.536C62.2059 53.736 62.0299 53.16 61.6779 52.808C61.3259 52.456 60.7339 52.28 59.9019 52.28C59.4379 52.28 58.9339 52.336 58.3899 52.448C57.8619 52.56 57.3019 52.752 56.7099 53.024C56.4059 53.168 56.1339 53.208 55.8939 53.144C55.6699 53.08 55.4939 52.952 55.3659 52.76C55.2379 52.552 55.1739 52.328 55.1739 52.088C55.1739 51.848 55.2379 51.616 55.3659 51.392C55.4939 51.152 55.7099 50.976 56.0139 50.864C56.7499 50.56 57.4539 50.344 58.1259 50.216C58.8139 50.088 59.4379 50.024 59.9979 50.024C61.1499 50.024 62.0939 50.2 62.8299 50.552C63.5819 50.904 64.1419 51.44 64.5099 52.16C64.8779 52.864 65.0619 53.776 65.0619 54.896V60.656C65.0619 61.152 64.9419 61.536 64.7019 61.808C64.4619 62.064 64.1179 62.192 63.6699 62.192C63.2219 62.192 62.8699 62.064 62.6139 61.808C62.3739 61.536 62.2539 61.152 62.2539 60.656V59.504H62.4459C62.3339 60.064 62.1099 60.552 61.7739 60.968C61.4539 61.368 61.0459 61.68 60.5499 61.904C60.0539 62.128 59.4859 62.24 58.8459 62.24ZM73.4829 62.24C72.4429 62.24 71.5709 62.064 70.8669 61.712C70.1789 61.36 69.6669 60.848 69.3309 60.176C68.9949 59.488 68.8269 58.64 68.8269 57.632V52.52H67.5789C67.1949 52.52 66.8989 52.424 66.6909 52.232C66.4829 52.024 66.3789 51.744 66.3789 51.392C66.3789 51.024 66.4829 50.744 66.6909 50.552C66.8989 50.36 67.1949 50.264 67.5789 50.264H68.8269V48.08C68.8269 47.584 68.9549 47.208 69.2109 46.952C69.4829 46.696 69.8589 46.568 70.3389 46.568C70.8189 46.568 71.1869 46.696 71.4429 46.952C71.6989 47.208 71.8269 47.584 71.8269 48.08V50.264H74.3709C74.7549 50.264 75.0509 50.36 75.2589 50.552C75.4669 50.744 75.5709 51.024 75.5709 51.392C75.5709 51.744 75.4669 52.024 75.2589 52.232C75.0509 52.424 74.7549 52.52 74.3709 52.52H71.8269V57.464C71.8269 58.232 71.9949 58.808 72.3309 59.192C72.6669 59.576 73.2109 59.768 73.9629 59.768C74.2349 59.768 74.4749 59.744 74.6829 59.696C74.8909 59.648 75.0749 59.616 75.2349 59.6C75.4269 59.584 75.5869 59.648 75.7149 59.792C75.8429 59.92 75.9069 60.192 75.9069 60.608C75.9069 60.928 75.8509 61.216 75.7389 61.472C75.6429 61.712 75.4589 61.88 75.1869 61.976C74.9789 62.04 74.7069 62.096 74.3709 62.144C74.0349 62.208 73.7389 62.24 73.4829 62.24ZM85.3214 62.168C84.8414 62.168 84.4734 62.024 84.2174 61.736C83.9614 61.448 83.8334 61.048 83.8334 60.536V51.728C83.8334 51.2 83.9614 50.8 84.2174 50.528C84.4734 50.24 84.8414 50.096 85.3214 50.096C85.8014 50.096 86.1694 50.24 86.4254 50.528C86.6974 50.8 86.8334 51.2 86.8334 51.728V60.536C86.8334 61.048 86.7054 61.448 86.4494 61.736C86.1934 62.024 85.8174 62.168 85.3214 62.168ZM85.3214 47.864C84.7614 47.864 84.3214 47.728 84.0014 47.456C83.6974 47.168 83.5454 46.776 83.5454 46.28C83.5454 45.768 83.6974 45.376 84.0014 45.104C84.3214 44.832 84.7614 44.696 85.3214 44.696C85.8974 44.696 86.3374 44.832 86.6414 45.104C86.9454 45.376 87.0974 45.768 87.0974 46.28C87.0974 46.776 86.9454 47.168 86.6414 47.456C86.3374 47.728 85.8974 47.864 85.3214 47.864ZM94.2466 62.24C93.5586 62.24 92.8306 62.168 92.0626 62.024C91.2946 61.88 90.6066 61.632 89.9986 61.28C89.7426 61.12 89.5586 60.936 89.4466 60.728C89.3506 60.504 89.3106 60.288 89.3266 60.08C89.3586 59.856 89.4386 59.664 89.5666 59.504C89.7106 59.344 89.8866 59.24 90.0946 59.192C90.3186 59.144 90.5586 59.184 90.8146 59.312C91.4546 59.616 92.0546 59.832 92.6146 59.96C93.1746 60.072 93.7266 60.128 94.2706 60.128C95.0386 60.128 95.6066 60 95.9746 59.744C96.3586 59.472 96.5506 59.12 96.5506 58.688C96.5506 58.32 96.4226 58.04 96.1666 57.848C95.9266 57.64 95.5586 57.488 95.0626 57.392L92.6626 56.936C91.6706 56.744 90.9106 56.384 90.3826 55.856C89.8706 55.312 89.6146 54.616 89.6146 53.768C89.6146 53 89.8226 52.336 90.2386 51.776C90.6706 51.216 91.2626 50.784 92.0146 50.48C92.7666 50.176 93.6306 50.024 94.6066 50.024C95.3106 50.024 95.9666 50.104 96.5746 50.264C97.1986 50.408 97.7986 50.64 98.3746 50.96C98.6146 51.088 98.7746 51.256 98.8546 51.464C98.9506 51.672 98.9746 51.888 98.9266 52.112C98.8786 52.32 98.7826 52.512 98.6386 52.688C98.4946 52.848 98.3106 52.952 98.0866 53C97.8786 53.032 97.6386 52.984 97.3666 52.856C96.8706 52.6 96.3906 52.416 95.9266 52.304C95.4786 52.192 95.0466 52.136 94.6306 52.136C93.8466 52.136 93.2626 52.272 92.8786 52.544C92.5106 52.816 92.3266 53.176 92.3266 53.624C92.3266 53.96 92.4386 54.24 92.6626 54.464C92.8866 54.688 93.2306 54.84 93.6946 54.92L96.0946 55.376C97.1346 55.568 97.9186 55.92 98.4466 56.432C98.9906 56.944 99.2626 57.632 99.2626 58.496C99.2626 59.664 98.8066 60.584 97.8946 61.256C96.9826 61.912 95.7666 62.24 94.2466 62.24ZM110.105 62C109.577 62 109.169 61.864 108.881 61.592C108.609 61.304 108.473 60.896 108.473 60.368V46.712C108.473 46.184 108.609 45.784 108.881 45.512C109.169 45.224 109.577 45.08 110.105 45.08H115.865C117.049 45.08 118.057 45.256 118.889 45.608C119.721 45.96 120.353 46.464 120.785 47.12C121.233 47.776 121.457 48.56 121.457 49.472C121.457 50.496 121.161 51.36 120.569 52.064C119.977 52.768 119.169 53.24 118.145 53.48V53.12C119.329 53.296 120.249 53.744 120.905 54.464C121.561 55.184 121.889 56.12 121.889 57.272C121.889 58.776 121.377 59.944 120.353 60.776C119.345 61.592 117.937 62 116.129 62H110.105ZM111.425 59.672H115.745C116.833 59.672 117.633 59.464 118.145 59.048C118.657 58.616 118.913 57.976 118.913 57.128C118.913 56.264 118.657 55.624 118.145 55.208C117.633 54.792 116.833 54.584 115.745 54.584H111.425V59.672ZM111.425 52.256H115.337C116.393 52.256 117.177 52.056 117.689 51.656C118.217 51.24 118.481 50.632 118.481 49.832C118.481 49.032 118.217 48.432 117.689 48.032C117.177 47.616 116.393 47.408 115.337 47.408H111.425V52.256ZM128.716 62.24C127.388 62.24 126.388 61.864 125.716 61.112C125.044 60.344 124.708 59.224 124.708 57.752V46.4C124.708 45.904 124.836 45.528 125.092 45.272C125.348 45.016 125.716 44.888 126.196 44.888C126.676 44.888 127.044 45.016 127.3 45.272C127.572 45.528 127.708 45.904 127.708 46.4V57.608C127.708 58.344 127.86 58.888 128.164 59.24C128.484 59.592 128.932 59.768 129.508 59.768C129.636 59.768 129.756 59.768 129.868 59.768C129.98 59.752 130.092 59.736 130.204 59.72C130.428 59.688 130.58 59.752 130.66 59.912C130.74 60.056 130.78 60.36 130.78 60.824C130.78 61.224 130.7 61.536 130.54 61.76C130.38 61.984 130.116 62.12 129.748 62.168C129.588 62.184 129.42 62.2 129.244 62.216C129.068 62.232 128.892 62.24 128.716 62.24ZM137.607 62.24C136.391 62.24 135.335 61.992 134.439 61.496C133.543 61 132.847 60.296 132.351 59.384C131.855 58.456 131.607 57.368 131.607 56.12C131.607 55.176 131.743 54.336 132.015 53.6C132.303 52.848 132.711 52.208 133.239 51.68C133.767 51.136 134.399 50.728 135.135 50.456C135.871 50.168 136.695 50.024 137.607 50.024C138.823 50.024 139.879 50.272 140.775 50.768C141.671 51.264 142.367 51.968 142.863 52.88C143.359 53.792 143.607 54.872 143.607 56.12C143.607 57.064 143.463 57.912 143.175 58.664C142.903 59.416 142.503 60.064 141.975 60.608C141.447 61.136 140.815 61.544 140.079 61.832C139.343 62.104 138.519 62.24 137.607 62.24ZM137.607 59.96C138.199 59.96 138.719 59.816 139.167 59.528C139.615 59.24 139.959 58.816 140.199 58.256C140.455 57.68 140.583 56.968 140.583 56.12C140.583 54.84 140.311 53.888 139.767 53.264C139.223 52.624 138.503 52.304 137.607 52.304C137.015 52.304 136.495 52.448 136.047 52.736C135.599 53.008 135.247 53.432 134.991 54.008C134.751 54.568 134.631 55.272 134.631 56.12C134.631 57.384 134.903 58.344 135.447 59C135.991 59.64 136.711 59.96 137.607 59.96ZM151.507 62.24C150.275 62.24 149.203 61.992 148.291 61.496C147.379 60.984 146.675 60.264 146.179 59.336C145.683 58.408 145.435 57.32 145.435 56.072C145.435 55.128 145.571 54.288 145.843 53.552C146.131 52.8 146.539 52.168 147.067 51.656C147.595 51.128 148.235 50.728 148.987 50.456C149.739 50.168 150.579 50.024 151.507 50.024C152.035 50.024 152.603 50.096 153.211 50.24C153.835 50.384 154.419 50.624 154.963 50.96C155.219 51.12 155.387 51.312 155.467 51.536C155.547 51.76 155.563 51.992 155.515 52.232C155.467 52.456 155.363 52.656 155.203 52.832C155.059 52.992 154.875 53.096 154.651 53.144C154.427 53.176 154.179 53.12 153.907 52.976C153.555 52.768 153.195 52.616 152.827 52.52C152.459 52.408 152.107 52.352 151.771 52.352C151.243 52.352 150.779 52.44 150.379 52.616C149.979 52.776 149.635 53.016 149.347 53.336C149.075 53.64 148.867 54.024 148.723 54.488C148.579 54.952 148.507 55.488 148.507 56.096C148.507 57.28 148.787 58.216 149.347 58.904C149.923 59.576 150.731 59.912 151.771 59.912C152.107 59.912 152.451 59.864 152.803 59.768C153.171 59.672 153.539 59.52 153.907 59.312C154.179 59.168 154.419 59.12 154.627 59.168C154.851 59.216 155.035 59.328 155.179 59.504C155.323 59.664 155.411 59.864 155.443 60.104C155.475 60.328 155.443 60.552 155.347 60.776C155.267 61 155.107 61.184 154.867 61.328C154.339 61.648 153.779 61.88 153.187 62.024C152.595 62.168 152.035 62.24 151.507 62.24ZM158.892 62.192C158.412 62.192 158.044 62.064 157.788 61.808C157.532 61.536 157.404 61.152 157.404 60.656V46.4C157.404 45.904 157.532 45.528 157.788 45.272C158.044 45.016 158.412 44.888 158.892 44.888C159.372 44.888 159.74 45.016 159.996 45.272C160.268 45.528 160.404 45.904 160.404 46.4V55.256H160.452L164.412 51.08C164.732 50.76 165.012 50.512 165.252 50.336C165.492 50.16 165.82 50.072 166.236 50.072C166.652 50.072 166.964 50.184 167.172 50.408C167.396 50.616 167.508 50.872 167.508 51.176C167.508 51.48 167.364 51.784 167.076 52.088L162.9 56.504V55.256L167.484 60.2C167.772 60.504 167.9 60.816 167.868 61.136C167.852 61.44 167.724 61.696 167.484 61.904C167.244 62.096 166.94 62.192 166.572 62.192C166.124 62.192 165.764 62.104 165.492 61.928C165.236 61.752 164.948 61.488 164.628 61.136L160.452 56.768H160.404V60.656C160.404 61.68 159.9 62.192 158.892 62.192ZM175.461 62.24C174.229 62.24 173.157 61.992 172.245 61.496C171.333 60.984 170.629 60.264 170.133 59.336C169.637 58.408 169.389 57.32 169.389 56.072C169.389 55.128 169.525 54.288 169.797 53.552C170.085 52.8 170.493 52.168 171.021 51.656C171.549 51.128 172.189 50.728 172.941 50.456C173.693 50.168 174.533 50.024 175.461 50.024C175.989 50.024 176.557 50.096 177.165 50.24C177.789 50.384 178.373 50.624 178.917 50.96C179.173 51.12 179.341 51.312 179.421 51.536C179.501 51.76 179.517 51.992 179.469 52.232C179.421 52.456 179.317 52.656 179.157 52.832C179.013 52.992 178.829 53.096 178.605 53.144C178.381 53.176 178.133 53.12 177.861 52.976C177.509 52.768 177.149 52.616 176.781 52.52C176.413 52.408 176.061 52.352 175.725 52.352C175.197 52.352 174.733 52.44 174.333 52.616C173.933 52.776 173.589 53.016 173.301 53.336C173.029 53.64 172.821 54.024 172.677 54.488C172.533 54.952 172.461 55.488 172.461 56.096C172.461 57.28 172.741 58.216 173.301 58.904C173.877 59.576 174.685 59.912 175.725 59.912C176.061 59.912 176.405 59.864 176.757 59.768C177.125 59.672 177.493 59.52 177.861 59.312C178.133 59.168 178.373 59.12 178.581 59.168C178.805 59.216 178.989 59.328 179.133 59.504C179.277 59.664 179.365 59.864 179.397 60.104C179.429 60.328 179.397 60.552 179.301 60.776C179.221 61 179.061 61.184 178.821 61.328C178.293 61.648 177.733 61.88 177.141 62.024C176.549 62.168 175.989 62.24 175.461 62.24ZM182.845 62.192C182.365 62.192 181.997 62.064 181.741 61.808C181.485 61.536 181.357 61.152 181.357 60.656V46.4C181.357 45.904 181.485 45.528 181.741 45.272C181.997 45.016 182.365 44.888 182.845 44.888C183.325 44.888 183.693 45.016 183.949 45.272C184.221 45.528 184.357 45.904 184.357 46.4V52.616H184.021C184.373 51.768 184.917 51.128 185.653 50.696C186.405 50.248 187.253 50.024 188.197 50.024C189.141 50.024 189.917 50.2 190.525 50.552C191.133 50.904 191.589 51.44 191.893 52.16C192.197 52.864 192.349 53.76 192.349 54.848V60.656C192.349 61.152 192.221 61.536 191.965 61.808C191.709 62.064 191.341 62.192 190.861 62.192C190.381 62.192 190.005 62.064 189.733 61.808C189.477 61.536 189.349 61.152 189.349 60.656V54.992C189.349 54.08 189.173 53.416 188.821 53C188.485 52.584 187.957 52.376 187.237 52.376C186.357 52.376 185.653 52.656 185.125 53.216C184.613 53.76 184.357 54.488 184.357 55.4V60.656C184.357 61.68 183.853 62.192 182.845 62.192ZM199.26 62.24C198.412 62.24 197.652 62.08 196.98 61.76C196.324 61.424 195.804 60.976 195.42 60.416C195.052 59.856 194.868 59.224 194.868 58.52C194.868 57.656 195.092 56.976 195.54 56.48C195.988 55.968 196.716 55.6 197.724 55.376C198.732 55.152 200.084 55.04 201.78 55.04H202.98V56.768H201.804C200.812 56.768 200.02 56.816 199.428 56.912C198.836 57.008 198.412 57.176 198.156 57.416C197.916 57.64 197.796 57.96 197.796 58.376C197.796 58.904 197.98 59.336 198.348 59.672C198.716 60.008 199.228 60.176 199.884 60.176C200.412 60.176 200.876 60.056 201.276 59.816C201.692 59.56 202.02 59.216 202.26 58.784C202.5 58.352 202.62 57.856 202.62 57.296V54.536C202.62 53.736 202.444 53.16 202.092 52.808C201.74 52.456 201.148 52.28 200.316 52.28C199.852 52.28 199.348 52.336 198.804 52.448C198.276 52.56 197.716 52.752 197.124 53.024C196.82 53.168 196.548 53.208 196.308 53.144C196.084 53.08 195.908 52.952 195.78 52.76C195.652 52.552 195.588 52.328 195.588 52.088C195.588 51.848 195.652 51.616 195.78 51.392C195.908 51.152 196.124 50.976 196.428 50.864C197.164 50.56 197.868 50.344 198.54 50.216C199.228 50.088 199.852 50.024 200.412 50.024C201.564 50.024 202.508 50.2 203.244 50.552C203.996 50.904 204.556 51.44 204.924 52.16C205.292 52.864 205.476 53.776 205.476 54.896V60.656C205.476 61.152 205.356 61.536 205.116 61.808C204.876 62.064 204.532 62.192 204.084 62.192C203.636 62.192 203.284 62.064 203.028 61.808C202.788 61.536 202.668 61.152 202.668 60.656V59.504H202.86C202.748 60.064 202.524 60.552 202.188 60.968C201.868 61.368 201.46 61.68 200.964 61.904C200.468 62.128 199.9 62.24 199.26 62.24ZM210.009 62.168C209.529 62.168 209.161 62.024 208.905 61.736C208.649 61.448 208.521 61.048 208.521 60.536V51.728C208.521 51.2 208.649 50.8 208.905 50.528C209.161 50.24 209.529 50.096 210.009 50.096C210.489 50.096 210.857 50.24 211.113 50.528C211.385 50.8 211.521 51.2 211.521 51.728V60.536C211.521 61.048 211.393 61.448 211.137 61.736C210.881 62.024 210.505 62.168 210.009 62.168ZM210.009 47.864C209.449 47.864 209.009 47.728 208.689 47.456C208.385 47.168 208.233 46.776 208.233 46.28C208.233 45.768 208.385 45.376 208.689 45.104C209.009 44.832 209.449 44.696 210.009 44.696C210.585 44.696 211.025 44.832 211.329 45.104C211.633 45.376 211.785 45.768 211.785 46.28C211.785 46.776 211.633 47.168 211.329 47.456C211.025 47.728 210.585 47.864 210.009 47.864ZM216.126 62.192C215.646 62.192 215.278 62.064 215.022 61.808C214.766 61.536 214.638 61.152 214.638 60.656V51.584C214.638 51.088 214.766 50.712 215.022 50.456C215.278 50.2 215.638 50.072 216.102 50.072C216.566 50.072 216.926 50.2 217.182 50.456C217.438 50.712 217.566 51.088 217.566 51.584V53.216L217.302 52.616C217.654 51.768 218.198 51.128 218.934 50.696C219.686 50.248 220.534 50.024 221.478 50.024C222.422 50.024 223.198 50.2 223.806 50.552C224.414 50.904 224.87 51.44 225.174 52.16C225.478 52.864 225.63 53.76 225.63 54.848V60.656C225.63 61.152 225.502 61.536 225.246 61.808C224.99 62.064 224.622 62.192 224.142 62.192C223.662 62.192 223.286 62.064 223.014 61.808C222.758 61.536 222.63 61.152 222.63 60.656V54.992C222.63 54.08 222.454 53.416 222.102 53C221.766 52.584 221.238 52.376 220.518 52.376C219.638 52.376 218.934 52.656 218.406 53.216C217.894 53.76 217.638 54.488 217.638 55.4V60.656C217.638 61.68 217.134 62.192 216.126 62.192ZM232.165 57.104C231.861 57.104 231.621 57.008 231.445 56.816C231.285 56.608 231.205 56.336 231.205 56C231.205 55.504 231.261 55.04 231.373 54.608C231.501 54.16 231.701 53.712 231.973 53.264C232.245 52.816 232.605 52.344 233.053 51.848C233.389 51.464 233.653 51.128 233.845 50.84C234.053 50.536 234.197 50.248 234.277 49.976C234.373 49.704 234.421 49.424 234.421 49.136C234.421 48.608 234.229 48.192 233.845 47.888C233.461 47.584 232.917 47.432 232.213 47.432C231.573 47.432 230.989 47.52 230.461 47.696C229.949 47.856 229.429 48.088 228.901 48.392C228.549 48.6 228.229 48.696 227.941 48.68C227.669 48.648 227.445 48.544 227.269 48.368C227.093 48.192 226.981 47.976 226.933 47.72C226.885 47.464 226.925 47.2 227.053 46.928C227.181 46.656 227.413 46.408 227.749 46.184C228.405 45.752 229.157 45.424 230.005 45.2C230.853 44.96 231.653 44.84 232.405 44.84C233.413 44.84 234.293 45.008 235.045 45.344C235.813 45.68 236.405 46.144 236.821 46.736C237.253 47.328 237.469 48.024 237.469 48.824C237.469 49.32 237.397 49.792 237.253 50.24C237.109 50.672 236.877 51.112 236.557 51.56C236.237 51.992 235.797 52.464 235.237 52.976C234.741 53.424 234.341 53.832 234.037 54.2C233.749 54.568 233.533 54.92 233.389 55.256C233.261 55.592 233.173 55.952 233.125 56.336C233.109 56.56 233.013 56.744 232.837 56.888C232.677 57.032 232.453 57.104 232.165 57.104ZM232.117 62.12C231.573 62.12 231.133 61.952 230.797 61.616C230.477 61.28 230.317 60.848 230.317 60.32C230.317 59.808 230.477 59.392 230.797 59.072C231.133 58.736 231.573 58.568 232.117 58.568C232.677 58.568 233.109 58.736 233.413 59.072C233.733 59.392 233.893 59.808 233.893 60.32C233.893 60.848 233.733 61.28 233.413 61.616C233.109 61.952 232.677 62.12 232.117 62.12Z" fill="white"/>
</svg>
