<svg width="336" height="86" viewBox="0 0 336 86" fill="none" xmlns="http://www.w3.org/2000/svg">
<path d="M4.512 36.256C3.85067 36.256 3.33867 36.0747 2.976 35.712C2.63467 35.328 2.464 34.8053 2.464 34.144V15.52C2.464 14.8373 2.64533 14.3253 3.008 13.984C3.37067 13.6213 3.88267 13.44 4.544 13.44H12.256C14.7307 13.44 16.64 14.0587 17.984 15.296C19.328 16.5333 20 18.2613 20 20.48C20 22.6987 19.328 24.4373 17.984 25.696C16.64 26.9333 14.7307 27.552 12.256 27.552H6.56V34.144C6.56 34.8053 6.38933 35.328 6.048 35.712C5.70667 36.0747 5.19467 36.256 4.512 36.256ZM6.56 24.32H11.616C13.0667 24.32 14.1653 24 14.912 23.36C15.6587 22.6987 16.032 21.7387 16.032 20.48C16.032 19.2213 15.6587 18.272 14.912 17.632C14.1653 16.992 13.0667 16.672 11.616 16.672H6.56V24.32ZM25.131 36C24.4483 36 23.947 35.8507 23.627 35.552C23.3283 35.232 23.179 34.7733 23.179 34.176C23.179 33.8133 23.275 33.4613 23.467 33.12C23.659 32.7787 23.9363 32.416 24.299 32.032L30.731 25.184C31.7123 24.16 32.4163 23.232 32.843 22.4C33.2697 21.5467 33.483 20.6933 33.483 19.84C33.483 18.7733 33.1417 17.9627 32.459 17.408C31.7977 16.8533 30.827 16.576 29.547 16.576C28.8217 16.576 28.0963 16.6827 27.371 16.896C26.6457 17.088 25.9097 17.4293 25.163 17.92C24.779 18.176 24.4163 18.2827 24.075 18.24C23.755 18.1973 23.467 18.0587 23.211 17.824C22.9763 17.5893 22.8163 17.3013 22.731 16.96C22.6457 16.6187 22.6563 16.2773 22.763 15.936C22.891 15.5733 23.147 15.264 23.531 15.008C24.4483 14.3893 25.4723 13.92 26.603 13.6C27.755 13.28 28.907 13.12 30.059 13.12C31.6803 13.12 33.0457 13.3653 34.155 13.856C35.2643 14.3467 36.107 15.0613 36.683 16C37.259 16.9387 37.547 18.08 37.547 19.424C37.547 20.32 37.3977 21.1947 37.099 22.048C36.8217 22.9013 36.3843 23.7653 35.787 24.64C35.211 25.5147 34.4537 26.4427 33.515 27.424L27.499 33.696V32.608H36.907C37.483 32.608 37.9203 32.7467 38.219 33.024C38.5177 33.3013 38.667 33.7173 38.667 34.272C38.667 34.8267 38.5177 35.2533 38.219 35.552C37.9203 35.8507 37.483 36 36.907 36H25.131ZM44.5745 36.256C43.9132 36.256 43.4012 36.0747 43.0385 35.712C42.6972 35.328 42.5265 34.8053 42.5265 34.144V15.52C42.5265 14.8373 42.7078 14.3253 43.0705 13.984C43.4332 13.6213 43.9452 13.44 44.6065 13.44H52.3185C54.7932 13.44 56.7025 14.0587 58.0465 15.296C59.3905 16.5333 60.0625 18.2613 60.0625 20.48C60.0625 22.6987 59.3905 24.4373 58.0465 25.696C56.7025 26.9333 54.7932 27.552 52.3185 27.552H46.6225V34.144C46.6225 34.8053 46.4518 35.328 46.1105 35.712C45.7692 36.0747 45.2572 36.256 44.5745 36.256ZM46.6225 24.32H51.6785C53.1292 24.32 54.2278 24 54.9745 23.36C55.7212 22.6987 56.0945 21.7387 56.0945 20.48C56.0945 19.2213 55.7212 18.272 54.9745 17.632C54.2278 16.992 53.1292 16.672 51.6785 16.672H46.6225V24.32ZM81.049 36.256C80.473 36.256 79.993 36.128 79.609 35.872C79.2463 35.5947 78.9477 35.1893 78.713 34.656L70.361 15.904C70.1263 15.3707 70.0623 14.9013 70.169 14.496C70.2757 14.0907 70.4997 13.7707 70.841 13.536C71.1823 13.3013 71.5877 13.184 72.057 13.184C72.6757 13.184 73.1343 13.3227 73.433 13.6C73.753 13.856 74.0197 14.2507 74.233 14.784L81.817 32.352H80.441L87.993 14.752C88.2277 14.24 88.505 13.856 88.825 13.6C89.145 13.3227 89.593 13.184 90.169 13.184C90.6383 13.184 91.0223 13.3013 91.321 13.536C91.641 13.7707 91.8437 14.0907 91.929 14.496C92.0143 14.9013 91.9397 15.3707 91.705 15.904L83.353 34.656C83.1183 35.1893 82.8197 35.5947 82.457 35.872C82.1157 36.128 81.6463 36.256 81.049 36.256ZM98.0953 36.224C97.4553 36.224 96.9646 36.032 96.6233 35.648C96.2819 35.264 96.1113 34.7307 96.1113 34.048V22.304C96.1113 21.6 96.2819 21.0667 96.6233 20.704C96.9646 20.32 97.4553 20.128 98.0953 20.128C98.7353 20.128 99.2259 20.32 99.5673 20.704C99.9299 21.0667 100.111 21.6 100.111 22.304V34.048C100.111 34.7307 99.9406 35.264 99.5993 35.648C99.2579 36.032 98.7566 36.224 98.0953 36.224ZM98.0953 17.152C97.3486 17.152 96.7619 16.9707 96.3353 16.608C95.9299 16.224 95.7273 15.7013 95.7273 15.04C95.7273 14.3573 95.9299 13.8347 96.3353 13.472C96.7619 13.1093 97.3486 12.928 98.0953 12.928C98.8633 12.928 99.4499 13.1093 99.8553 13.472C100.261 13.8347 100.463 14.3573 100.463 15.04C100.463 15.7013 100.261 16.224 99.8553 16.608C99.4499 16.9707 98.8633 17.152 98.0953 17.152ZM109.612 36.32C107.841 36.32 106.508 35.8187 105.612 34.816C104.716 33.792 104.268 32.2987 104.268 30.336V15.2C104.268 14.5387 104.438 14.0373 104.78 13.696C105.121 13.3547 105.612 13.184 106.252 13.184C106.892 13.184 107.382 13.3547 107.724 13.696C108.086 14.0373 108.268 14.5387 108.268 15.2V30.144C108.268 31.1253 108.47 31.8507 108.876 32.32C109.302 32.7893 109.9 33.024 110.668 33.024C110.838 33.024 110.998 33.024 111.148 33.024C111.297 33.0027 111.446 32.9813 111.595 32.96C111.894 32.9173 112.097 33.0027 112.204 33.216C112.31 33.408 112.364 33.8133 112.364 34.432C112.364 34.9653 112.257 35.3813 112.044 35.68C111.83 35.9787 111.478 36.16 110.988 36.224C110.774 36.2453 110.55 36.2667 110.316 36.288C110.081 36.3093 109.846 36.32 109.612 36.32ZM119.83 36.32C118.06 36.32 116.726 35.8187 115.83 34.816C114.934 33.792 114.486 32.2987 114.486 30.336V15.2C114.486 14.5387 114.657 14.0373 114.998 13.696C115.34 13.3547 115.83 13.184 116.47 13.184C117.11 13.184 117.601 13.3547 117.942 13.696C118.305 14.0373 118.486 14.5387 118.486 15.2V30.144C118.486 31.1253 118.689 31.8507 119.094 32.32C119.521 32.7893 120.118 33.024 120.886 33.024C121.057 33.024 121.217 33.024 121.366 33.024C121.516 33.0027 121.665 32.9813 121.814 32.96C122.113 32.9173 122.316 33.0027 122.422 33.216C122.529 33.408 122.582 33.8133 122.582 34.432C122.582 34.9653 122.476 35.3813 122.262 35.68C122.049 35.9787 121.697 36.16 121.206 36.224C120.993 36.2453 120.769 36.2667 120.534 36.288C120.3 36.3093 120.065 36.32 119.83 36.32ZM129.857 36.32C128.726 36.32 127.713 36.1067 126.817 35.68C125.942 35.232 125.249 34.6347 124.737 33.888C124.246 33.1413 124.001 32.2987 124.001 31.36C124.001 30.208 124.3 29.3013 124.897 28.64C125.494 27.9573 126.465 27.4667 127.809 27.168C129.153 26.8693 130.956 26.72 133.217 26.72H134.817V29.024H133.249C131.926 29.024 130.87 29.088 130.081 29.216C129.292 29.344 128.726 29.568 128.385 29.888C128.065 30.1867 127.905 30.6133 127.905 31.168C127.905 31.872 128.15 32.448 128.641 32.896C129.132 33.344 129.814 33.568 130.689 33.568C131.393 33.568 132.012 33.408 132.545 33.088C133.1 32.7467 133.537 32.288 133.857 31.712C134.177 31.136 134.337 30.4747 134.337 29.728V26.048C134.337 24.9813 134.102 24.2133 133.633 23.744C133.164 23.2747 132.374 23.04 131.265 23.04C130.646 23.04 129.974 23.1147 129.249 23.264C128.545 23.4133 127.798 23.6693 127.009 24.032C126.604 24.224 126.241 24.2773 125.921 24.192C125.622 24.1067 125.388 23.936 125.217 23.68C125.046 23.4027 124.961 23.104 124.961 22.784C124.961 22.464 125.046 22.1547 125.217 21.856C125.388 21.536 125.676 21.3013 126.081 21.152C127.062 20.7467 128.001 20.4587 128.897 20.288C129.814 20.1173 130.646 20.032 131.393 20.032C132.929 20.032 134.188 20.2667 135.169 20.736C136.172 21.2053 136.918 21.92 137.409 22.88C137.9 23.8187 138.145 25.0347 138.145 26.528V34.208C138.145 34.8693 137.985 35.3813 137.665 35.744C137.345 36.0853 136.886 36.256 136.289 36.256C135.692 36.256 135.222 36.0853 134.881 35.744C134.561 35.3813 134.401 34.8693 134.401 34.208V32.672H134.657C134.508 33.4187 134.209 34.0693 133.761 34.624C133.334 35.1573 132.79 35.5733 132.129 35.872C131.468 36.1707 130.71 36.32 129.857 36.32ZM149.501 42.08C148.349 42.08 147.229 41.9733 146.141 41.76C145.074 41.5467 144.104 41.216 143.229 40.768C142.824 40.5547 142.546 40.2987 142.397 40C142.269 39.7013 142.226 39.392 142.269 39.072C142.333 38.7733 142.461 38.5067 142.653 38.272C142.866 38.0373 143.122 37.8773 143.421 37.792C143.72 37.7067 144.029 37.7493 144.349 37.92C145.288 38.3893 146.173 38.688 147.005 38.816C147.858 38.9653 148.584 39.04 149.181 39.04C150.61 39.04 151.677 38.688 152.381 37.984C153.106 37.3013 153.469 36.2773 153.469 34.912V32.032H153.757C153.437 33.12 152.765 33.9947 151.741 34.656C150.738 35.296 149.597 35.616 148.317 35.616C146.909 35.616 145.682 35.296 144.637 34.656C143.592 33.9947 142.781 33.0773 142.205 31.904C141.629 30.7307 141.341 29.3653 141.341 27.808C141.341 26.6347 141.501 25.5787 141.821 24.64C142.162 23.68 142.632 22.8587 143.229 22.176C143.848 21.4933 144.584 20.9707 145.437 20.608C146.312 20.224 147.272 20.032 148.317 20.032C149.64 20.032 150.792 20.3627 151.773 21.024C152.776 21.664 153.426 22.5173 153.725 23.584L153.405 24.384V22.112C153.405 21.4507 153.576 20.9493 153.917 20.608C154.28 20.2667 154.77 20.096 155.389 20.096C156.029 20.096 156.52 20.2667 156.861 20.608C157.202 20.9493 157.373 21.4507 157.373 22.112V34.432C157.373 36.9707 156.701 38.88 155.357 40.16C154.013 41.44 152.061 42.08 149.501 42.08ZM149.405 32.576C150.237 32.576 150.952 32.384 151.549 32C152.146 31.616 152.605 31.072 152.925 30.368C153.266 29.6427 153.437 28.7893 153.437 27.808C153.437 26.336 153.074 25.184 152.349 24.352C151.624 23.4987 150.642 23.072 149.405 23.072C148.573 23.072 147.858 23.264 147.261 23.648C146.664 24.032 146.194 24.576 145.853 25.28C145.533 25.984 145.373 26.8267 145.373 27.808C145.373 29.28 145.736 30.4427 146.461 31.296C147.186 32.1493 148.168 32.576 149.405 32.576ZM169.23 36.32C167.459 36.32 165.934 35.9893 164.654 35.328C163.374 34.6667 162.382 33.728 161.678 32.512C160.995 31.296 160.654 29.856 160.654 28.192C160.654 26.5707 160.984 25.152 161.646 23.936C162.328 22.72 163.256 21.7707 164.43 21.088C165.624 20.384 166.979 20.032 168.494 20.032C169.603 20.032 170.595 20.2133 171.47 20.576C172.366 20.9387 173.123 21.4613 173.742 22.144C174.382 22.8267 174.862 23.6587 175.182 24.64C175.523 25.6 175.694 26.688 175.694 27.904C175.694 28.288 175.555 28.5867 175.278 28.8C175.022 28.992 174.648 29.088 174.158 29.088H163.886V26.784H172.878L172.366 27.264C172.366 26.2827 172.216 25.4613 171.918 24.8C171.64 24.1387 171.224 23.6373 170.67 23.296C170.136 22.9333 169.464 22.752 168.654 22.752C167.758 22.752 166.99 22.9653 166.35 23.392C165.731 23.7973 165.251 24.384 164.91 25.152C164.59 25.8987 164.43 26.7947 164.43 27.84V28.064C164.43 29.8133 164.835 31.1253 165.646 32C166.478 32.8533 167.694 33.28 169.294 33.28C169.848 33.28 170.467 33.216 171.15 33.088C171.854 32.9387 172.515 32.6933 173.134 32.352C173.582 32.096 173.976 31.9893 174.318 32.032C174.659 32.0533 174.926 32.1707 175.118 32.384C175.331 32.5973 175.459 32.864 175.502 33.184C175.544 33.4827 175.48 33.792 175.31 34.112C175.16 34.432 174.894 34.7093 174.51 34.944C173.763 35.4133 172.899 35.7653 171.918 36C170.958 36.2133 170.062 36.32 169.23 36.32ZM3 74.12C2.456 74.12 2.016 73.952 1.68 73.616C1.36 73.28 1.2 72.848 1.2 72.32C1.2 71.808 1.36 71.392 1.68 71.072C2.016 70.736 2.456 70.568 3 70.568C3.56 70.568 3.992 70.736 4.296 71.072C4.616 71.392 4.776 71.808 4.776 72.32C4.776 72.848 4.616 73.28 4.296 73.616C3.992 73.952 3.56 74.12 3 74.12ZM3 65.696C2.456 65.696 2.016 65.528 1.68 65.192C1.36 64.856 1.2 64.432 1.2 63.92C1.2 63.392 1.36 62.968 1.68 62.648C2.016 62.312 2.456 62.144 3 62.144C3.56 62.144 3.992 62.312 4.296 62.648C4.616 62.968 4.776 63.392 4.776 63.92C4.776 64.432 4.616 64.856 4.296 65.192C3.992 65.528 3.56 65.696 3 65.696ZM20.2688 74.192C19.8368 74.192 19.4848 74.088 19.2128 73.88C18.9568 73.672 18.7488 73.344 18.5888 72.896L13.5728 58.712C13.3968 58.2 13.4288 57.768 13.6688 57.416C13.9248 57.064 14.3488 56.888 14.9408 56.888C15.3728 56.888 15.7088 56.992 15.9488 57.2C16.1888 57.392 16.3808 57.704 16.5248 58.136L20.8448 70.952H19.8848L24.3968 58.16C24.5568 57.728 24.7568 57.408 24.9968 57.2C25.2368 56.992 25.5488 56.888 25.9328 56.888C26.3168 56.888 26.6208 56.992 26.8448 57.2C27.0688 57.408 27.2608 57.736 27.4208 58.184L31.7888 70.952H30.9488L35.3408 58.136C35.4848 57.72 35.6768 57.408 35.9168 57.2C36.1568 56.992 36.4848 56.888 36.9008 56.888C37.4128 56.888 37.7888 57.064 38.0288 57.416C38.2688 57.768 38.3008 58.2 38.1248 58.712L33.0608 72.92C32.9008 73.352 32.6928 73.672 32.4368 73.88C32.1808 74.088 31.8368 74.192 31.4048 74.192C30.9728 74.192 30.6288 74.088 30.3728 73.88C30.1168 73.672 29.9088 73.344 29.7488 72.896L25.5728 60.992H26.1248L21.9008 72.92C21.7408 73.352 21.5328 73.672 21.2768 73.88C21.0368 74.088 20.7008 74.192 20.2688 74.192ZM43.4308 74.192C42.9508 74.192 42.5828 74.064 42.3268 73.808C42.0708 73.536 41.9428 73.152 41.9428 72.656V58.4C41.9428 57.904 42.0708 57.528 42.3268 57.272C42.5828 57.016 42.9508 56.888 43.4308 56.888C43.9108 56.888 44.2788 57.016 44.5348 57.272C44.8068 57.528 44.9428 57.904 44.9428 58.4V64.616H44.6068C44.9588 63.768 45.5028 63.128 46.2388 62.696C46.9908 62.248 47.8388 62.024 48.7828 62.024C49.7268 62.024 50.5028 62.2 51.1108 62.552C51.7188 62.904 52.1748 63.44 52.4788 64.16C52.7828 64.864 52.9348 65.76 52.9348 66.848V72.656C52.9348 73.152 52.8068 73.536 52.5508 73.808C52.2948 74.064 51.9268 74.192 51.4468 74.192C50.9668 74.192 50.5908 74.064 50.3188 73.808C50.0628 73.536 49.9348 73.152 49.9348 72.656V66.992C49.9348 66.08 49.7588 65.416 49.4068 65C49.0708 64.584 48.5428 64.376 47.8228 64.376C46.9428 64.376 46.2388 64.656 45.7108 65.216C45.1988 65.76 44.9428 66.488 44.9428 67.4V72.656C44.9428 73.68 44.4388 74.192 43.4308 74.192ZM59.8459 74.24C58.9979 74.24 58.2379 74.08 57.5659 73.76C56.9099 73.424 56.3899 72.976 56.0059 72.416C55.6379 71.856 55.4539 71.224 55.4539 70.52C55.4539 69.656 55.6779 68.976 56.1259 68.48C56.5739 67.968 57.3019 67.6 58.3099 67.376C59.3179 67.152 60.6699 67.04 62.3659 67.04H63.5659V68.768H62.3899C61.3979 68.768 60.6059 68.816 60.0139 68.912C59.4219 69.008 58.9979 69.176 58.7419 69.416C58.5019 69.64 58.3819 69.96 58.3819 70.376C58.3819 70.904 58.5659 71.336 58.9339 71.672C59.3019 72.008 59.8139 72.176 60.4699 72.176C60.9979 72.176 61.4619 72.056 61.8619 71.816C62.2779 71.56 62.6059 71.216 62.8459 70.784C63.0859 70.352 63.2059 69.856 63.2059 69.296V66.536C63.2059 65.736 63.0299 65.16 62.6779 64.808C62.3259 64.456 61.7339 64.28 60.9019 64.28C60.4379 64.28 59.9339 64.336 59.3899 64.448C58.8619 64.56 58.3019 64.752 57.7099 65.024C57.4059 65.168 57.1339 65.208 56.8939 65.144C56.6699 65.08 56.4939 64.952 56.3659 64.76C56.2379 64.552 56.1739 64.328 56.1739 64.088C56.1739 63.848 56.2379 63.616 56.3659 63.392C56.4939 63.152 56.7099 62.976 57.0139 62.864C57.7499 62.56 58.4539 62.344 59.1259 62.216C59.8139 62.088 60.4379 62.024 60.9979 62.024C62.1499 62.024 63.0939 62.2 63.8299 62.552C64.5819 62.904 65.1419 63.44 65.5099 64.16C65.8779 64.864 66.0619 65.776 66.0619 66.896V72.656C66.0619 73.152 65.9419 73.536 65.7019 73.808C65.4619 74.064 65.1179 74.192 64.6699 74.192C64.2219 74.192 63.8699 74.064 63.6139 73.808C63.3739 73.536 63.2539 73.152 63.2539 72.656V71.504H63.4459C63.3339 72.064 63.1099 72.552 62.7739 72.968C62.4539 73.368 62.0459 73.68 61.5499 73.904C61.0539 74.128 60.4859 74.24 59.8459 74.24ZM74.4829 74.24C73.4429 74.24 72.5709 74.064 71.8669 73.712C71.1789 73.36 70.6669 72.848 70.3309 72.176C69.9949 71.488 69.8269 70.64 69.8269 69.632V64.52H68.5789C68.1949 64.52 67.8989 64.424 67.6909 64.232C67.4829 64.024 67.3789 63.744 67.3789 63.392C67.3789 63.024 67.4829 62.744 67.6909 62.552C67.8989 62.36 68.1949 62.264 68.5789 62.264H69.8269V60.08C69.8269 59.584 69.9549 59.208 70.2109 58.952C70.4829 58.696 70.8589 58.568 71.3389 58.568C71.8189 58.568 72.1869 58.696 72.4429 58.952C72.6989 59.208 72.8269 59.584 72.8269 60.08V62.264H75.3709C75.7549 62.264 76.0509 62.36 76.2589 62.552C76.4669 62.744 76.5709 63.024 76.5709 63.392C76.5709 63.744 76.4669 64.024 76.2589 64.232C76.0509 64.424 75.7549 64.52 75.3709 64.52H72.8269V69.464C72.8269 70.232 72.9949 70.808 73.3309 71.192C73.6669 71.576 74.2109 71.768 74.9629 71.768C75.2349 71.768 75.4749 71.744 75.6829 71.696C75.8909 71.648 76.0749 71.616 76.2349 71.6C76.4269 71.584 76.5869 71.648 76.7149 71.792C76.8429 71.92 76.9069 72.192 76.9069 72.608C76.9069 72.928 76.8509 73.216 76.7389 73.472C76.6429 73.712 76.4589 73.88 76.1869 73.976C75.9789 74.04 75.7069 74.096 75.3709 74.144C75.0349 74.208 74.7389 74.24 74.4829 74.24ZM86.3214 74.168C85.8414 74.168 85.4734 74.024 85.2174 73.736C84.9614 73.448 84.8334 73.048 84.8334 72.536V63.728C84.8334 63.2 84.9614 62.8 85.2174 62.528C85.4734 62.24 85.8414 62.096 86.3214 62.096C86.8014 62.096 87.1694 62.24 87.4254 62.528C87.6974 62.8 87.8334 63.2 87.8334 63.728V72.536C87.8334 73.048 87.7054 73.448 87.4494 73.736C87.1934 74.024 86.8174 74.168 86.3214 74.168ZM86.3214 59.864C85.7614 59.864 85.3214 59.728 85.0014 59.456C84.6974 59.168 84.5454 58.776 84.5454 58.28C84.5454 57.768 84.6974 57.376 85.0014 57.104C85.3214 56.832 85.7614 56.696 86.3214 56.696C86.8974 56.696 87.3374 56.832 87.6414 57.104C87.9454 57.376 88.0974 57.768 88.0974 58.28C88.0974 58.776 87.9454 59.168 87.6414 59.456C87.3374 59.728 86.8974 59.864 86.3214 59.864ZM95.2466 74.24C94.5586 74.24 93.8306 74.168 93.0626 74.024C92.2946 73.88 91.6066 73.632 90.9986 73.28C90.7426 73.12 90.5586 72.936 90.4466 72.728C90.3506 72.504 90.3106 72.288 90.3266 72.08C90.3586 71.856 90.4386 71.664 90.5666 71.504C90.7106 71.344 90.8866 71.24 91.0946 71.192C91.3186 71.144 91.5586 71.184 91.8146 71.312C92.4546 71.616 93.0546 71.832 93.6146 71.96C94.1746 72.072 94.7266 72.128 95.2706 72.128C96.0386 72.128 96.6066 72 96.9746 71.744C97.3586 71.472 97.5506 71.12 97.5506 70.688C97.5506 70.32 97.4226 70.04 97.1666 69.848C96.9266 69.64 96.5586 69.488 96.0626 69.392L93.6626 68.936C92.6706 68.744 91.9106 68.384 91.3826 67.856C90.8706 67.312 90.6146 66.616 90.6146 65.768C90.6146 65 90.8226 64.336 91.2386 63.776C91.6706 63.216 92.2626 62.784 93.0146 62.48C93.7666 62.176 94.6306 62.024 95.6066 62.024C96.3106 62.024 96.9666 62.104 97.5746 62.264C98.1986 62.408 98.7986 62.64 99.3746 62.96C99.6146 63.088 99.7746 63.256 99.8546 63.464C99.9506 63.672 99.9746 63.888 99.9266 64.112C99.8786 64.32 99.7826 64.512 99.6386 64.688C99.4946 64.848 99.3106 64.952 99.0866 65C98.8786 65.032 98.6386 64.984 98.3666 64.856C97.8706 64.6 97.3906 64.416 96.9266 64.304C96.4786 64.192 96.0466 64.136 95.6306 64.136C94.8466 64.136 94.2626 64.272 93.8786 64.544C93.5106 64.816 93.3266 65.176 93.3266 65.624C93.3266 65.96 93.4386 66.24 93.6626 66.464C93.8866 66.688 94.2306 66.84 94.6946 66.92L97.0946 67.376C98.1346 67.568 98.9186 67.92 99.4466 68.432C99.9906 68.944 100.263 69.632 100.263 70.496C100.263 71.664 99.8066 72.584 98.8946 73.256C97.9826 73.912 96.7666 74.24 95.2466 74.24ZM111.009 74.192C110.513 74.192 110.129 74.056 109.857 73.784C109.601 73.496 109.473 73.104 109.473 72.608V58.64C109.473 58.128 109.609 57.744 109.881 57.488C110.153 57.216 110.537 57.08 111.033 57.08H116.817C118.673 57.08 120.105 57.544 121.113 58.472C122.121 59.4 122.625 60.696 122.625 62.36C122.625 64.024 122.121 65.328 121.113 66.272C120.105 67.2 118.673 67.664 116.817 67.664H112.545V72.608C112.545 73.104 112.417 73.496 112.161 73.784C111.905 74.056 111.521 74.192 111.009 74.192ZM112.545 65.24H116.337C117.425 65.24 118.249 65 118.809 64.52C119.369 64.024 119.649 63.304 119.649 62.36C119.649 61.416 119.369 60.704 118.809 60.224C118.249 59.744 117.425 59.504 116.337 59.504H112.545V65.24ZM126.473 74C125.961 74 125.585 73.888 125.345 73.664C125.121 73.424 125.009 73.08 125.009 72.632C125.009 72.36 125.081 72.096 125.225 71.84C125.369 71.584 125.577 71.312 125.849 71.024L130.673 65.888C131.409 65.12 131.937 64.424 132.257 63.8C132.577 63.16 132.737 62.52 132.737 61.88C132.737 61.08 132.481 60.472 131.969 60.056C131.473 59.64 130.745 59.432 129.785 59.432C129.241 59.432 128.697 59.512 128.153 59.672C127.609 59.816 127.057 60.072 126.497 60.44C126.209 60.632 125.937 60.712 125.681 60.68C125.441 60.648 125.225 60.544 125.033 60.368C124.857 60.192 124.737 59.976 124.673 59.72C124.609 59.464 124.617 59.208 124.697 58.952C124.793 58.68 124.985 58.448 125.273 58.256C125.961 57.792 126.729 57.44 127.577 57.2C128.441 56.96 129.305 56.84 130.169 56.84C131.385 56.84 132.409 57.024 133.241 57.392C134.073 57.76 134.705 58.296 135.137 59C135.569 59.704 135.785 60.56 135.785 61.568C135.785 62.24 135.673 62.896 135.449 63.536C135.241 64.176 134.913 64.824 134.465 65.48C134.033 66.136 133.465 66.832 132.761 67.568L128.249 72.272V71.456H135.305C135.737 71.456 136.065 71.56 136.289 71.768C136.513 71.976 136.625 72.288 136.625 72.704C136.625 73.12 136.513 73.44 136.289 73.664C136.065 73.888 135.737 74 135.305 74H126.473ZM141.056 74.192C140.56 74.192 140.176 74.056 139.904 73.784C139.648 73.496 139.52 73.104 139.52 72.608V58.64C139.52 58.128 139.656 57.744 139.928 57.488C140.2 57.216 140.584 57.08 141.08 57.08H146.864C148.72 57.08 150.152 57.544 151.16 58.472C152.168 59.4 152.672 60.696 152.672 62.36C152.672 64.024 152.168 65.328 151.16 66.272C150.152 67.2 148.72 67.664 146.864 67.664H142.592V72.608C142.592 73.104 142.464 73.496 142.208 73.784C141.952 74.056 141.568 74.192 141.056 74.192ZM142.592 65.24H146.384C147.472 65.24 148.296 65 148.856 64.52C149.416 64.024 149.696 63.304 149.696 62.36C149.696 61.416 149.416 60.704 148.856 60.224C148.296 59.744 147.472 59.504 146.384 59.504H142.592V65.24ZM158.797 69.104C158.493 69.104 158.253 69.008 158.077 68.816C157.917 68.608 157.837 68.336 157.837 68C157.837 67.504 157.893 67.04 158.005 66.608C158.133 66.16 158.333 65.712 158.605 65.264C158.877 64.816 159.237 64.344 159.685 63.848C160.021 63.464 160.285 63.128 160.477 62.84C160.685 62.536 160.829 62.248 160.909 61.976C161.005 61.704 161.053 61.424 161.053 61.136C161.053 60.608 160.861 60.192 160.477 59.888C160.093 59.584 159.549 59.432 158.845 59.432C158.205 59.432 157.621 59.52 157.093 59.696C156.581 59.856 156.061 60.088 155.533 60.392C155.181 60.6 154.861 60.696 154.573 60.68C154.301 60.648 154.077 60.544 153.901 60.368C153.725 60.192 153.613 59.976 153.565 59.72C153.517 59.464 153.557 59.2 153.685 58.928C153.813 58.656 154.045 58.408 154.381 58.184C155.037 57.752 155.789 57.424 156.637 57.2C157.485 56.96 158.285 56.84 159.037 56.84C160.045 56.84 160.925 57.008 161.677 57.344C162.445 57.68 163.037 58.144 163.453 58.736C163.885 59.328 164.101 60.024 164.101 60.824C164.101 61.32 164.029 61.792 163.885 62.24C163.741 62.672 163.509 63.112 163.189 63.56C162.869 63.992 162.429 64.464 161.869 64.976C161.373 65.424 160.973 65.832 160.669 66.2C160.381 66.568 160.165 66.92 160.021 67.256C159.893 67.592 159.805 67.952 159.757 68.336C159.741 68.56 159.645 68.744 159.469 68.888C159.309 69.032 159.085 69.104 158.797 69.104ZM158.749 74.12C158.205 74.12 157.765 73.952 157.429 73.616C157.109 73.28 156.949 72.848 156.949 72.32C156.949 71.808 157.109 71.392 157.429 71.072C157.765 70.736 158.205 70.568 158.749 70.568C159.309 70.568 159.741 70.736 160.045 71.072C160.365 71.392 160.525 71.808 160.525 72.32C160.525 72.848 160.365 73.28 160.045 73.616C159.741 73.952 159.309 74.12 158.749 74.12Z" fill="white"/>
</svg>
