        <svg
          xmlns="http://www.w3.org/2000/svg"
          width="200"
          height="65"
          viewBox="0 0 200 65"
          fill="none"
        >
          <mask id="path-1-inside-1_6_31" fill="white">
            <path
              fill-rule="evenodd"
              clip-rule="evenodd"
              d="M1.21793 10.3771C0 13.3174 0 17.0449 0 24.5C0 31.9551 0 35.6826 1.21793 38.6229C2.84183 42.5434 5.95662 45.6582 9.87706 47.2821C12.8174 48.5 16.5449 48.5 24 48.5H87.6299C88.2875 50.2133 89.5499 52.4 91.3397 55.5C94.3771 60.7608 95.8958 63.3912 97.9479 64.1382C99.2734 64.6206 100.727 64.6206 102.052 64.1382C104.104 63.3912 105.623 60.7608 108.66 55.5C110.45 52.4 111.713 50.2133 112.37 48.5H176C183.455 48.5 187.183 48.5 190.123 47.2821C194.043 45.6582 197.158 42.5434 198.782 38.6229C200 35.6826 200 31.9551 200 24.5C200 17.0449 200 13.3174 198.782 10.3771C197.158 6.45662 194.043 3.34183 190.123 1.71793C187.183 0.5 183.455 0.5 176 0.5H24C16.5449 0.5 12.8174 0.5 9.87706 1.71793C5.95662 3.34183 2.84183 6.45662 1.21793 10.3771Z"
            />
          </mask>
          <path
            fill-rule="evenodd"
            clip-rule="evenodd"
            d="M1.21793 10.3771C0 13.3174 0 17.0449 0 24.5C0 31.9551 0 35.6826 1.21793 38.6229C2.84183 42.5434 5.95662 45.6582 9.87706 47.2821C12.8174 48.5 16.5449 48.5 24 48.5H87.6299C88.2875 50.2133 89.5499 52.4 91.3397 55.5C94.3771 60.7608 95.8958 63.3912 97.9479 64.1382C99.2734 64.6206 100.727 64.6206 102.052 64.1382C104.104 63.3912 105.623 60.7608 108.66 55.5C110.45 52.4 111.713 50.2133 112.37 48.5H176C183.455 48.5 187.183 48.5 190.123 47.2821C194.043 45.6582 197.158 42.5434 198.782 38.6229C200 35.6826 200 31.9551 200 24.5C200 17.0449 200 13.3174 198.782 10.3771C197.158 6.45662 194.043 3.34183 190.123 1.71793C187.183 0.5 183.455 0.5 176 0.5H24C16.5449 0.5 12.8174 0.5 9.87706 1.71793C5.95662 3.34183 2.84183 6.45662 1.21793 10.3771Z"
            fill="#FAFAFA"
          />
          <path
            d="M1.21793 10.3771L-0.629832 9.6117H-0.629832L1.21793 10.3771ZM1.21793 38.6229L-0.629832 39.3883H-0.629832L1.21793 38.6229ZM9.87706 47.2821L9.1117 49.1298H9.1117L9.87706 47.2821ZM87.6299 48.5L89.4972 47.7834L89.0046 46.5H87.6299V48.5ZM91.3397 55.5L93.0718 54.5L91.3397 55.5ZM97.9479 64.1382L98.6319 62.2588V62.2588L97.9479 64.1382ZM102.052 64.1382L101.368 62.2588V62.2588L102.052 64.1382ZM108.66 55.5L110.392 56.5L108.66 55.5ZM112.37 48.5V46.5H110.995L110.503 47.7834L112.37 48.5ZM190.123 47.2821L190.888 49.1298L190.123 47.2821ZM198.782 38.6229L200.63 39.3883L198.782 38.6229ZM198.782 10.3771L200.63 9.6117V9.6117L198.782 10.3771ZM190.123 1.71793L190.888 -0.129831V-0.129832L190.123 1.71793ZM9.87706 1.71793L9.1117 -0.129832V-0.129832L9.87706 1.71793ZM2 24.5C2 20.7451 2.00108 18.0291 2.1476 15.8817C2.29289 13.7522 2.57449 12.3283 3.06569 11.1424L-0.629832 9.6117C-1.35656 11.3662 -1.68393 13.2762 -1.84312 15.6094C-2.00108 17.9245 -2 20.7998 -2 24.5H2ZM3.06569 37.8576C2.57449 36.6717 2.29289 35.2478 2.1476 33.1183C2.00108 30.9709 2 28.2549 2 24.5H-2C-2 28.2002 -2.00108 31.0755 -1.84312 33.3906C-1.68393 35.7238 -1.35656 37.6338 -0.629832 39.3883L3.06569 37.8576ZM10.6424 45.4343C7.21204 44.0134 4.4866 41.288 3.06569 37.8576L-0.629832 39.3883C1.19706 43.7988 4.70119 47.3029 9.1117 49.1298L10.6424 45.4343ZM24 46.5C20.2451 46.5 17.5291 46.4989 15.3817 46.3524C13.2522 46.2071 11.8283 45.9255 10.6424 45.4343L9.1117 49.1298C10.8662 49.8566 12.7762 50.1839 15.1094 50.3431C17.4245 50.5011 20.2998 50.5 24 50.5V46.5ZM87.6299 46.5H24V50.5H87.6299V46.5ZM93.0718 54.5C91.244 51.3341 90.0841 49.3127 89.4972 47.7834L85.7627 49.2166C86.4909 51.1139 87.8559 53.4659 89.6077 56.5L93.0718 54.5ZM98.6319 62.2588C98.182 62.095 97.5829 61.6557 96.6354 60.3419C95.6931 59.0353 94.6125 57.1685 93.0718 54.5L89.6077 56.5C91.1044 59.0923 92.3017 61.1712 93.3911 62.6817C94.4753 64.1851 95.6616 65.4344 97.2638 66.0175L98.6319 62.2588ZM101.368 62.2588C100.484 62.5804 99.5156 62.5804 98.6319 62.2588L97.2638 66.0175C99.0312 66.6608 100.969 66.6608 102.736 66.0175L101.368 62.2588ZM106.928 54.5C105.388 57.1685 104.307 59.0353 103.365 60.3419C102.417 61.6557 101.818 62.095 101.368 62.2588L102.736 66.0175C104.338 65.4344 105.525 64.1851 106.609 62.6817C107.698 61.1712 108.896 59.0923 110.392 56.5L106.928 54.5ZM110.503 47.7834C109.916 49.3127 108.756 51.3341 106.928 54.5L110.392 56.5C112.144 53.4659 113.509 51.1139 114.237 49.2166L110.503 47.7834ZM176 46.5H112.37V50.5H176V46.5ZM189.358 45.4343C188.172 45.9255 186.748 46.2071 184.618 46.3524C182.471 46.4989 179.755 46.5 176 46.5V50.5C179.7 50.5 182.575 50.5011 184.891 50.3431C187.224 50.1839 189.134 49.8566 190.888 49.1298L189.358 45.4343ZM196.934 37.8576C195.513 41.288 192.788 44.0134 189.358 45.4343L190.888 49.1298C195.299 47.3029 198.803 43.7988 200.63 39.3883L196.934 37.8576ZM198 24.5C198 28.2549 197.999 30.9709 197.852 33.1183C197.707 35.2478 197.426 36.6717 196.934 37.8576L200.63 39.3883C201.357 37.6338 201.684 35.7238 201.843 33.3906C202.001 31.0755 202 28.2002 202 24.5H198ZM196.934 11.1424C197.426 12.3283 197.707 13.7522 197.852 15.8817C197.999 18.0291 198 20.7451 198 24.5H202C202 20.7998 202.001 17.9245 201.843 15.6094C201.684 13.2762 201.357 11.3662 200.63 9.6117L196.934 11.1424ZM189.358 3.56569C192.788 4.9866 195.513 7.71204 196.934 11.1424L200.63 9.6117C198.803 5.20119 195.299 1.69706 190.888 -0.129831L189.358 3.56569ZM176 2.5C179.755 2.5 182.471 2.50108 184.618 2.6476C186.748 2.7929 188.172 3.07449 189.358 3.56569L190.888 -0.129832C189.134 -0.856562 187.224 -1.18393 184.891 -1.34312C182.575 -1.50108 179.7 -1.5 176 -1.5V2.5ZM24 2.5H176V-1.5H24V2.5ZM10.6424 3.56569C11.8283 3.07449 13.2522 2.79289 15.3817 2.6476C17.5291 2.50108 20.2451 2.5 24 2.5V-1.5C20.2998 -1.5 17.4245 -1.50108 15.1094 -1.34312C12.7762 -1.18393 10.8662 -0.856562 9.1117 -0.129832L10.6424 3.56569ZM3.06569 11.1424C4.4866 7.71204 7.21204 4.9866 10.6424 3.56569L9.1117 -0.129832C4.70119 1.69706 1.19706 5.20119 -0.629832 9.6117L3.06569 11.1424Z"
            fill="#EEEEEE"
            mask="url(#path-1-inside-1_6_31)"
          />
        </svg>