<svg xmlns="http://www.w3.org/2000/svg" width="238" height="149" viewBox="0 0 238 149" fill="none">
  <mask id="path-1-inside-1_6_8648" fill="white">
    <path fill-rule="evenodd" clip-rule="evenodd" d="M4.68629 4.68629C0 9.37258 0 16.9151 0 32V80.5C0 95.5849 0 103.127 4.68629 107.814C9.37258 112.5 16.9151 112.5 32 112.5H103.885L107.485 124.779C112.166 140.749 114.506 148.733 119 148.733C123.494 148.733 125.834 140.749 130.516 124.779L134.115 112.5H206C221.085 112.5 228.627 112.5 233.314 107.814C238 103.127 238 95.5849 238 80.5V32C238 16.9151 238 9.37258 233.314 4.68629C228.627 0 221.085 0 206 0H32C16.9151 0 9.37258 0 4.68629 4.68629Z"/>
  </mask>
  <path fill-rule="evenodd" clip-rule="evenodd" d="M4.68629 4.68629C0 9.37258 0 16.9151 0 32V80.5C0 95.5849 0 103.127 4.68629 107.814C9.37258 112.5 16.9151 112.5 32 112.5H103.885L107.485 124.779C112.166 140.749 114.506 148.733 119 148.733C123.494 148.733 125.834 140.749 130.516 124.779L134.115 112.5H206C221.085 112.5 228.627 112.5 233.314 107.814C238 103.127 238 95.5849 238 80.5V32C238 16.9151 238 9.37258 233.314 4.68629C228.627 0 221.085 0 206 0H32C16.9151 0 9.37258 0 4.68629 4.68629Z" fill="#FAFAFA"/>
  <path d="M4.68629 107.814L6.10051 106.399H6.1005L4.68629 107.814ZM103.885 112.5L105.804 111.937L105.383 110.5H103.885V112.5ZM107.485 124.779L109.404 124.217L107.485 124.779ZM130.516 124.779L128.596 124.217L130.516 124.779ZM134.115 112.5V110.5H132.617L132.196 111.937L134.115 112.5ZM233.314 107.814L231.899 106.399L233.314 107.814ZM2 32C2 24.401 2.00425 18.9029 2.56795 14.7101C3.12392 10.5749 4.1909 8.01011 6.10051 6.10051L3.27208 3.27208C0.495394 6.04876 -0.780775 9.59836 -1.39638 14.1772C-2.00425 18.6984 -2 24.5141 -2 32H2ZM2 80.5V32H-2V80.5H2ZM6.1005 106.399C4.1909 104.49 3.12392 101.925 2.56795 97.7898C2.00425 93.5971 2 88.099 2 80.5H-2C-2 87.9859 -2.00425 93.8016 -1.39638 98.3228C-0.780775 102.902 0.495394 106.451 3.27208 109.228L6.1005 106.399ZM32 110.5C24.401 110.5 18.9029 110.496 14.7101 109.932C10.5749 109.376 8.01011 108.309 6.10051 106.399L3.27208 109.228C6.04876 112.005 9.59836 113.281 14.1772 113.896C18.6984 114.504 24.5141 114.5 32 114.5V110.5ZM103.885 110.5H32V114.5H103.885V110.5ZM109.404 124.217L105.804 111.937L101.966 113.063L105.565 125.342L109.404 124.217ZM119 146.733C118.567 146.733 118.078 146.576 117.431 145.877C116.735 145.126 115.983 143.874 115.147 141.949C113.478 138.099 111.762 132.26 109.404 124.217L105.565 125.342C107.889 133.268 109.684 139.405 111.478 143.541C112.375 145.608 113.342 147.35 114.496 148.595C115.698 149.893 117.186 150.733 119 150.733V146.733ZM128.596 124.217C126.238 132.26 124.523 138.099 122.853 141.949C122.018 143.874 121.265 145.126 120.57 145.877C119.922 146.576 119.433 146.733 119 146.733V150.733C120.814 150.733 122.302 149.893 123.504 148.595C124.658 147.35 125.625 145.608 126.522 143.541C128.316 139.405 130.111 133.268 132.435 125.342L128.596 124.217ZM132.196 111.937L128.596 124.217L132.435 125.342L136.034 113.063L132.196 111.937ZM206 110.5H134.115V114.5H206V110.5ZM231.899 106.399C229.99 108.309 227.425 109.376 223.29 109.932C219.097 110.496 213.599 110.5 206 110.5V114.5C213.486 114.5 219.302 114.504 223.823 113.896C228.402 113.281 231.951 112.005 234.728 109.228L231.899 106.399ZM236 80.5C236 88.099 235.996 93.5971 235.432 97.7898C234.876 101.925 233.809 104.49 231.899 106.399L234.728 109.228C237.505 106.451 238.781 102.902 239.396 98.3228C240.004 93.8016 240 87.9859 240 80.5H236ZM236 32V80.5H240V32H236ZM231.899 6.10051C233.809 8.01011 234.876 10.5749 235.432 14.7101C235.996 18.9029 236 24.401 236 32H240C240 24.5141 240.004 18.6984 239.396 14.1772C238.781 9.59836 237.505 6.04876 234.728 3.27208L231.899 6.10051ZM206 2C213.599 2 219.097 2.00425 223.29 2.56795C227.425 3.12392 229.99 4.1909 231.899 6.10051L234.728 3.27208C231.951 0.495395 228.402 -0.780775 223.823 -1.39638C219.302 -2.00425 213.486 -2 206 -2V2ZM32 2H206V-2H32V2ZM6.10051 6.10051C8.01011 4.1909 10.5749 3.12392 14.7101 2.56795C18.9029 2.00425 24.401 2 32 2V-2C24.5141 -2 18.6984 -2.00425 14.1772 -1.39638C9.59836 -0.780775 6.04876 0.495394 3.27208 3.27208L6.10051 6.10051Z" fill="#EEEEEE" mask="url(#path-1-inside-1_6_8648)"/>
</svg>