<svg width="28" height="28" viewBox="0 0 28 28" fill="none" xmlns="http://www.w3.org/2000/svg">
<g id="Icon=times, Component=Additional Icons">
<path id="Vector" d="M15.6449 14L20.6616 8.995C20.8813 8.77531 21.0047 8.47735 21.0047 8.16666C21.0047 7.85598 20.8813 7.55802 20.6616 7.33833C20.4419 7.11864 20.1439 6.99522 19.8333 6.99522C19.5226 6.99522 19.2246 7.11864 19.0049 7.33833L13.9999 12.355L8.99493 7.33833C8.77524 7.11864 8.47728 6.99522 8.1666 6.99522C7.85591 6.99522 7.55795 7.11864 7.33826 7.33833C7.11857 7.55802 6.99516 7.85598 6.99516 8.16666C6.99516 8.47735 7.11857 8.77531 7.33826 8.995L12.3549 14L7.33826 19.005C7.22891 19.1135 7.14212 19.2425 7.08289 19.3847C7.02366 19.5268 6.99316 19.6793 6.99316 19.8333C6.99316 19.9873 7.02366 20.1398 7.08289 20.282C7.14212 20.4242 7.22891 20.5532 7.33826 20.6617C7.44672 20.771 7.57575 20.8578 7.71792 20.917C7.86009 20.9763 8.01258 21.0068 8.1666 21.0068C8.32061 21.0068 8.4731 20.9763 8.61527 20.917C8.75744 20.8578 8.88647 20.771 8.99493 20.6617L13.9999 15.645L19.0049 20.6617C19.1134 20.771 19.2424 20.8578 19.3846 20.917C19.5268 20.9763 19.6792 21.0068 19.8333 21.0068C19.9873 21.0068 20.1398 20.9763 20.2819 20.917C20.4241 20.8578 20.5531 20.771 20.6616 20.6617C20.7709 20.5532 20.8577 20.4242 20.917 20.282C20.9762 20.1398 21.0067 19.9873 21.0067 19.8333C21.0067 19.6793 20.9762 19.5268 20.917 19.3847C20.8577 19.2425 20.7709 19.1135 20.6616 19.005L15.6449 14Z" fill="#212121"/>
</g>
</svg>
